<mxfile host="Electron" modified="2023-10-05T02:05:41.397Z" agent="Mozilla/5.0 (Windows NT 10.0; Win64; x64) AppleWebKit/537.36 (KHTML, like Gecko) draw.io/21.5.1 Chrome/112.0.5615.204 Electron/24.6.0 Safari/537.36" etag="FZmA5MJWL5hnhNEh_e6r" version="21.5.1" type="device">
  <diagram name="Page-1" id="hiZdoYTuC0I_5lbT2Ek-">
    <mxGraphModel dx="778" dy="831" grid="1" gridSize="10" guides="1" tooltips="1" connect="1" arrows="1" fold="1" page="1" pageScale="1" pageWidth="827" pageHeight="1169" math="0" shadow="0">
      <root>
        <mxCell id="0" />
        <mxCell id="1" parent="0" />
        <mxCell id="PcTv8KJDjpJ5iuoM4f3U-11" style="edgeStyle=orthogonalEdgeStyle;rounded=0;orthogonalLoop=1;jettySize=auto;html=1;" edge="1" parent="1" source="PcTv8KJDjpJ5iuoM4f3U-1" target="PcTv8KJDjpJ5iuoM4f3U-9">
          <mxGeometry relative="1" as="geometry" />
        </mxCell>
        <mxCell id="PcTv8KJDjpJ5iuoM4f3U-1" value="AWS Config - Configuration change &lt;br&gt;occurs in your AWS Resource" style="sketch=0;points=[[0,0,0],[0.25,0,0],[0.5,0,0],[0.75,0,0],[1,0,0],[0,1,0],[0.25,1,0],[0.5,1,0],[0.75,1,0],[1,1,0],[0,0.25,0],[0,0.5,0],[0,0.75,0],[1,0.25,0],[1,0.5,0],[1,0.75,0]];points=[[0,0,0],[0.25,0,0],[0.5,0,0],[0.75,0,0],[1,0,0],[0,1,0],[0.25,1,0],[0.5,1,0],[0.75,1,0],[1,1,0],[0,0.25,0],[0,0.5,0],[0,0.75,0],[1,0.25,0],[1,0.5,0],[1,0.75,0]];outlineConnect=0;fontColor=#232F3E;gradientColor=#F34482;gradientDirection=north;fillColor=#BC1356;strokeColor=#ffffff;dashed=0;verticalLabelPosition=bottom;verticalAlign=top;align=center;html=1;fontSize=12;fontStyle=0;aspect=fixed;shape=mxgraph.aws4.resourceIcon;resIcon=mxgraph.aws4.config;" vertex="1" parent="1">
          <mxGeometry x="280" y="297.9" width="78" height="78" as="geometry" />
        </mxCell>
        <mxCell id="PcTv8KJDjpJ5iuoM4f3U-12" style="edgeStyle=orthogonalEdgeStyle;rounded=0;orthogonalLoop=1;jettySize=auto;html=1;" edge="1" parent="1" source="PcTv8KJDjpJ5iuoM4f3U-9" target="PcTv8KJDjpJ5iuoM4f3U-10">
          <mxGeometry relative="1" as="geometry" />
        </mxCell>
        <mxCell id="PcTv8KJDjpJ5iuoM4f3U-9" value="Config records and normalizes &#xa;the changes into a consistent format" style="shape=image;verticalLabelPosition=bottom;labelBackgroundColor=default;verticalAlign=top;aspect=fixed;imageAspect=0;image=data:image/png,iVBORw0KGgoAAAANSUhEUgAAAzcAAAMvCAYAAADvVC4sAAAgAElEQVR4nOzdd1RWZ9o18G2lidixICrVCooFCyigxoLYYk/TNGOSeef9MonJJJNk0ieaae8kmhiNJbEXLIhdkKKiKE2RLgKCigXpKIbvD0PGRj/nvs95nv1ba9ZkMnquvSzA5tylUUVFRQWIiIiIiIh0rrHsAEREREREREpguSEiIiIiIoPAckNERERERAahqewARERERESG6MCpWIx3d5UdQ3caciQA39wQEREREZFBYLkhIiIiIiKDwHJDREREREQGgeWGiIiIiIgMAssNEREREREZBJYbIiIiIiIyCCw3RERERERkEFhuiIiIiIjIILDcEBERERGRQWC5ISIiIiIig8ByQ0REREREBoHlhoiIiIiIDALLDRERERERGQSWGyIiIiIiMggsN0REREREZBBYboiIiIiIyCCw3BARERERkUFguSEiIiIiIoPAckNERERERAaB5YaIiIiIiAwCyw0RERERERkElhsiIiIiIjIILDdERERERGQQWG6IiIiIiMggNJUdgIiIiIjIUC3zPyx03uvTxgidpzWNKioqKmSHICIiIiKi+rlbfg87QyMxy2eo7CiKaEg94ZsbIiIiIiKdyrl+CzvDzhr9G5tK3HNDRERERKRDcWmZWBkQzGLzAL65ISIiIiLSmaCoC/Bx6y07hubwzQ0RERERkU7cLb+HrUERLDZV4JsbIiIiIiId4P6amvHNDRERERGRxnF/Te3wzQ0RERERkYZxf03t8c0NEREREZEGcX9N3fHNDRERERGRxnB/Tf3wzQ0RERERkYbEpWVi5d5jLDb1wDc3REREREQawf01DcNyQ0QkUWFJKQqKS1F25y5aWpihpYUZmjZpIjsWEREJdrf8HnaGRmKWz1DZUXSN5YaISGVZuTdx/mIWCotLkV9cgvyiEhT89s9LX5/32I//y4otsPyt6FiamaKlhRm6dmiL3t27oHkzftgmIjI0etlfs8z/sOYzNqqoqKiQHYKIyNDEp19GfPplJGbk4C8vTFXsuasCgtGnhw0cbTqiTUsLxZ5LRERyxKVlYlfoGXw4f5rsKNU6dSEVkQkXhZSbhtQTfguQiEghUUnpSMzIQWLmFfz1xemqzHhpktfv//z9ziNwsLGGs20n2LRvo8o8IiJSjx7213y+dieeG+cBW+u2iEy4KDtOjVhuiIgaKDY1E6GxiXhz+lihc1+bOhoAsHj5Rnj0c4anqzNatTAXmoGIiOpOL/trftwdhOcneKB5U/1UBv0kJSLSmLTsawiNTcT8CSOl5liyaC6WAPh0jT88XZ3h0c8ZTZvwpH8iIi3Sy/6aPeFnMWn4ANkx6ozlhoiojq7l5SM0JhEzvIbIjvKQj35br/2Pzfvg6eqMQc49JCciIqIHxaVlYnfYWUX3YqrhVHwqBveykx2jXlhuiIjq4MCpWITFJuHzV2bKjlKlt2ZPAACs2H0UTw3uh24d20lOREREettfo1csN0REtbQ9+BRmeLvLjlFrr072wV9+3IrJI9x0+x04IiK908/+mqN4bpwHTJo3kx2lQbgom4ioBsWlZVi195iuik2lz1+ZiSG97RF4MkZ2FCIio5Nz/RZWBQRrvtjsCjuDl/28dV9sAJYbIqJqXb11G5+v24WXHziCWY98h/XHmn0hsmMQERmNuLRM/BQYgkUaPzjg5PkUTB7hJjuGYrgsjYioCnFpmXCxt5UdQzELJo7CtfV7sHjeJNlRiIgMmh7213y6xh/Pj/dAN2vD2pfJNzdERE9w9Gy8QRWbSu8+44dGjRrJjkFEZJDult/D1qAIzRebFbuP4p25vgZXbACWGyKix8SmZmL0wD6yY6hqmf9h2RGIiAxKzvVbWLX3mC7217zi5w1TA9hf8yQsN0RED8i+kQdXB8N7Y/OoN6aPxf6IWNkxiIgMQlxaJlbvC8GiqaNlR6mWoe2veRLuuSEi+k3Z3XKsCgiWHUOYCUNdcSo+BYN72cuOQkSkW3rYX/PZGn88+9QIdO/UXnYU1fHNDRHRb9bsC8FH86fJjiHUkN4OSMjIlh2DiEh39LK/5oddR/D2XF+jKDYAyw0REQDAPzQSr03R9nICtWw5GoHLuTdlxyAi0g293F+zMyQSr072Mdj9NU/CckNERu9cWiamjxwsO4Y0Hy+Yjn285JOIqFbu768J1cX9NVM8B8qOIRz33BCR0QuLS5IdQbpXJvtgYNJFDHDsLjsKEZFm6WF/zedrd+KZscONZhnao/jmhoiM2ukLqVg0VdvffRMlPDZZdgQiIk26v7/mlOaLzfe7juCt2ROMttgALDdEZMR+/fVXvrV5wB9mPIUT51lwiPQkJiUDMSkZsmMYtJzrt/DT3mDM8nGXHaVa/iGRWDjZB2YmzWVHkYrlhoiMVnhcEt6aPVF2DE0Jj01C2d27smMQUS3EpGSgv2M39HfsxoKjkri0TKzZH4rXNP6G//i5JEw1wv01T8JyQ0RGqbi0jG9tnuCdeZMQzl8XIs2rLDaVWHCUFxR1AS72tnj/uSmyo1Tpi3W7kJZ9DcP6OMqOohksN0RklEJjEzX9CUum8NgkFJeWyY5BRFV4tNhUYsFRxt3ye9gWrP39Ncv9D+N/Z45HDyPeX/MkLDdEZJRSLl+THUGzPlowHUmZV2THIKInqKrYVGLBaZj7+2uOYaa39vfXvDZ1NMxNjXt/zZPwKGgiMjrX8vLx5vSxsmMAAP72y27YtG+DlhbmyMq9iazcm/jy1VmyYyExI6faL6CISLyaik2l/o7dEJ18Ca4OtgJSGY64tEwEHI/G+89Nlh2lWsfjkjCsL5ehVYXlhoiMTkrWVWmzFy/fiH52XWHXuQNc7W1hYWby2I9ZODkXFy5l48KlbPy/WRMkpAQSM3OkzCWiJ6ttsanEglM3QVHxCDwRg2/emCc7SpW+WLcLc0YPhV3nDrKjaBrLDREZnQvpl6XMDTwRDTfn7rBubVXtj7O1bgdb63YYN8QFXknpOJN4ES/7eQtKed/HC6ZjzuhsOHXtJHQuET2ursWmEgtOze6W38PusDOYofFlaN/vPILnxnlwGVotsNwQkVEpLrsjvCgAwMWca+jese6bPiuPeW2+PxTPj/dUIVnVzl+8zHJDJFl9i00lFpyq5Vy/hT3Ho7BwymjZUaq149hpTBs5SHYM3eCBAkRkVBIzsoXPLL1zp17F5kHPjfPA/ogYhRLVzoVLct5wEdF9DS02lXjIwOPi0jKxZl+o5ovN8bgkFps6YrkhIqMSl5opdF5K1hWYNGumyLPGDXFB4IloRZ5VGx88PxU5N/KEzSOi/1Kq2FRiwfmv4KgLWLc/DO8/r93rAL5ctwspl6/y4IB6YLkhIqOSm1cgbNbJ8ymw72Kt6DMnDHXFv7fuV/SZ1bl+W9yvFxHdp3SxqWTsBedu+T1sP3Ya3m69NX1wwPe7juAPM56CPQ8OqBeWGyIyKgXFpULmfL/zCNx726vybE8XZ1We+yT5RSXCZhGResWmkrEWnJzrt7A6MAQzvIbIjlKt7cGnsHCyD1qYmcqOolssN0RkNH79tQKfvPS0kFkeLk6qPXuAU3es2H1Utec/iOWGSBy1i00lYys4cWmZWLs/FAun+MiOUqW3v9uAsNhETB81WHYU3eNpaURkNPKLxXyh/teftqNPDxtVZ4i656CgRMybLiJjJ6rYVDKWU9SCoy8g8EQ0lr6u3WVoX/68C7O8h8K+C5ehKYHlhoiMhqglaSKOT+5rp255qlTANzdEqhNdbCoZcsG5W34Pe8LP4mmNL0P7YdcRzBs7nMvQFMRlaURkNEQtsercrpXqM6xbW+H9FVtUn8NlaUTqklVsKhniErWc67ewZl+I5ovN9uBTeJX7axTHckNERkPUsrSWFuZi5pir/wmRy9KI1CO72FQypIITl5qJtfvD8Opk7q8xVlyWRkRGI7+oWMgcEaUDEFOiPl4wHR/Nr1B9DpGx0UqxqWQIS9SORScg4HiUpo95/urn3ZjhNQQONspeEyCKXef2wi+UriuWGyIyGuYmJkLmiNrbUyhgzgcClr4RGRutFZtKei04d8vvYc/xKDyt8TchP+w6irljhsLS3Ex2lHobN8RFdoQacVkaERkNU5NmQuYUClrKJWKZnUlzMb9mRMZCq8Wmkt6WqOVcv4W1+0I0X2y2BUXg1cneui42esFyQ0RGw1TQF+q5eQWqzygoLsHnr8xUfY4Zyw2RYrRebCrppeDEpWVi3YEwvKLh/TXvfLcBobGJmj/cwJCw3BCR0TBt3lzInAvpl1WfcSYpXfUZAN/cEClFL8WmktYLTkh0An7eH4b3np0sO0qVvvplN16Z7A2Pfupd6kyP454bIjIaLS3ELAf44IWpmOKZqepFnsmZV1R79oNatRBz8huRIdNbsamkxT04d8vvIeB4lOZPGlux+yhm+wwV9nmH/otvbojIaLSzaiFsVlhskmrPjkpKF3bMaae26t/ZQ2TI9FpsKmnpDU7O9VtYuz9U88VmW/ApvOLnzWIjCcsNERmNJo0b46OV24TMem3qaETEp6ry7NDYRFWe+yQsN0T1p/diU0kLBedcWhbWHQjHK37eUnNU551lGxASnaD5ww0MHcsNERmVVpYWwmbtCjuD3Lx8RZ959Ew8/jhzvKLPrE5HlhuiejGUYlNJZsE5Fn0BPx8Iw3vP+kmZXxt/+2U3Xp7kBU9XZ9lRjF6jiooK3s5GRAYv8+oN7DkehTemjxU694t1O/H+c1MUeVZy5hU42XZS5Fm18cGKLUJOZCMyNIZWbB4kcg/O3fJ7CDgRhekjtf0mhPtrtIVvbojI4O0Jj4Jtx3bCiw0AfPD8VHyzcS+u3rrdoOdsP3ZaaLEBgB6d2gudR2QIDLnYAOLe4OTcyMO6/aGaLzY7jp3m/hqNYbkhIoMVnXIJn63xx2QPN6k53pk3Cf/ash9HzpzHnbvldfq5yVlXsDowBDMk3JHQo3MH4TOJ9MzQi00ltQvO+YtZ+PlAGF7W8P6axcs2IiQ6AdNGDpIdhR7BZWlEZHBu5BdiT9hZLPAdJTvKY5ZuCIB7bwc42XaEdWurKn9cwqVsxKVlYpbPUIHpHpaWfY1vb4hqyViKzYPUWKIWEp2AvSeiseT1uYo+V0l/+2UPpo0cCKeuYt+mU+2w3BCRQTly5jzGDOorO0atLN0QgA6tW8LS3AwmzZuhoKgEt4tKcOlKLr5cOFtqtr9vCsRbsydIzUCkF8ZYbCopVXDult/D3hPRmn8T8uPuIMzwHsI7wDSM5YaIDEJSZg52h0fhnbm+sqMYhNCYBHi48NQfopoYc7Gp1NCCc+Xmbew9EY2XJ3kpmEp5O0JOY5qntssXAU1lByAiaoiSsjsIOB4ldfmWofli3S4M6mknOwaR5rHY3NffsVu9C875i1kIPBGDxc9MUiGZMhYv2wjf4f0x0rWn7ChUCyw3RKRbJ8+nYFfYGfzttTmyoxiUIb3sYNq8mewYRJrGYvOw+hSckJgEBJ6IxteLtLu/5uv1ezDFYyCcBZ9WSfXHckNEunM59xZ2h5/F69PGyI5icD5b44+hfRxkxyDSNBabJ6ttwblbfg97j0dh2ihtH/P8454gzPDi/hq9YbkhIl0JOB4FvxFyj3Y2ZB4uzmhhZio7BpFmsdhUr6aCc+XmbQSeiMZLGt9f4x8SiameA2XHoHrgPTdEpAsxKRn4bO1OFhsVLd24FyP6OcmOQaRZWiw20cmXEJ2cLjvGQ6q6Byc+/TJ+PhCm6WLz7vL799ew2OgX39wQkabdLCjCnrCzmD9xpOwoBm9EX0c0a9pEdgwiTdJqsal8QxKVlI4BTt0lJ/qvR9/ghMYkYu+JaHy9SLt7JL9evweTR7ihZ7fOsqNQA/AoaCLSrKNnzmO0Tu6s0btVAcF4UYOXnhJpgdaLzYP/TksFB7if6WJOrubvr1kVEIzpowZzf40BYLkhIs1JzrqCPeFR+NOcibKjGIV3l2/C69PGwNa6rewoRJqjl2JTKSr5Etw0VnC0jvtrDAvLDRFpRumduwg4HoWZ3u6yoxiVQ6fjMIZvyIgeo7diUykqKR1uzj0EJdKvd5dvgu+w/vB05YXFhoTlhog0ISI+Ff4hpzV934EhWrc/FM+N85Adg0hz9FpsKp1NSsdAFpwqLVkfgEkjBqAX99cYHJYbIpIq+/r9O2sWTeWdNaKt2H0Ur/h5y45BpDl6LzaVWHCebNXeYEz1GIQ2LS1kRyEVsNwQkTR7T0Rj0vABsmMYpb/+tB0fL5guOwaR5hhKsal0JvEiBvW0UziRfu0MjcQUD+6vMWS854aIhItNzcRna3ey2EjywY9bWWyInsDQig0ADHTugdMXUhVMpE/vfb8JoTEJLDZGgG9uiEiYWwVF2BN+Fi9M4J01sizduBdv8xQ6oscYYrF50OmENAzpZa/Is/RmyYYATBrO/TXGguWGiIQIjroAb7fesmMYtR/3BOFlDd8MTiSLoRebSqcvpGFIb+MqOD/tPYYpHm5o07KF7CgkCJelEZGqUi9fw983BbLYaAC/a0n0OGMpNgAwuJcdIuJTFH+uVu0KPYMFE0ey2BgZlhsiUsWd8nJsDz4FBxtrvD3XV3acelu7LwQlZXdQVFKKlXuCZMdpkOCoC7IjEGmKMRWbSkN62Rt8wancXzPZw012FJKAy9KISHGnLqRie/BpLHldv3fW/PWnHZjl4/7Y244ziRexJSgCS3R6H8+tgiK0amEuOwaRdMZYbB4UEZ+KoX0chMwS6ZuNezFxqCt6de8iOwpJwnJDRIrJuZGHXaFnsGiavu+sCTwRjQlDXav8/3Pz8rE/IhbPj/cUmEoZO46dxrSRg2THIJLK2ItNJUMrONxfQwDLDREpJPBkDHyH9Zcdo0GW+R/GLB93tK3lJ8ZTF1IRmXARb0wfq3IyZfHDPhkzFpuHnTyfgmF9HaXMVtKu0DNchkYAWG6IqIHi0jLhfywSH7+o33tTFi/biJneQ+p90V1cWiYiEy7iRd9RCidTR1JGDhy7dpQdg0g4FpsnO3EuGcP7OUnNUF9//n4zfIf3xwid5iflsdwQUb3kFRZjd9hZvDBBf0uzHrTlaARmeg9R5Fkpl68iMiENc8cMV+R5almx+yhe8fOWHYNIKBab6h0/l6y7gvDNpr2YOLQ/T4Kkh7DcEFGdHYtOgNeAXrJjNMiSDQGY5e2Obh3bKf7sWwVFSLl8FSlZV5Fy+So+mj9N8RkNxQ/9ZExYbGrneFwSRrg4y45RK6sDj2HS8AFoZ2UpOwppDMsNEdVaWvY1+IdE6vpoZwAIjorHqP7iylnG1RtIysxBctZV5BUU4XZRMb6WfNpaWGyi7r5LS1QfLDZ1Ex6XBA+NF5zdYWfgN4L7a+jJWG6IqEZ3y+9hV9gZzPR2lx2lQdYEhmCWjzvMTJrLjoKikjLcKizC7cJi3C4qQbMmTXDwdBz+8sJUIfM/X7sTHzw/Rcgsoie5W34P+UUlyC8uQUFxKfKLSlB65w5MmzeDSbNmMDNpDpPmzdDeqgVaWVrUawaLTf1oteC8v2ILJg515TdmqFosN0RUrdMX0rAt+JSu76z5eNV2zPJxR2+N33sg+sS5vIIiWPHOGxIgN68A8elZiE/PRn5RCQqKS/DFq7Nq/fM/WLEFndq2Qqe2rWDfxRo9u3WCSbNm1f4cFpuGCYtNgqerdgrO3zcFwndYfzjbdpIdhTSO5YaInujKjTz4h57B6zq/sybgeJRujqi+ciMPndq1FjZvZ0gkpngOFDaPjEvq5atIyMhBYkYO/jRnouLPX7c/FPZdrOHUtRPaWT18fDuLjTLCYhPh6dpTdgysDgzBpOH9ub+GaoXlhoges+9kDCbqpBBU5dvtBzHLxx3tW7WUHaVOvt1xCH94+ilh8/gpgJSUcyMPEfGpSMzIwXvP+gmb++OeIAxw7IaBzj1YbBQWGpuIkRILDvfXUF2x3BDR785dzML24FP464tPy45Sb4uXbcQMryEY3Kt+d9bIJvo41qTMHDja8M4baphbBUUIj0tCeFwS/vbaHNlxNEXPxaZSSHQCRgk+IfOD3/bX6PX+HZKnqewARCRffnEJdoZE4oUJI2VHaZDNR09ils4PPRjg2F3ovOCoCyw3VG+ld+4iLDYR4XFJuv6miFoModgAwMj+PREcdUHYFQDcX0MNwTc3REYuJCZB6LHIaliyIQAzvd3RXYU7a2T45WA4nhvnIWwePw1QfVS+qXn3GXHLz/TEUIrNg45FX4DXgN6qzlgTGAJf7q+hBmC5ITJSF3NysS34FBbPmyQ7SoMcPXMe3m7qfrIVLT79Mvr0sBE2Lzw2kUs/qNYKikuxNSgCL03ykh1Fswyx2FQKjrqg2sfcPeFnMWn4AFWeTcajsewARCRW+b1fsS34FOw6d9B1sflpbzAKi0sNrtgAQO/uXfDZGn9h84KjLgibRfqWcyMPqwKCWWyqYcjFBgC8BvRC0Nl4RZ/5wYotCI9LYrEhRfDNDZERiUxIw5agCCx9fZ7sKPX215+2Y4bXEKFvNmTYeyJa6Cf6vMJiWFmYCZtH+pOYkYOe3TrLjqFphl5sHhQUFQ8ftz4Nfs4/NgfCd9gAOHXl3j9SBssNkRG4evM2doRE6v7OGmNasnD5+i3YtG8jbN7O0EhM8eCdN/Rkx+OSMEKDN9ZriTEVm0pBZ+PhM7D+BWftvhBMHMb9NaQslhsiAyf61ns1fLv9IGZ6u6NDa33dWdNQ/9l+EP8zY5ywefx0QE/yy4FwPDde3AEXemSMxabS0bPxGF2PgmNM36wisbjnhshAxadfxierd+i62Ly7fCMi4lPwxvSxRldsAMDNSeyx0ClZV4TOI+37+UAYi00NjLnYAICPW28cjjxX6x//lx+34sS5ZBYbUg3f3BAZmIKSUuw4dhrzdX5nzabDJzDLxx2NGjWSHUWakrI7MDc1ETbvx91BeNmPG8Xpvn0nYzBRx98cEcHYi82DDkeew9jB/ar9Mf/YvA++w/ob1f6a8LgkxKZkyI6hOy9O8oJJs/pdx8lyQ2RARNxBoLalGwIwfdRg2HXuIDuKJvx8IAzPj/cUNo+fEggATl1IhXtvB9kxNI3F5nHVFZy1+0LhO6w/2lq1EJxKrl1hZzDVc5DsGLpTXFoGM5Pm9fq5XJZGZADSr+Ri6ca9ui82R86cx9tzfVlsHiB6adqJ8ylC55H2pGVfw9agU7JjaBqLzZONGdQXB0/HPfbvA8LP4vnxHkZXbEgOlhsiHbv366/YFnQKPTrp/86aguIS+BjgnTUN1aeHDT75aYeweUrfX0H6cruwGNuPncY3b+j3uHi1sdhUb+ygvjh46n7Bqdxf48v9NSRQ/RazEZF0kQkXseXoSSzV8Rchn6zegekjB6OvnWHfWdNQA5y6CZv1wfNT8MZ03nljrHaGndH1N0rUxmJTO2MH98WBU7Ho0ak9HG2MZ38NaQPLDZHOXLuVj61BEXjz6adkR2mQ3eFn4cfv5tXKAMFL045FXcBkDzehM0m+M4kXdX8QiZpYbOrmqRoOFyBSC5elEelI4IloWLex0nWx+W7HIeTcyGOxqQOb9m3w760HhM2b4snLPI3NnfJyhEQnyI6hWSw2RPrBNzdEOhCffhlbjkbgk5eelh2l3t5dvglTPQdiaB+ewFQfbgKXpgFAStZVONhYC51J8oREJ+CtORNlx9AkFhsifWG5IdKwopIybAs+hfkT9b1UZNPhE5jp7Y7GjY33zpqGGtTTTui84OgLLDdG4tqtfBzjW5snYrEh0h8uSyPSqOCoC2hhbqrrYrN0416kXL6K2aOHstg0kGnzZli7L1TYvFf8vIXNIrlCohPw+SszZcfQHBYbIn1iuSHSmEtXrmPphgB46/xY5MOR5/D2nImw5501ihF9581J3nlj8JIyr2Cmj7vsGJqUnHVFdgQiqgeWGyKN+LWiAluDTqF7p/ZY/Iyf7Dj19tPeY8gvKsHogX1kRzE4fe1s8PGq7cLm8c4bw3c26aLsCJo105ulj0iPWG6INOD0hTS8u3wTZun4O6ifrvFHTMolLJg4EpbmprLjGCyRb2/ef34KbheVCJtHYlVUVCAl65rsGJoWlZQuOwIR1ZEmDxS4c7cc+UUlyC8uQUFx6WP/3KxpE1iYmqCFmQkszEzQwswU5qYm6NS2FVq1MJcdnyS6mV+Ia7fyUVBciqLSMhSWlKKopAwFJaUAAHPT5rAwNYG5qckD/90c3azboXkz8X8dcvMKsOXoSV0f7QwAu8POwm8Ej3YWgXfekFJSs6/hw/lTpWb46ufdcOraEdZtrGBpbgaTZk1RWFKKguJSXM69ifhL2fjy1VnS8p1NShf+d46IGkYz5Sb18lXEp2cjPj0L7z07ud7PWbI+AI5dO6JHp/bo3rEdrFh2DNrVm7eRmn0N6Tm5SM/JxQcv1P8T9XL/w+jVrTN6dO4AW+u2CqZ8sr0nojFJ53e9fLfjEKaNHIRObVvJjmI0unZog39t2Y//nTVeyLwpngNRUVEhZBaJlZJ1VdrsDYeOY3g/R3Szblftjyu7Ww7fYUkIjUnEe8+KX677sp83ns4vRCtLC+Gziah+pJWbsjt3kZCRg8SMHCRmZOOjBdMVee7iZyY99L//b9sBuNjbwtXBlm91DETWtZuISc1AfPplLJ43qeafUEuLpo35/Z+//Hk37Dq3R5/uNuhrZ6PYDAA4fzELW4NO6frOmve+34TJI9wwrK+j7ChGaYCj2DtvUi9fhX0XHgttaM5fzBI+89vtBzF6UF/0tO1Uqx9v0qwphvd1RH/HbujvGIPx7q4qJ3xc/KVsDOfHOiLdaFQh+Fty1/LyERqTiNjUDHz60gxhc99fsQX9Hbqhv2M3OPLuBt2pqACiUy4hOvkSXvQdJXT2Mv9DGORsh0E9e6BRo/ofZ1xcWobNRyOE51fapsMnMMN7CJo05seA4m0AACAASURBVJY9WUrv3IWZSXNh81buCcJLk7yEzSP15eblo0NrK6Ezl/kfxit+XmjapEm9nxGdfEn4MjH++aeG2BV2BlM9B8mOoTvFpWX1/jwnrNwUl91BWGwiQmMSpZ+nv8z/MAY6d8eQXvZSc1DN7pSXI+hsPGJTMh97KyfaNxv3YpBzDwzuZQ9z07r9hQuOuqD7o52/2bgXUzzc4GDTUXYUArB2fyjmTxB3BxKXphmW0JhEjOzfU9i8pRsC8PZcX0WeVVx2BxamJoo8q7b455/qi+WmfhpSboQsSzt+Llnaetknef235Uc/BQTD2603undqLzkRPUl08iUERcXjrdkTZUcBgN8/MX+6xh/eA3rBw8W5xp+TfuU6thw9iXd1fLQzcP/OGh7trC1ujuLvvBnax0HoTFLPOYFL0pZuCMDr08cq9jxzk+Y4k3gRA517KPbMmuTcyOPeQiKdUHVdSWxqJr7zP4wR/Zw0U2we9OIkL/To3AF7T0SjqKRMdhz6zeXcW/jlYDgGOHXXTLF50Efzp8HTtSfW7Q9FSdmdJ/6YiooKbDl6Ej06tdd1sVm99xjyCotYbDSon31XfLRqm7B5QVG888aQ5As84nu8uwvMFV5G6ebUHWv2hSj6zOpcuZEnbBYRNYxq5SbgeBRcHWzxpoLfrVHLpOED8O2OQziTyMvMZDtwKhbf7TiE58Z5yI5SoxcmjMSSDXtxLu3h74CeupCKxo0bY/boYZKSNdxna/wRnXwJ8yeOhJUFD+LQKqF33jzHO28MSUGxmN/L/2w7iL52XVV5tmct3p4rJYflhkg3FC83d8vvYePhE/Aboa97Ed571g+Detph38kY2VGMln9IJMa7u+Kr12bLjlJrf31xOvrZd8XusLPIzcvHtzsOwb23vpfu7Ak/i7+8MBWuDrayo1ANRJYbAAiJviB0Hqnjbvk9fCHo7pgBTuqd7GfXuQN+ORiu2vMfxHJDpB+KlptbBUX497YDmDd2uJKPFWrisP5Yuz9Udgyjcqe8HCv3BGP6qMGyo9TbFM+B6NDaCn/Q8WWcy3YcwuXrt3R/944x6dqhLf6xOVDYvMkeA4XNIvWIXJKm9FH6j3ISdMDJrYIiIXOIqOEUO1Ag4+oNdOtY/WVcejF/wkhcWx+Ad+Ypc7ILVS2vsBh/+2UPvl40R3YUo8U7a/RN9Nsb3nmjf/mClqQt8z+s+rLWwb3sVH1+pbzCYiFziKjhFHlzExKTYDDFptLiZyY16E4TqlnWtZtobWnBYiPRlqMn8elLM1hsdGxoH7G/d8FRXJqmdwXFpULmWJqbCpnz15+2qz7ji1dnofTOXdXnEFHDNbjcnIxPwaj+vZTIoknLdx6RHcEgFZaUoat1W9kxjNY3G/ciKSMHM73d0axp/S/UI/lMmjXF6sBjwua97OctbBapQ9SytBZmYsqNqDm3i/j2hkgPGrQsLeXyVQwT/F1D0V6fNgZ2ETEYN8RFdhSD8u32g7IjGK0jkefgw6OdDYropWkR8Sm6PzjDmJXeefIR9kpr3kzIVXrC5pSW8c0Nadeh03HoIeDexi1BEXj/uSmqz2mIen9EuFVQhJV7gpXMolnj3V0RFpuIEf2cZEcxCD8FHsOfn5ssO4bRWR14DFM9B6FVCx7tbGhc7G3x4cpt+OzlGULmBZ2NZ7nRMZNmzYTMKRD0hkjUnDYtWwiZQ1QfHdu0ErIfUtTHj4ao97K01YEhRrVXwsPFGdHJl2TH0L2A41F4yddLdgyjcv/OmnTMnzCSxcaAiXx782feeaNrps3FfHEi6s+IiDnvfb9J2B4iImqYepWbXw6G409ztHdzvNr2nYzhiSkNEJ9+WXf3H+ndf++sUe+uCdKGwT17CJ0XEp0gdB4px6S5mGVcl67kqj4j9fJVLHl9rupz2vKtDZFu1LncHDgVq4vb49Xw/vNTcOj0OdkxdOlOeTl/7QRa5n8Imddu8M4aI9KlfRv8fZPIO2/4jQq9Mm3eXMicLxfORsKlbFVnXFD5+ZW4JI1IP+pUbm7cLkB4XJJaWXRhlo87l6fVw+HT5/C/s8bLjmHw3v9hC46fS8aiqWNg076N7DgkmIw7b0h/2lqJ+0L9/MUs1Z5dfu9XJGeJ+TPYpqWFkDlE1HB1KjdhcUn47OWZamXRjUOR51BcWiY7hm4kZ12FL98gqG7L0Qh8vGAahvXhRm9jJfrQk2NcmqZLbVu2wEertgmZdTYpHTduF6jy7LC4RLw1e4Iqz34U39wQ6Uety83l3JtG/9am0uJ5k3Aokkusauswf61U9fdNgUjKvIKZ3kOEHYlK2tSsaRP8tFfcnTcvTeLhIHrVvaP6R8YC95emRSZeVPy5N24XIjQmUfHnVoXlhkg/al1uwuKSsPT1eWpm0ZWw2CRkX78lO4bmxaVm4vVpY2THMFhHzpzHW7MnwNFG/eMfSR8GOIo9PCIiPlXoPFJG53athM0a7+6KA6diFX3mlqAIfDR/mqLPrI4tL50m0o1alZuUrCuYM3qY2ll05Zs35uH0hTTZMTTvnIrrrY3ZmsAQ3LhdCB+33rKjkMb0d+yGv/y4Vdi84KgLwmaRcrq0ay103nh3Vxw8HafIs/5v20Gh3zT75+Z9aGluJmweETVMrcpNGJejPVHEhVTcKS+XHUOzbhUUYd7Y4bJjGJTP1+5EdPIlvDDBkxtcqUoiDxZ471k/3nmjQ3ZdrPGhwBIMAOOGuDToDc7VW7fxzca9+OPMcQqmqlmv7p2FziOihqmx3GTl3sSCiaNEZNGdrxbORtDZeNkxNCsyQfl11sYs4HgUPnh+ClwdbGVHIY1z720vdF5oDA8W0Btzk+bo2U38F+3j3V3x454gnKnDPpycG3kIOB6F73cewTvzJqmY7sn69LARPpOI6q/G3ccpPOqzWsfjkjFuiIvsGJoUHMXip4Tl/ofh5+EmfBkJ6Vfndq3xzca9eHuur5B5fiPcUFFRIWQWKUdGuQGAVyf7ALj/Jtqucwf07t4FPTq3f2jp19Vbt3ExOxfxly7jJV95B1cs3RDAY/WJdKbGcpOceUVEjiotXrYRPTq3h5NNR1iam8GqhRlK75SjoLgEuXkFSM68gsXPiP9OTqVPX56Bjm0PS5uvZV8unC11/j8370Ov7p1hZWGOlhZmaNSoEfKLSlBYUorUy9ewcIqP1Hw1eX/FFvgNH4ChPNqZ6kHGnTf2XXiwhZ707NYZH/64FZ+9IueKh7+8MPWh//3J6h1oaWGGnBt5WLJorpRMj3K27SQ7AhHVUbXlJq+w+PfvsIi2zP8w3Jy6o28PG1iYmVT7Y2ePzsXZpEs4k3gRn0v4IM3TwLRjyfoAuDl3R187G1i3tqryx40e2AdP5xUgOuUSziamSy3IT7I1KAKThg+AafNmsqOQTnm6Oguddyw6geVGZ8xNmqOffVfZMX738YLpsiM8xqkryw2R3lRbbmQtSYtLzUBfu9p/wLW1bgdb63bwGtALTl1D8fx4TxXTkVbtj4jBmIF90aRJ7U44b2vVAqMH9oFX/15wcYjBeHdXlRPW7O+bAjF5hBsceLQzNVDTJk2wck8QXvbzFjLvpUleeJFL03RH9Bs+Pfn31v18c0OkQ9V+FXguLVNUjt9dz8uvU7F5UKsW5nhunAfWHwxXOBVp3f6IGIwb4lLrYvOgJk0aY9wQF6EXwj3J0d/urGGxIaUM6mkndB7vvNEf+y7WWLknSHYMTRrRz0l2BCKqhyq/Eiy/96vwU9IKi0vR1sqywc+ZN3Y49kfEKJCI9KCy2DSUh4sTUrLE7zFbsy8EN/ML4c07a0hhrg62+GDFFmHzjkXzzhs98hrQS3YEzVmx+ygGOveQHYOI6qHKcpOWLXZJWnTypRr31tTFuCEu2HjouGLPI21SqthUsu9iLfxSwjk+Q9HaknfWkDpELjt69xneeaNH9l2sscyfB+M8iG9tiPSrynKTL/AT1M7QSFXu7vBy640//7BZ8eeSNixZH4AxA/sq/txR/Xvi2x2HFH9uVbJybwqbRcZH9Gl7vPNGf9YfDOfBOA9Ytz8Uvbt3kR2DiOqpynJTUFwqJMDHq7bD06WnKs/u2MYKni5iTwwicdycu9drj01tiPxzw3JDaurcrjWWbtgrbJ7fCDdhs6jh9oRH4dlxHrJjaArf2hDpW9VvborFvLnp72iLNi3VW5Lj5syTYAyVq0M31Z7tYt8V32wU8wVh1jWWG1KXm5N6f1eeJJWXP+tCSHQCJnuwjD5oy9GTsOvcQXYMImoA6cvSetqqe0OydWsr/HPzPlVnkHj/2XYQ7axaqDpD1Ce4mwVFQuaQ8RrZX52341WRffIg1Swq+RJG8SCBhyzfeZhlj8gASF+W1rObuuUGAHp1V38GieXYVf3jkl0EXW5XUnZHyBwyXk2bNMGPAo/7XeAr9qRNqpu07Gu83+YRH63chpleQ2DSjBcnE+md1GVpn6zeofoMALCyMBcyh8QR8XvaUtCfm5Kyu0LmkHEbzDtvCEBuXj7su/AurUct8B2pyFUURCSf1GVpLc3NVJ8BAC0txMwhcUT8nrY0N1V9BsA3NySGq4Mt3uedN0at7G45OrS2kh1Dc+JSM9C9Y3vZMYhIIeocNVVbjQSNaSRoEAkj5PdU0B+bZiqd+Eb0qAGO4g4W4J032vP52p2yI2hOQHgU+tqJWYJMRGJU+VWViO+MFwra1yPyzh4SQ8Tvqag/n21aqnswAlEl0UfchvHOG834en0APn9lpuwYmvL9ziPwHd5fdgwiUljV5UbAkrGCEjFfPBYKmkPiiPg9FfXnk+WGROnUthWWbAgQNi84ikvTtOD7XUfw3rN+smNoyrbgU1g4xUd2DCJSQZXlxlLAfoMli+biYk6u6nMSMnJUn0FipV6+pvqM+PRs1WcAUPWeJ6JHDXAUd0rWN28+wztvJFt/6DgWTR0jO4amBJ2Nx9OjBsuOQUQqkbosDQDOpWWq+vxrefl4c/pYVWeQeAun+ODG7UJVZyQKKsV8c0MiebuJvdskNJZ33sgScDwKzz41QnYMzfh41XbEpWbCi/f7EBk0qcvSAOBMYjpu5qt3ieGZhIuqPZvkik65pNqzY1Mz8dbsCao9/0EsNyRSk8aNsWL3UWHzFkzknTcyHItOgN8IXkhZ6bsdh/Da1NHoa2cjOwoRqUzqsjQA+OSlpxEaq86m0ys3b/O7hgbsbGI67t37VZVni/xz05blhgRz7+0gdB7vvBErOvkS3078ZvHyjdh7PAqv+HmjYxseg01kDKQvSwOAqZ6DcP5iluLPPRZ9AV8tnK34c0kbFj8zCYfPnFP8uWGxSUKXMnLPDYnmYt8V732/Sdi8kGiemiZKWvY1DHASt69Ky345EIY/PP0UJg7rj2ZNm8iOQ0SCVFlu7DqLvcF4a9ApRZ8Xk5KBOaOHKfpM0p7x7q4Ii01S7HnXbxfC09VZsefV5P+2HUDTJvykS+K5CfwCePEzk3jnjQDX8wpg30Xs524t+s/2g4hNycAzT42ATfs2suMQkWBVlpumTRpjZUCwsCCfvPQ0vttxCPd+bfgyo/C4JPQXeFkdyeXp6qzIiUzpOblo38pSgUS116tbZ6HziCp5uvYUOo933qjrTnk5vtkUKDuGVJ+t2YmQ6AS8OX0s+tnzYk4iY1Xt1eh9e3QRlQMA8ObTT+GLdbvqvUStsKQUGw+fgIeLuO+8kzY42HTEsQYsfTly5jx6dO6gYKLa6clyQ5J0bGOFr9fvETYvmEvTVLVkfQC+XjRHdgx8usYf2ddvISnzCjYfOan68sevft6NnSGRiE3NwJ/mTBD65p2ItKlpdf+njNfbHy+Yjo8B/HIwHJ4uzrC1blurnxcak4jQ2AR88PxUdQOSZnkN6IVvdxyCp4szXGr5XbvY1EyExiZKOS78q593c8kESTXIuYewWd+8MQ+vTfHhsikV/GPzPnw4f5rsGHjv+02YN3Y4OrVtBQBwtLHGLB93vDFtLOLSMhGbmqnIZaL/3roffXvYwLFrJ3TtwI+hRPSwastNOytL/N+2A/ifGeNE5fld5dn8324/CAcba/S07QxLczNYtTBD2Z27uF1Ughu3C5CYkYOkrCt4/7kpwjOS9lSWlG827oVd5w5wse+KlhbmaGluCjQCCotLUVBSirTL13A+/bKUP9uVnLp2lDabCAC83HoLnRcWm8Ryo7Dvdx3Bn+ZMlB0DADBv7HDYP+ENuE2HNrDp0AYThrpi/oQ8ZN/Iw838Qty4XYgb+YUoKbuDkrI7KC67g/Lye2hpYYaWFmawNDP9/Z9b/PbPXTu0FXaaKxHpU7XlBgCcunYSkaNKbz79lNT5tVFRUSE7giY1atRI2uy35/pKm11bjjYsNyRX40aN8MOuI1g4ZbSQefMnjsQL/HipmA2HjmPR1DGyYwC4f9x3P7ua35hbt7GCNY9kJiIVVbvnBgDsu4jfh6Anm4+clB1Bs7YejZAdQbM+XrWN+21IE4b3dRI6j3feKCPgeDSe+W2Fg2xBZ+MxpJed7BhERABqUW4culjj31v3i8iiS95uvCitKkP7ir0oUE/62XXlvQukCX3tbPDucoF33vDUtAYLiU6A34gBsmMAAPaeiOKFoUSkKTWWGwAY0U/sd/b0Yt3+ULRv1VJ2DM2yad8Gy/0Py46hOe//sBkePNGHNMTNSdzR+Yvn8c6bhohOuYRRGikT24JPYeLQ/rJjEBE9pFblZqBzD6zYfVTtLLozmK/ha8T7hh43op8TrFtzzTlph9cAwQcL8O1NvaRlX8MAR3GXr1Zn3f5QPD1qsOwYRESPqVW5Afj25lE/7T2GnrbcM1GTfvZd8fnanbJjaManq3dghAv/LpG2dGjdEn/7RdydNw25k8pYXb9doJmT5n7YdRTzxg6XHYOI6IlqXW56d++CdftD1cyiG+//sBljB/WVHUMXLExNMIa/Vr8b4eIEKwtz2TGIHjO4p7g7b5a+MQ+pl68Km6d3d8vv4T/bDsqOAQD45+Z9mDd2GJo0rvWXD0REQtXpoxPf3tw3ZlBf2PDisFpz722PXw6EyY4h3dINAfw7RJrlLeHOG6qdf2wOxKcvz5AdA1+s24l5Y4ejhRnvmSEi7apTubHr3AFbjhr30ccrdh8V/kWAIRgzuC8+XrVddgypRrg4waRZM9kxiJ6oUaNG+H7nEWHz5k8cKWyWnv1n+0G89+xk2TGwePlGzBszHB1a8xAdItK2Or9X9h02AP/ask+NLJr39nfrucSqnqxbW2HsYOP9tfMPicSwPo6yYxBVS/SbRd55U72fAo/hf2aMkx0DADB/wkh079RedgwiohrVudyYmzbH9FFD8P4Pm9XIo2ljBvVFD35wr7cR/ZywJjBEdgzhfj4QhqmeA2XHIKpRXzsbLF62Udi8UJ6aVqXNR07iJV8v2TEAAJEJaejFS4eJSCfqtSOwa4c2mOHtrnQWTdsTfhbjhrjIjqF7c8YMxT82B8qOIcyna/wxw2uI7BhEtebmLO6o4Xd4580TBRyPwpwxw2THAHC/gA50FnfYBBFRQ9X7uJMBjt1w8FScklk0a/PRk5g0XBu3QeudSbNmeNF3FD5auU12FCEWTRkN0+bcZ0P64c07b6QKiUmA3wg32TEAAAciYuHhwguHiUhfGnSW49jBfbHx8AmlsmjSPzYFYpaRvaVSm5WFOV6fPkZ2DNUlZ11Bu1aWsmMQ1UmH1i3x5bpdwubxzpv/iknJwKj+vWTHAAD4h5zGU0P6yY5BRFRnDT6ofs7oofhxd5ASWTTp/82eIDuCQbJubYWLOddkx1DN/ogYOGjkwj2iuhrax0HYLN55c19a9jX0d+wmOwYAYMOh45jqOUh2DCKielHkFq6X/bxwJPKcEo/SjCXrA1BRUSE7hkHr3rE9bhUU4d3lm2RHUVRkQhr3Z5Gu8c4bsW7cLsTKPcGyYwAAVu4JwlyN7PchIqoPxa4Y9hnYB/Hpl5V6nFRr9oXgnXm+smMYhVYtzPHpy08bxNu/D1duRfqVXG6+JYOwfOdhYbOM+c6bO+XlWL7zML56bbbsKPjXln2YN3a47BhERA2iWLkBgF7dOiPz6g2h67WVFngiGi+M95Qdw6g0b9oUL/t5Ycex07Kj1Nt/th3E4nmT0M26newoRIrwFLyR3FjvvPl2+yF8OH+a7Bj4ZPUOPDfOA2YmzWVHISJqEEXLDQDYdGiDRdPGYMXuo0o/WlVfrtuFyIQ0TBjqKjuK0Zo2chD2R8Tg7e/Wy45SJ5uPnMSbT49FCzNT2VGIFNOnhw3eWbZB2DxjvPPmh11H8Kc5E2XHAAC8OHEU2rRsITsGEVGDKV5ugPtLjV6cOAr7I2Lx8artaoxQ1JajEVg0bQyXE2nAuCEueH3aWF2U46UbAnD8XBJm+fA0PTJMg3raCZtlbHfe/HIwHK9N1capkQmXsmHToY3sGEREimiq1oObNGmMcUP6YXBPOwzuGYXj55Lx5cJZao2rlyUbAjB2UF/NnFBD9/Xo1B6v+HnD4cx5HI48hy8Xyl+L/qBPV+/ACBcnjOjnBJNmvMOGDJeMO298jeBOsR3HTuO5cR6yYwAAopIvwdm2k+wYRESKUa3cVGrT0gK+w/tjSG87DOkdiePnkrFk0Vy1x1brz99vhnsfe4wd1BfmpiZSs1DVvN16w9GmIxxsjuFF31Gy4+D9HzZjRD8njHBxgpWFuew4RKpr38oSX6zbiQ+enypkXogRlJv9EbF42muI7BgAgPC4JPR3sJUdg4hIUaqXm0rtW7XEFI+Bv73JiUBcWiY+fWmGqPEAgL9vCkR/x25wdbBFW64t1gWbDm2wYOJIjL5yHdHJlxCdcgkfL5guNMPHq7ajn50NPFydYd3aSuhsItmG93USNmvJ6/Pw6mQf2BvoHVFhsYma2dd56HQchvd1lB2DiEhxwspNpc7tWmOG1xD4DR+A6SMvITEjB4kZ2fhIxS9Yfz4QBld7W/Sz76raDFKXrXVb2Fq3xdjBffHU4GREJ1/ComnqrVf/Yu1O9LGzgUMXazjadETzZsL/qhBpgteAXkLnhcUmGWS5iU3NgKdrT9kxAAC7w85izKC+smMQEalC2ldsJs2bwdXBFq6/vRKfN/YK4tOzEZ+ehfeendygZ3+zcS8cbTqiW8d26N6xHaxacAmRoTAzaY6hfRwwtI8Dpt7Iw8WcXKT/9p/3n5/SoGcvWb8H/ey7ond3G9hat1UoMZH+fbfjEN6YPlbIrPkTR+IFA7tA+WJOLlwdtLG3c9ORE/AbYdhL/4jIuGnm29H2Xaxh38UafiMG4H9m3sHN/MLf/lP0+z/f+O1/N23SGC3MTGFhagILc5P7/21qgk5tW8GhizXLjJHo2MYKHdtYYVgfBwDAK5PzcTE7F1dv3UZRSRkKSkpRVFKGopJSFJaWoUnjxmhtaYE2LS3QxrIFWlmao41lC7RpaYHWlha834GoCqLf3kTEp8K9t73QmWq5kV+INftCZMcAAKzYfRSzfYbKjkFEpCrNlJsHmTVvhi7tWqNLu9ayo5COtLOyRDsrS9kxiAxO7+5d8PZ3G/DNG/OEzAuLTTSIcnO3/B5W7gkWvr/0Sb7ZuBcvTOAF1URk+FS554aIiAyLyLLx9lxfg7jz5oddR/Des36yY+Cjldvw0iQvNG+qye9nEhEpiuWGiIhq5CXhzhs9Wx0Ygj/MGCc7BgBg4RQftOJybSIyEiw3RERUo3ZWLfD52p3C5oXGJgmbpbTNR09q4m4uAEjJuorOXOJNREaE5YaIiGrF08VZ2KyvF81B6uWrwuYpJSA8CnNGD5MdA8D946ftu3SQHYOISCiWGyIiqpWR/cXe0xKms7c3QWfj4efhJjsGAODk+WT0s+PdbkRkfFhuiIio1pb5HxY2a/7EkcJmNVREfCp8BvaRHQPA/ZLl3ttBdgwiIilYboiIqNa8BL+9iYhPFTqvPuLSMjG0jzbKRED4WeH3EhERaQnLDRER1Vqv7l2EzguL0/bStPScXGw8fEJ2DADA+oPh8B0+QHYMIiKpWG6IiKhOtgZFCJv19pyJmr3z5mZ+EX45dBxfLZwtOwqW7zyMeWOHy45BRCQdyw0REdWJt+BlT1q886b83j2s3ReCD1+YKjsKvl6/B69M8pYdg4hIE1huiIioTtpaWeKzNf7C5mlxadpPe0Pw1pyJsmPggxVbsGjqaDRpwk/nREQA0FR2ACIi0p+RruIOFvjba3Pw8iQv2HexFjazOr8cDMfCKT6yYwAA/mfGOFiam8mOQZLp8U4o2axamKOdlaXsGKQClhsiIqozGXfeaKHc+IdE4rlxHrJjAAAuZl9Dh9YtZccgyUrK7sDBpqPsGLqzMzQSUzwGyo5BKuB7bCIiqpdl/oeEzdLCnTcHT8dh+qjBsmMAAM5fzEL3Tu1lxyAi0hyWGyIiqhfvAb2FzpN5501YbBLGDXGRNv9BpxPS0FvwkdxERHrBckNERPXSs1tnofNkHSxwNikdnq7OUmY/KigqHoOce8iOQUSkWSw3RERUb9uCTwmbJePOm6TMK5q5pHNX2Bl49Rd7DDcRkd6w3BARUb0Z8p03Wbk3seFQOL55Y56wmVVZtz8Uk0e4yY5BRKR5LDdERFRvbVq2wKerDe/Om5v5Rdhw6Dg+eWmGkHnV+Xb7Qc2c0EZEpHUsN0RE1CBeAt/e/O21Oarf6VF+71dsPHwc7z7jp+qc2vhy3S68MX2s7BhERLrBckNERA0ierN9WKy6b29+PhCGN59+StUZtfHu8k3448zxsmMQEekKyw0RETXY8p2Hhc1S886bLUdP4kXfUao9vy7enjsR5qbNZccgItIVlhsiImowQ7jzZu+JaMwePUzx59ZHxtUbaGdlKTsGEZHusNwQEVGDOdt2EjpP6YMFgqLiMWn4AEWfWV8Jl7LRtUMb2TGIiHSJ5YaIiBSx/dhpYbPenjMRCTW6OgAAIABJREFUqZevIuPqDeTmFaCopAy//lpRr2edik+Fj1sfhRPWz6kLqcKLIhGRIWkqOwARERkG0XfeONh0fOzffbJ6B9q2bIG2Vi3Q2tICfXrYwKZ91W9BzqVlwr2Pg5oxa+1w5DkM7mknOwYRka6x3BARkSJaW1rg0zX++Gj+NGkZPl4w/bF/98nqHejdvQv6O3aDQxfr3//9xZxcbDx8QmS8Ku04dhqjB2rj7RERkZ6x3BARkWJEHyxQG48WntWBxzCklz38QyLx5cLZklL915rAEEwbOUh2DCIig8ByQ0REivFwcZIdoUYLJmrjqGcA+NeW/XhhgqfsGEREBoMHChARkaK+33VEdgRd+HSNP/44c5zsGEREBoXlhoiIFKXFpWla8/Z367F4rq/sGEREBoflhoiIFOXU9fFTzOhhHzw/FSbNm8mOQURkcFhuiIhIcTtCxN15ozeZ126gVQtz2TGIiAwSyw0RESmOS9Oe7PzFrGrv3SEiooZhuSEiIsVFxKfIjqA5J84lo3f3LrJjEBEZNJYbIiJS1L6TMRjv7io7hqYciIjF0D4OsmMQERk8lhsiIlLMmn0hmDisv+wYmrI1KAJPDeknOwYRkVHgJZ5ERKSInwKP4SVfL9kxNGVlQDBmeA2RHYOowf78w2Z0FbBfrKi0DO/Mm6T6HDJcLDdERNRgO0PPsNg84h+b9+El31GyYxApop2VJRZNG6P6nHNpWXhH9SlkyLgsjYiIGuTE+WRMGzlIdgxN+etP2/H/Zo2XHYOIyOiw3BARUb1dzMnFnvAo2TE054Pnp8qOQERklFhuiIioXopLy7A77Cy+WjhbdhRNuZlfiKZN+OmViEgGfvQlIqJ62RMehf/l0quHpOfkorWlhewYRERGi+WGiIjq7MS5ZMwZM0x2DE2JTc1At47tZMcgIjJqLDdERFQnd8vvIfxcsuwYmhIWm4h+dl1lxyAiMnosN0REVCfhcUl4Z66v7Bia8eW6XRjRz0l2DCIiAssNERHVQWFJKcJiE2XH0JT3n5+C8xezZMcgIiKw3BARUR1EJlzEh/OnyY6hOSExLHxERFrAckNERLUWk5IhO4ImvT5tDOLTL8uOQURk9FhuiIioVhIuZfPo52qcjE+RHYGIyOg1lR2AiIj0QStvbRYv3whLM1O0MDcFKoD84hJ8vGC67Fh4ydcL467dRJf2rWVHISIyWiw3RERUo3u//oqEjBxp8/+5eR8cbKzRq1tn2Hexfuz//2h+BRIuZSMhIxuxqZnSyk5sagbLDRGRRCw3RERUo7Tsa/jri+ILwzcb92JEPycM7eNQ44/t2a0zenbrDJ+BfeDeOwbj3V0FJHxYXFomxrm7oHGjRsJnExER99wQEVEtJGddFT5zmf9hvDrZp1bF5kEtzc0wbogLopMvqZSsau8+44e41Ezhc4mI6D6WGyIiqtG5NLFfsP9ry34smjoaluam9X6Gq4MtikrLFExVO2nZ14TPJCKi+1huiIioWoUlZXj3GT9h85ZuCMAfZ45T5FnmJs1x9eZtRZ5VW7l5BULnERHRf7HcEBFRtXJu5AmbtXj5RswZM0zRZ3Zo3RInz4s7pvnaLbFlioiI/ovlhoiIqnVFYLnx6OcMm/ZtFH+ue297fL/ziOLPfZIP509DSdkdIbOIiOhhLDdERFQtUW9u/vLjVni6Oqv2fA8XJ9We/SguTSMikoPlhoiIqpWbly9kjrNtJ7RqYa7a8/v0sMFHK7ep9vwH5RUWCZlDREQPY7khIqJqld65K2SOo01H1Wc42Dx+AagabheWCJlDREQPY7khIqJqlQgqN13at1Z9hq11W9VnAMDtomIhc4iI6GEsN0REVK1SQZvjW1qYCZih3rK3B+UX8c0NEZEMLDdERFStL16dJWROS3MB5aYBl4LWxW2WGyIiKVhuiIioWp+s3iFkTkFxqUHMAABLQSWKiIgexnJDRETVsjQT84V6YYn6xUPEDEDMWygiInocyw0REVVLxF4YQMzdMFdviTnWWtSvGRERPYzlhoiIqmUp6Av1C+mXVZ8RL2AGwGVpRESysNwQEVG1RC1LO59+GXmF6h2hfP5iFj6aP0215z+Iy9KIiORguSEiomqJWmL12cszEBqTqNrzw2KTVHv2o0S97SIiooex3BARUbVE7h8Ji0tEVu5NxZ8bEZ+K16aOVvy5VeGyNCIiOVhuiIioWu1bWQqbtWTRXOw4dlrRZxYUlyLgeJSiz6zORyu3wcLURNg8IiL6L5YbIiKqVsc2rfDlz7uEzfvjzPHYcjRCseetCgjG56/MVOx5NenZrbOwWURE9DCWGyIiqlGfHjZC580ePRTbgk+h7G55vZ+RlJmDz9buxP+bPUHBZDXrxXJDRCQNyw0REdVIxhfsM73dscz/MGJSMur8c49FJ2DV3mPCTker9PZ3G/jmhohIoqayAxARkfbZd+6AD1duw2cvzxA6963f3rpsOnICvbt1QT/7rlX+2OKyO0i4lI3TF9KEHh7wIEcba5g2byZlNhERsdyQhoTGJKCk7K7sGASgtaUFBveykx2DNKRx48ZSl1vNGT0MAPDe95tg17kDWpiZwtLcFBUVQH5RMfKLS/H6tDHS8lVy6tpJdgRVJGTkIOPKddkxdMdnYG80bdJEdgwio8JyQ5rwa0UF9oRHYekb82RHIQCfrfFnuaHHOHSxlh0Bf3ttjuwI1TLUcpOYkY2pnoNkx9Cd4tIylhsiwbjnhjTh2q18FhsN+XD+tAZt5CbD5GAjv9xo2b+37kfndq1kxyAiMmosN6QJV2/elh2BHsHfE3pUa0sL7A47IzuGZnm4OMuOQERk9FhuSBP4hbT2XLmZJzsCadBI1574bI2/7BiaszrwGNycusuOQURk9FhuSBOu3mK50ZqrN/NlRyANsmphDq8BvWTH0JyRrj1lRyAiIrDckEZc4ZsbzbnKNzdUBQ8XZ3y345DsGJrhHxIJu84dZMcgIiKw3JAG/FpRgdxbfEugNSycVB2+qbjv0zX+fJNFRKQhLDckXS5PStMknphG1elrZ4P1B8Nlx5BupGtPtGphLjsGERH9huWGpOMbAu3iQQ9UHW+33vhk9Q7ZMaRZFRCMUf35BouISEtYbkg6HiagXSw3VJ1ObVthioeb7BhS/HPzPsz0dpcdg4iIHsFyQ9LxC2jt4ls1qomrQzccPBUrO4Zws0cPhaW5qewYRET0CJYbko5fQGsXT0yj2hg7uJ9R7b9JuJSNTm1byY5BRERPwHJDUvGkNG27wt8bqqV5Y4fjn5v3yY6huvDYRDjbdpIdg4iIqsByQ1LxpDRt+/CFqTwxjWrtf2eNx5+/3yw7hmp+3h+G4f2cZMcgIqJqsNyQVDxMQPu4J4rq4suFs/D3TYGyYyhu3f5QPDtuhOwYRERUA5Ybkor7bbSP5Ybq6q3ZE+AfEik7hmICT0TjuXEesmMQEVEtsNyQVPzCWftYQKk+pnoOxIlzybJjNMjb321ARHwKJvx/9u47KsprawP4Qxk60nuv0hRQFEVAERAEEexdY4sl7X65KUZjTGKJSbw1xdhjRazYUOy99wIWUBRBEemdGeD7A/GqQQWcOeedYf/Wcmkss7dRcJ73nLNPF2/erRBCCGkiCjeEKwo3wkdbB0lLdfF0xvW7mZj2x3rerTTbT+t2YkpcKDq7O/FuhRBCSDNQuCHc1NbV4QlN4xI8Wrkh78LTwRqT40LxzwT5OYfz5+6jeD8mBI6WprxbIYQQ0kwUbgg3uYUlNClNDtDENPKu7MyM8cnACBy9nIp5q7fxbue1ftuyD5fv3MeYyCDo6WjxbocQQkgLqPJugLRedEGk/MjJL4KtmRHvNogcU1ZWRpC3Gzq2dUAH1ys4ce02Zk8YxLstAMCC+F0IbN8W/h60BY0QQuQdhRvCTU4+bUmTFzkFFG6IdGhpqCOic3v4tXVAx7bnceLabfw8lc8K7pyViejWzhXd2rlCpKrCpQdCCCHSReGGcPOYVm7kBg1+INJmpKeL2MCO8GvrgHC/q7iV+RgfDegl87pfLlwPd3tLuFibo52jDXS1NGRekxBCCDsUbgg39IZZftBQASIrViaGsDIxRHindhhSUIyUjIe4ef8RJseFSq3G10s2op2jDdzsLOFsbQYtdTWpvTYhhBBhoXBDuKBJafKFgihhwURfF9193NHdxx3vVVUj5X42MnPykF9SivziMhSUlGHOxDef05m1bDMMdLVg2EYHhm100NbGAs7WZox+B4QQQnijcCNAy3YehoOlKXp28ODdisw8ZTgpbdepy1BVVszBgKUVlRjQo7PM63w9Jg5fDBdDpKq4nzJ2nLiI8spqDAntwrsVAkBdTQRfFzv4uti99P3TR1WhoKQM+cVlyC8phRKUngUZbRi10YGaSHH/jrYGq5OPw1S/jczrnLpxB9+OGyDzOoQQ9uhfAQGpqa3Fsp2HMSm2fjvGL5uSMaZ3sELuCWe1zWnm0o2IUuDbxasZjmh+nF8EG1PFGyrwtLAEK/ccw2fDogEAdftOYkhYVyhx7os0TlNdDZrqarA0NuDdCpEBH2c7eDlay7zO9XsPZV6DEMKHYj7OlkOvBhsA+GhgBH5atxMpGVkcO5MNVtuczAz1mdThRU2kijkrE5nUUsRzN6eu38E/EpKeBxsAGBYegIT9p1DHsS9CCCGEtAyFGwFoLNg0mDNxEDwdrLHh0BmIJYpzkSKrSWnmhnpM6vDE6veoSOduyiursHTHIQS0c8X8yUP/8uPDwgOwdu8JCjiEEEKInKFww9mbgs2LhvTsggXxScjKLWDUmWyxuuOmNYQbMwo3zXI3+wl+WrcLE/v2fOPPGxURSAGHEEIIkTMUbjhqarBpMH10LP67KRmHLqbI9Ruu+klprLalKX64YRXg5H1bWk1tLXacuISFW/fju/FNO0hMAYcQQgiRLxRuOJHUNC/YNPhp6jD07OiJhVv3o6S8UkbdyRbLSWlmBoofblgFuK/HxKGK4QADaXpaWIJ/b9iDvoEdsODDEc36tRRwCCGEEPlB4YYDSU0tluw41Oxg86IP+ofL7bABlpPSFHHS3KssjdhNjWK14iZNp2+k4R8Ju18aGtBcFHAIIYQQ+UDhhrGGYDO1X9g7v1bDsIGNh85CUlMjhe7YYHV2w1zBJ6U1UFFRxlyamPYXFVXVWL7rCLp6uWD+5CHv/HoUcAghhBDho3DD2LJdh6USbF40uKf/s2ED+VJ9XWkrq6zCsSu3cDY1nUm91jBMoAGrrWmHL6Xi1I00VInFTOq11J2Hj/Fz/C6M79NDqq87KiIQ6/efkuprEkIIIUR66BJPRqS5YtOYr0b1RcHCePT290Z3X3fBXEAoltTg+t1MXLidgduZj/DzVDZnbYDWMUyggbkRm1WqL4b3AQB8uXA9PB2s0MHVHm52llBRFsZzkpraWuw+fQVHLqU2+2xNUw0PD0BN8nGM6NVNMB9nhBBCCKlH4YYBSU0Nlu6U/orNq36aMgw/AVi4dT+G9wpAGy1NmdZ7kzuZj3Hu5l1cu/tQKluCWqI1rdyw/r3+OOV/d8N8vWQj2jvZopO7I+zNjZn28aKnRSVYtec4/j40Sua1RkUEQnX/KQwN7SLzWoQQQghpOgo3Mla/YiP7YPOiKf3CkLVkI0b06gY3WwtmdXMLS3A2NR0Xb2Xgm7H9mNV9nda0cmPKcSrcnImDnn/7hzXb4dfWAX5ujtDX0WLWw5mUdGw7fgE/TGIXpIeFdYWEVnAIIYQQQaFwI0Oy3or2JnMmDsIcAJsOnUFsUEeoqqjIpE55ZTUu3LqH87fu4dMhvWVSoyVmLt0IHU3Fn5TWwJLRtrS3+WpkXwDAZ7+uhaOlKTq6OcDb2Q7qItl8qqmoqkb8/lNSP1vTVKMiAgEKOIQQQohgCGOjvIKSxfCA5hoY4o9/rN+N7KcFUn3d9Own+HP3MWhrqiPYx01QwQYALFrJpLQGKirKmLtqG+82nlvw4QhM7R8Ofw9naKiJsP7AaalPyUvPysGC+CRuwabBqIhAxO87ybUHQgghhNSjcCMDkppaLEw8gMnvcI+NNE0bGYP/bErGkcs332mMbW1dHS7fuY//bNwDZyszjI0KllqP0taatqQ1MDNow7uF1xoW1hXmRvpYvP0Qbmc+eqfXqq2tw65Tl/HHtoOC2P4IACN6dcMaGhNNCCGEcEfb0qSM51a0N2kYNvDbln0YHRnYrC1bVWIJTt9Iw7GrtzBzTJzsmpSi1hhuWE1MexeTYnsCABbE70Kwjxs6uNo3a9JaXnEpVu05hk+HyH5oQHPRFjVCCCGEPwo3UrZ0p/CCzYs+6B+OnKWbMCS0Czzsrd74cyuqqnHwYgpOXruDeZMGM+pQOuThjb60ydOlpZ8NiwYAfLt8M3r4uiPAyxUi1TefCzubko5ExkMDmmtURCCU957A8PAA3q0QQgghrRKFGykR6opNY76fMBDfA9h8+Cz6Bnb4y7CB8spqHLqUgpPXbmOegN9IvokZx+lhvJgZCndb2ut8O24AAGDWsvqQ063dX0MO76EBzTWiVzfU0goOIYQQwgWduZECeQo2LxrQozMWrE/Co7xCAPWhZufJS5izKhF9AnzlNtjUT0pT590Gc/I8ROG78QMQ0sEDc1Ym4tDFFFSLJQCAjMdP8dO6nXITbBqMigjEWjqDQwghhDBHKzdSIPStaG/y1ci++ArA2r0ncDU986XLGeWVhZEB7xa4UFFRxrzV2zB9VCzvVlqsYVVx5tJNcLO1wIhe3Xi31GK0RY0QQghhj8LNO5DXFZvGyPObyFcJeWqYrCnKdrzZEwbybkEqaIsaIYQQwhZtS2shRQo2iqY1DhNo0BqnxAldwxa12jrapEYIIYTIGoWbFqBgI2yt+Q2+eSv+vQvZqIhArNpznAIOIYQQImMUbppJLKmhYCNw8nyw/l1RuBGusVHBFHAIIYQQGaNw0wxiSQ0WbTtAwUbAZi3bDC0NNd5tcCNPd920RhRwCCGEENmicNNEDcHmo4ERvFshb9Cat6QBzyamrdrGuw3yBhRwCCGEENmhcNMEFGzkB23LooAnDyjgEEIIIbJB4eYtKNjIF3pjTwFPXlDAIYQQQqSPws0biCUSLN5+kIKNnPh6yUbYmRnxboM7ewsTTF+UwLsN0gRjo4Kxbt9J3m0QQgghCoMu8XyN+hUbCjZC9s3STXCyMoWTlRmcrEzpMP0zHvZWmD1xECbHhSE9KwfpWTm49ygXc98fzLs10ohREYGQJB3F6MhAKCvRVZ+EEELIu6Bw04j6FZtDFGwEZvqiDWhraw5HSzM4WprA0tiAd0uCpaykBBtTQ9iYGqKHrzsA4P2+T3E3+wnSs3IwISaEc4fkRWOjgqGafBwje3Xj3QohhBAi1yjcvIJWbITl2+Wb4WFvjXaO1nCxMYeKMu2kbClbMyPYmhmhh687RovFSL3/CNfvZiL1fjbmTBzEu71Wj1ZwCCGEkHdH4eYF1WIJFu8Q1orNzKWbMHvCQN5tMDV31TZ4OVijnZMNHCxMeLejkESqqmjvZIP2TjYAgFER2biWnokb97Iwa1x/zt2x9c3STfheIB9jY6OCobLnGEZFBPJuhRBCCJFLFG6eeR5sBvTi3cpzv2zei/djQtCr0y0Eebfl3Y5M/bxuF9o5WcPLwQZWJrTdjDVXGwu42lhgQA9gdO9cXL+biatpDzBjTBzv1mRmxuINGBLaBQ4WJtDR3IEvRsTwbgkAMDoyCKCAQwghhLQIhRvUb0UT2lS0XzYlY1LfnhCpqiCwvSse5xdh1e6jgnkDJg1zVibC18UOvq72sDCiYQBCYW9uDHtzY/QJ8MWIiFxcvJWBK2kP8N34Abxbk5pfNiVjVGQg9LS1AABT+4ejds0OTBspjI+v0ZFBqKEtaoQQQkiztfpwI8R7bH7ZlIxJsaEQqao8/z4zgzb4dEgUXGzOo1+wH8fu3s03SzfB29kWHVztYWdhAnrbJmx2ZsawMzNGbFBHDAvLxsXbGbh+9yHmTZLPyWuf/74OvTq1Q2hHTyi9EBq0NdTx4YBwAMIJOGOjggEKOIQQQkiztOpwIy/BpoGKijLigjriduYjrN17Um6epE9flAAvR2v4utjD1cYCysr0Rk3eKCspoa2tBdraWkBSU4PBPe/j4u0M3HyQjZ+mDOPdXpPMWZmI93oHv3bbIwUcQgghRP612nAjb8HmRS7W5vhieDQsjA5gclwoo+6a79vlmxHs7YaAdi5QF4l4t0OkRFVFBd7OtvB2tkVJeSW6e1/Cyet3BH2PTvy+k+jXvRPURW/+lEcBhxBCCJFvrTLciCU1gpuK9vuWfZgQ0+OtwaaBloY6JsX2hNfVWwhsL6xhA7P/3IqeHT0R4OXCuxUiY7paGojq6oOeHT3Rs8N1HLqUKqix0tMXbcDgnv7wdrZt8q/R1lDHRwPCoaqyC58Ni5Zhd03XGqaoVYklWL7zMO825E57Z1t0a+fKuw1CCBGMVhduhLhi8/vW/ZjQp+nB5kXd2gln2MDP63YipIMnfF3t6AlzK6OhJkLPjp4I8nZDROdbOHwpBTPf68e1p1eHBjSHloY6pvYLQ926nfh8eB8ZdNd8ij5koLa2FlP7h/NuQ+4kHjvPuwVCCBGUVnUjYpVYIshgMzEmpEXBpkHDsIGtR89JsbOm+8/GPbiWnom/D4tGx7b2CvnGizRNw3S/6aNicTY1HfPX7GDew+e/r8Pec9fwQf/wFgWbBprqavigfzh+XrdTit29m7FRwVi15zhq6+p4t0IIIYQIUqsJN1ViCZYIbNzzwsT6FRtVlXf/Y6gfNuCH1IwszFy6UQrdvd2/Enbj1oNH+HhgBLwcrWnyGXlOWVkJndwc8eWIPrh0OwPzVm9jUnf2ykR82L8Xwv28XpqG1lKa6mqY2i8cC+J3SaE76RgbFYy1e0/wboMQQggRpFYRbqrEEvyRKLwVmwl93m3FpjFudpb4Yngf/JF4QKqv+6IF8btw495D/G1wJFxtzGVWhygGHxc7fDkiBmdT0zF3ZaLM6qzbdxKfD4uGrZmRVF9XS0MNU/uFCWoFZ3RkEJbtPIzaWlrBIYQQQl6k8OGmIdj8bXAk71aea9iKJo0Vm8boaGpgUmxPHL18E18ujJfa685fsx2Xbmfg06FR8LC3ktrrEsWnrPRsJWdkDI5fvYXvlm+R2mvPWLwBV9MfYFhY17dOQ2spIW5RmxATghVJRyjgEEIIIS9Q6IECrTHYvCjIuy1cbS1g1GbHOw0bmL0yEb38vODn7kjnacg7UVFWRrd2rujs7oRgnxQcvJiC2RMGtvj1/r1hD96LCnqnszVN1RBwIKAhAxNiQoAdhzA2qjvdH0UIIYRAgVduGoYHCCnYLEzcj4kx0jlj01RmBm3w+fA+2HKk+cMGvlm6CSeu3cbXo2PR2cOJgg2RGpGqCnr4umPG6Fgkn72KaX8kNPs19p69hk8GRTAJNg0aAo6QzuBMiAnBmr3HebdBCCGECIJChpuGFZtPBgkn2DScsVFVke4Zm6bqF+yH1PvZmLl001t/7ue/rcPWo+fw1ai+dFcNkSl1kSp6dWqHGaP7Yt2+ph2Sn7MyEQ9yniK8k5eMu2tc/ZCBMPxjfRKX+o0Z0zuYzuAQQgghUMBwI8StaIu2HWC2Fe1N3Gwt8MXw6DcOG/hl8158NiwacUF+0FATMeyOtGY6mhoYFhaA+4+fvvFcy7p9J/DZsGjYmEp3aEBzCTHg0BkcQgghRMHCjVCDzXgpjXuWhv8NG0h9adjA7D+34vKd+/iwfzhMDdpw7JC0ZrZmRvj70CicvHb7pZHm0xclPBsaECCzoQHNpaEmooBDCCGECIww3iVIQZVYjCXbDwkq2CzdcQjj+/Tg3Uajgrzd4GxtDhP9XfB0sEaYnye3LXOEvEhJSQldvVzg7WwHb+ezeJRXiBHhATDQ1ebd2l9oqIkwJS4USgm78emQ3rzbAVAfcES7j2J0ZBDvVgghhBDmFCLc1K/YHBRUsFm07QDeiwrm3cYbWRjp4+9Do3i3QUijtDTUMKB7J95tvJWmuhqmxIWibn2SYD6exvQOhpimqBFCCGmF5D7cVInFWLxNWCs2y3Yexrjo7rzbIFJQUVWN8spqlFVWPf9SXlmFispqVEtqIJZIIJbUoPrZ12JJDZSUADWRKtRUVaEmUoVIVRUaIlWInn+fyvMf01ATQV9XG4YCXJUgTdewgqOyYTf+NphWcAghhBBe5DrcNASbjwdF8G7luaU7DlGwkSNFZeXIyS9GfnEpikrLUVBShoLSchSWlmH6qFimvcxbtQ2GejowalP/xfDZFxN9XRruIAc01dUwKTYUEFDAGdM7GLVJR/Beb2GvIhNCCCHSIrfhpkosEVywoRUbYcsvKUNWbj6ycgvwMDcfD5/k4bvxLb9AUtqmj359mPp6yUYY6+nA0tgQdmZGsLMwgRkNfhAcDTWR4ALO2KjuqNt1BGMFvk2WEEIIkQa5DDcNF3QK6R4bWrERlvzi0voAk1uAzCd5yMrNx+wJg3i31WJzJv6196+XbIS9uTHszE1gb2EMOzNjiFRpKARvQgw446K7AxRwCCGEtAJyF26qxGIs2nZQUMFmOb1p4C63sBg372fjVuZj3H/8tNEwoGga+z3+e8Nu2JmbwNHSFM5WZtDSUOPQGWkIOHUJu/F/ApmiNi66O5RoixohhBAFJ1fhRohT0ZbuOIQxdGCXObFEgrSsJ7h5Pxs372e/cUtXa/LiSsFnv66Ftakh2tpaws3WArbmxlBWoslZrGioiTClXxiUNuwRzOessVHdUUNT1AghhCgwuQk39WdshBVsVtBTUKaqxRJcu5uJq+mZtAWwCRZ8OOKl/56+KAGeDtbwc3OEq405p65aF3WRKibH9YTSxj2CWW2eEBMCZVptJoQQoqDkItxUVtfUT8hOAAAgAElEQVRvRRNSsFm64xBGR9CKjaxViyW4kZGFK2kPcPN+Nn6cMpR3S3Jr3qQhz789e2UiOrk5oLO7kyAvx1Qk6qJnW9QEtIIzLro7amkFhxBCiAISfLipDzYHBHMwFwD+TDqKMb0p2MhSbmExjl6+iXM371GgkYGZY+Kef3vh1v3wc3eEX1sHjh0ptoYVHOWNyYKZ8EgrOIQQQhSRoMNNZbUYv2/dL5hbv4H6FZtREYG821BItXV1uHHvIU5cvY0p/cJ4t9NqNPy//nrJRvi62MHfwwlWJoacu1I86iIR3o/tiVpawSGEEEJkRrDhpmHFRkjBZiXd9i0TFVXVOHUjDSev33lpRYGw9eL0tX+sT0Kwd1v4uTly7Ejx1K/ghEJ5UzI+HkgrOIQQQoi0CTLcCHXFZmQvWrGRpqeFJThyORXnb2Vg/uQhb/8FhJmGj73vlm9Bt/auCPBygaY6jZWWBnWRKt7vK7wVHPG2AxjfpwdUlJV5t0MIIYS0mODCTWW1GH8kCm3F5hhGR1KwkZbrdx/i5PXb9RcdEkGbNa4/AODLhevR2d0RoX6e0NPW4tyV/GtYwVHZlIyPBLKCMyk2FCo7DmF8nx68WyGEEEJaTFCP6BpWbIRy6R0ArEg6ipER3Xi3oRBuPXiEfybsRjsnGwo2cubHKUMxoEdnzFu9HVuOnENRWTnvluSeukgVE/v2xC+bknm38tyEmBAs3n4QNbW1vFuRmX+sT0JdXZ3Mv1xLz+T9WyWEkFZJMOFGiFvRViQdxejIQLr48B1lPsnHwq374WZnKag/X9J8P00ZhgE9OuOH1duReOw8issreLck19RFqpgUGyqogDMpNhTLdh5W6IBDCCFEcQki3FCwUUx5RaVYnXwc/924B1P7h/Nuh0jRj1OGoV9wJ8xbtR07TlxCeWU175bklkhVhQIOIYQQIiXcz9xQsFE85ZVVSD57Dadu3MHPU4fzbofIUMMdRNMXJSDI2w09fN2hoSbi3JX8aQg4ENgZHNCQAUIIIXKGa7iprBZjocCGB6zac4zusWkhSU0Njly+iYMXbmDeJJp+1po0/HnPWLwBoR09EdLBg3NH8qch4Cht2YcPBbLSOSk2FMo7DmECDRkghBAiJ7g+jrt+7yE+FdDwgDXJxynYtNC51Lv4Yc0OhPl5UbBpxea+Pxg9O3rinwm78TA3n3c7ckekqoL3Y3rgty37eLfy3MSYENx7lMu7DUIIIaRJuIYbv7YO+GPbAZ4tPLci6SiGhQfwbkPu5OQX4V8b9qCzhxO+ea8f73aIQPx9aBT+uzEZO05cglhSw7sduSJSVcXEmBDBnMHZeOgMHCxMeLdBCCGENAn3jdQjwgMwc+kmrj2s2XsC7/UOojM2zSCWSLDjxCWYG+kLavWNCMfPHwxH38AO+HHdTqQ9zOHdjlxp2KL2O+cVnPlrtiMuqCPXHgghhJDm4B5udDQ1MKoX33tkjNpoc60vb67fzcSPa3eib2AH3q0QOTBzTBxcbMyx6fBZVInFvNuRGyJVFejr8rsw9fPf12Fkr0Coqqhw64EQQghpLu7hBgBcbMyx5cg5bvV7d/HBvewn3OrLi8pqMVbuPoZ2TraYSVvQSDMNCvHHT2t34daDR7xbkQuX79zH8HB+D36iuvjAysSAW31CCCGkJQQRbgAgppsvflq7g1v9tftPobKaniq/zv2cp/g5fhfeiwrm3QqRY9+M7Qc3O0tsOHQGYomEdzuCVVhSho2HznCr/9uWfejh686tPiGEENJSggk3qioqGBUZiC8WxnOpP3NMHNc3E0JVB+DgxRT8tmUfDQwgUjOkZxcsWJ+Ex/lFvFsRnLq6OqxKPs5t6uDXSzbS1EhCCCFySzDhBgDMDfUR3dWHW/3RkUG4cCuDW32hKauswqLEAwjt6EmXcRKpmz4qFv/esBsnr9/h3YqgHLiQgk8GRXKrPzw8ALpaGtzqE0IIIe+C6yWejQn2dsOibQfqb8fmYMuRc3C0NIGBbuseMnDvUS5W7TmGb8cN4N0KN7OWbYKxfhsY6+nCsI021EWqUBeJoC5ShZpIFepqIqipqj77flWoiUTQ0lADAJRXVqFKLHn2RQyxuAaV1WJUiSWoFtd/XVktRl5RCfKKS5GTX9Qq7wf6ccow/Ahg+a4jGBraBZrqarxb4irzSR7CO3lxq59w8DTc7Sy51SeEEELeleDCDQAMDeuKzCUbMWfiIOa1500aDHPDZHw0sBfz2kJx6GIKenb05N0GEzMWb4CJvi6M9dvAVL8NjPV0YKSnCzNDPaiLWv7hoaWhDi0N9Wb9mq9G9cXTolLkFhQjr7gETwqKkVtYgqdFJZg/eWiLe5EH46K749HKRIzuHQRrE0Pe7XBRLZZg7d6T3OrPW7UNcYE09pkQQoh8E2S4aaOlieHhAZjDqf7HgyLgdvYa1yeoPFSJxVidfAITY0J4tyIz3/+5FU6WpnCyMoOTlSmM9XR5t/ScjqYGdDQ1YG9u/NL319XV4cP+vZCenYP0rCe4m/2ES/CXtRlj4lC8MB59AzsiwMuFdzvMJR67gK9G9eVS+/Pf12F0ZBDU3iHQE0IIIUIg2H/J3O0ssenQGQwM8edSv1fndsh4nAs7M+O3/2QF8CivECuSjmLG6FjerUjd4u0H4WFvBRdrc5gatOHdTrMpKSnBysQAViYGCPZ2AwBMjs1Dyv1spGZkcT2fIW0N29RWJx/HoBD/d1o9kyfX72ZiSGgXbvV7dWpPY58JIYQoBEENFHhV38CO+GHNdm711+49iWqx4o+rTc9+gl8371OYYDNj8QasTj6OK2kPUFktxsSYEHRr5yqXweZ1rEwMEe7nhY8HRqC4rAJnU9KxZMch3m1JzaiIQPy6eS9KKyp5tyJzxeUVSDjIb1Ljr1v2IcyvdWxDJYQQovgE/VhUpKqCUb0Ckf/7Oi7TumaMjoWj5SkM5fhEVdZu3HuIVXuO46epw3i38k5mr0yEl4MVPB2s4WRlBmUlJd4tMaOrpYFO7o7o5O6IUdVi3HqQjet3HyL1frZcb1/7bFg0qlYmYnK/MBgq6ICPOgBrkk9w+3OavmgDRoQHcKlNCCGEyIKgww0AWJkYIKqLD37mVH9YWFd4pN1HeydbTh3IzolrtxHYvi3vNlrsy4Xr69/UuznC1syIdzuCoC5SRXsn2+d/X4eHZ+H0jTSMi+7OubOWmTEmDtWSTZgY01Mht00duZSKD/qHc6s/KKQz9HW0uNUnhBBCpE3Q29Ia9PB1x+9b93Orv/HQWRSVlnOrLwtJpy7LbbCZuzIRRy+n4ttx/TGgeycKNm/gbmeJsVHBeFpYgi1HzmH6og28W2q278YPxO9b9yM9K4d3K1KV/bQAIR08uNWP33cSPi523OoTQgghsiAX4QYAhod3xddLNnKpPWfiIKzdx29Eq7RtPHQG0QG+vNtotoWJ+3H9biamj45FkLcbNNREvFuSG0Z6OugX7Idvx/XHiWu3MW/1Nt4tNcu8SYPhbG2OlIws3q1IhaSmBquTT3CrP3dlIvp19+NWnxBCCJEVuQk3etpaGM5xb/gH/cNx8GIKt/rSUFtbh9XJxzG4p/ycIfpy4XpsOHgaTwqKMDk2FJ4O1rxbkmsiVRUEeLlg2si+SM3IwqJtB3m31Cx/7j6KK2kPeLfxzrYdu4BpI2O41P7st3UYGREIdRE9HCCEEKJ45CbcAPVbbBIOnOZWP7SjJ7Jy87nVf1crko5gdGQQ7zaa5KtFCdhz+gpmvheHQSH+MNFXnElnQqAEwM3OEu/3DcHjvEKs2ctvFaE5fp46HD4udjiTks67lRZLycjiNuIeAML9vGgrJyGEEIUlV+EGAOKCOmLeKn5balbvPQFJTQ23+i1RLZbgj8QDmCAHl3N+tSgBu05dxtej4xDh3x7aGuq8W1J4ZoZ6GBEegMd5hVi15xjvdpqki6czjl25xbuNZisur0D8/lPc6v9n4x706tyOW31CCCFE1uQu3KiJVDEyohu3+l+N7Ittxy5wq99cYokEi7cfxJR+YbxbeaudJy/h69GxiOriDS0NNd7ttDpmhnoYFRGIR3mFWLbzMO923irYxw2HL6XybqNZ4vef4jb2edofCRgZEcilNiGEEMKK3IUbALAxNcK+c9e51R8Y4i8XB5slNTVYtvMIPhoYwbuVN1qRdBRPi0oQ3dUHWrRSw525oR7GRXfHrQfZ+GE1v0t0myKkgwcOXrjBu40mOXblJibHhnKrP6BHJ4W9L4i3orJyZD8tQNrDHFxJe4CT1+/gajqbs2EPHufh+NVbuHg7A7cePELmk3zkl5ShqhVcQE0IIY0R/D03rxPm54lft+zDh5zuiIjffwpfDO8DXS0NLvWbYuXuY4Jesfl53S7EBXeEs5UZ71ZII1xtLDBtZAwC299E8tlrgr0QNNTPC/vOXUeYnyfvVl7rcX4Rgn3cudVftecY/No6cKsvz/JLylBUWo6CkjIUlpaj8NnXDf/N++Pi40Gvf3g17Y8EGOhqQV9HG/q6WtDX0YKBjjYMdLWhp6MFE31dhp0SQggbchtuAGBEWFdkL0rAvElDmNeeM3EQrE0PYFLfnsxrN8WqPccEfcbm4IUbXO/4IE0X2L4tfFzs4GJ9DGN6C3MgRXgnLxy+lIruPm68W/mL+rHPx7nVn/3nVgziOMBAHjzKK0RWbj5yCoqfh5aC4jJ8M7Yf79beyfzJb/+3cdayTTBso4M22prQ19GGqUEbWJkYwMrYAKoqKgy6JIQQ6ZLrcKOvq41BIf6Yx6n+5NhQeFxORZC3sN5Qxe8/hTG9g3m30ahfNu/F0J5dYExPDOWKjqYGRkcGwjf9ATYfPofvxg/g3dJf9PB1x7X0B/BytOHdykt2nryML4b34VZ/RHgA3Qn1giqxGGdT0pH1tAAPn+S/ceWjNfhu/MDX/tiC+F2wMjaApYkBCkrKGHZFCCEtJ9fhBgB8XOwQv+8khnG6AyfYxx2P8gphbqjHpf6r9py5wvU+oNf5cuF6RHf1QZB3W96tkHfQztEGTpZmcLU5gRG9+A32eJ21+07ig/7hsDYx5N0KAODmg0foF8zvssykU5fhYGnKrb4QTR8Vy7sFufHZsGjeLRBCSLPJ5UCBV/Xr7ofZf27lVn/l7mOCGA996XYGenfx4d3GX/xn4x58MaIPBRsFoaWhhuHhAUjNyMKsZZt4t/OS+ZOHYsn2QygqLefdCsoqqxC/7yS3+v9MSEJE5/bc6hNCCCE8KES4UReJuF5OOW1kDLKfFnKrDwBpD3PQQYAHhg9fSsXHAyNoSpMCcrOzxBfD++DPpKO8W3nJ9xMGYsmOQ6isFnPtI+1hDr6f8PotP7I07Y8EjIoIhLKyEpf6hBBCCC8KEW4AwNbMCMlnrnKpvXzXEa43fucUFGOFwN5gLojfhScFRYI84E2kR0tDHWN6B+FsSjqm/bGedzvPfT68D/7czfdjwtvZFv9MSOJSu19QRxjr0bk2QgghrY/ChBsA0NPR4lI3JsCXS10AKK+sxrIdhzBv0mBuPbxq2c7D+HBAL5jot+HdCmGkk7sjPuzfC98t38K7leemxIUh4cBprj30C+Jz3qYNp8+FhBBCCG8KE25qa+uw7zz7iz23H7/AbfJXbV0dViQdwYwxcVzqN2bnyUsYG90d6iK5n1VBmsnKxACfDu2Nf2/Yw7uV54aGdcV+Dp8XGthbmGAlhxWk3aevMK9JCCGECIHChJsLt+9hJuM3+d8s3YTwTu2Y1nzRtmMX8OGAXtzqv+rCrXuI7uoD2uXfeuloauCTQRFYw/Fel1eFd2qHK2lsbotvTJ9uHZjX/HRIb9zOfMy8LiGEEMKbwoSbA+dvMK8Z6d+e2/0RZ1PS0b97Jy61X/X1ko249ygXHVztebdCBGJEr26CWj3YcPA08opLudQ21NXGrpOXmNdNPsvnDGJLPMorxK5Tl3m3QQTg+LVbuHHvIe82CCFyTCHCzYVb9/DVqL5Ma/60bif8PZ2Z1mzwICcPm4+c41L7VfNWbcPfBkfC3tyYdytEYCL92+PCrXv4/Ld1vFvBvElDsGrPMdTW1nGp37OjJ/Ox2R8PjBD06k2VWIyT1+/gXxv2wNLYAINC/Hm3RARgSlwYvBxt8N2KLdhx4hJy8ot4t0QIkTMKcTBiP4dVm9jAjlBWYr8Bq7SiCiuSjuCnqcOY137VL5v3YlxUd2hpqPFuRaaqxBLkF5f+70tJ+Qv/XdboMIevl2yEmqoq1ET1XzREqtDSUIeulgZ0tTSho1n/bT0dLdiY8pu0J2sdXO3RRlsTaqINmPs+36EXnw6JgsuJi+jDYQCIhpoIkf7e+I5x3cOXUuBqY8646pvdzX6CMynpuJL2AD9OGcq7HSJQ344b8Pzb/0rYjc4eTujgas9ttwQhRH7Ifbi5fOc+po2MYVrz9637ub1hWLvvxEuf9HlZkXQU7/Xmd7eQLFSLJbib/QT3HuXiaVEJ8ovLkFdcitktuKtkzsRBzfr589fsgKWxPiyM9GFlYggHCxOF+Ufc2coMH/QPh0h1M/e/uzHdOiD1fjbcbC2Y1+7i6YwfVm9nuso8KTYUffMKYW6ox6xmY0orKnE29S5O30jDjNGxXHsh8uf/hvQGAHy5cD06uTsisJ0rzDj/nSaECJfch5uDF1OY1+zbjc/o5yOXb2JybCiX2i9KOHAag3oqxhaSjMdPcSfzMW5nPuI6nKGxgP6fjXvgZmsJVxtz2FuYcOhKeiyM9PHJoEioi9i+uW/M+v0n8eWIGGiqs19xjPRvj68Y1zx65SYGc9ry9SivEIcupuBK2gNBrDYT+fbiSt9vW/ahWztXtHO0octqCSEvketw8yAnD38fGsW05urk47AyMWRaEwCycgvQw9eded1X7Tt3DWF+XrzbaLHKajGupj1Ayv0s3Ml8jHmThvBu6bU+GRT5/NvTFyXA3d4K7Rxt4GFvCZGq/H3o6uto4eOBvaCpvgd/Gxz59l8gI9+NHwhbs8MYF92deW0fFzssiN+Fz4ZFM6s5pGcXRFdUQltDnVnNlIwsHL1yE1PiwpjVJK3LB/3DAQDfLt+MAC9XBLRzYfp3nBAiXPL3DukFx67cZF4zqos385piiQSr9/IfrXvi2m0EeLnwbqPZxJIapGRk4cKtexjfpwfvdlrk1RC2IukofJxt4WFvBTU5ulNIS0MdU+JCobwpGR8PjODWx/g+PdA+NR1+bo7Ma0d39cFnjGueup6GMD9Pmdc5m5KOo1du4vPhfWReixDg5bM56/adRHcfN1gaG3DsiBDCm9xOSysur8DIiECmNbccOQfDNjpMawLA9uMX8dVIvlt5ks9clatgU1tXh5v3sxG//yS+Xb4ZPi52chtsGjM2Khi+rvaYtXwLNh85h6eFJbxbajI1kSom9OmBn9ft5NrH1qMXUFBSxryum50lft28l2nNk9duy+y1K6vFOHgxBd+v2Ap/T2cKNoSb4eEBsDIxxK+b9+Li7Qze7RBCOJGfR76vOHXtDtN60/5I4HJh573sJxjIeUTqpkNn0Kszv8tKm6O2tg7nbqZj//kb+Jrxpa48zJ9cv6Lz2a9r4WJjgWDvtmhrZyn4i1Q11dUwKTYUVSsTuf05zZs0GJYm+/BBP/Zbp/oE+OJDhvVmjeuPQT2z4G5nKbXXLK2owsELN3Dqxh3Mn0xTz4hwfPRsVfi75VvQs6MHAtu35dwRIYQluQw3kppanLguuyeRjQnp4A4dTbb7eWtqarFu/ymmNV+1cvdRwVwW+jbnUu9i3/nrrXIa04IPRzz/9vw12xHRuT18XOw4dvR2uloamBwbiqqlm1o0kU4aPuwfDl8O2y3tzI2xdMchTIgJYVbzTEqaVMJNSXklDl68gdM30ijUEEGbNa4/ZgH4/s+tCPPzgr+7Ew0fIKQVkMttaZfT7mP2hOaN2n0Xs5ZtRgiHw/zJ565xXX34fet+jI4MghKH+3yaqg7148B/XLsDnT2cWmWwedW0kX3h62qP/2zcg4xHubzbeSMjPR1MjOmBLxeu59bDrpOXUFRazrwu65XgsVHdUVpR2eJfX1xega1Hz6ONtibigvwo2BC58c17/RDg5YL5a3fg/M27vNshhMiYXIabMynpTOv18HVnPp0q+2kBorv6MK35ovlrdgj+HpuUjCwsWLcTvq72mMb5TJIQ/W1wbzhYmuLP3UeRK+AzOTamRhjZK4Bb/XmThmDj4bPM69qaGeHXLfuY1jx/816zf01RaTk2HzkHPW0tuVnFJaQxM0bHopO7E35cuxPFZRW82yGEyIjcbUvLLSzGh89GQLLw1aIE+Hs4MavXYOOhM8xrNpi1bBMm9g3hcg9IUzzIycP2ExfxEcd7aeTJ2Kju+Py3dfD3cEKEvzfz7ZVN4eVog6OXUxHsw2fc+cSYEHS4dQ8dXO2Z1u3h48a03pmU9CaPlC8sLceB89e5n/kjRNpYX/xNCGFL7lZuWK/a+Hs4M3+TfzY1HX8b3JtpzQbT/liPCTEhMNTV5lL/TYrLK7Bqz3HYmRtTsGmmnz8YjoEh/pi7ahv2n78OSU0N75b+IsjbDZs5rKA02HbsAqrEEqY1PR2s8cOa7czqTRsZg4zHT9/68/advw4DXW0KNoQQQuSO3K3csA43Qd5sp6xUiyXYffoK05ovGhraFdYcLil9m5PX7yDp1GXMfX8w71bk2vzJQzAf9QdsB4f4o62tBe+WXtK/eyf8kXgAk+NCmdf+fsJAdPa4xHw7aHdvtqs3Z1PSYW9u3OiP3XzwCFuPnMN0OrsmM9P+SICqijJEKipQVVGGiooKRKoqz79PUlMLSW0NJJIaSGpqIa6p/7qmpkbQlw4TQohQyFW4uZL2AHMmshsksGrPMeYrGAcv3njpUjKW9py+Am9nWy61X6e4vAKrk08w3YrYGnzzXj+8l/P2J/g8jOkdhPxV27i8we4T4Iu8ohKm91l19XLBTIYT4y7duY/YoA5QF4mef19BSRm2Hb+IsVHBTHpQFDMWb4CJfhuY6OvCSE8Hmupq0FATQUNNDZpqImio139bQ00EXS2Nd67X8HCnvLIKFdViVFaJUVldjcpq8Uv/nV9ShtzCEjwtLOb27wkhhPAiV+HmTEoa03pN3ZsuLYWl5ejdhc8QgRVJRxDh355L7ddJvZ+NdftOMg20rcWOExdhY2rEu41GaaiJMC66O0oXJXB5Ur39xCXmwzS6tWM3inr+5CHoF5SGzh5OkNTU4MCFG4j092ZWXx7NX7MDZoZ6MNHXhYm+Lkz128BYXxc6mu8eWFpCS0MdWhpNOzv31UgxHucXIa+oBLmFJcgtLMaTwhJ8OoTP1mdCCJE1uQk3xeUVmBTLbqvKr1v2MX/zt+vkJab1Gvy4dgeGh/GbVtWY7ccvIjaoI+82FNIPa7ajT4Av7zbeyMxQD8PDAzCPQ+2xUcEIzsqBo6Ups5rd2rHd/no2NR1aGmpIPH4RM1vBZbdNNWPxBliZGMLK2ABmhnqwMNKHrZkwHwI0lZpIFbZmRn/5ffzf4DpkPy1ATn4RHuUXISs3H4+eFmLWuP6cOiWEEOmQm3BzNe0B03qspxhl5eZjZEQg05oNhocHQE0kjL8KRWXlWLn7GD4ZFMm7FYX02a9rBRdkX8fTwRrr95/C0LCuzGvvOnWZ6dAKHU11rN17AiN6dWNSr+EG99ZsxuINsDE1gp25EezMTWBhpA99HS3ebTFlaWwAS2MDvPio4/PhVXiYm4/7j/OQ+SQPD3Ke0tY2QohcEcY72ia4fOc+s1pzV22Dh4M1s3oAsOsUnyECe05fEcwAgbSHOViVfJzbbfWtQbCPu1w9iY4N6ojvVmzBrLFsnyZ/PDAC4RlZcLOzZFaTx8j51uLz39c9W4UxfraKYQxTgzYQ7vXE/Giqq8HF2hwu1ubPv+/jgaV4kFMfdO7n5CErN58ucSWECJZchJuS8kqmTxq7tXNh+o/evUe5mBTbk2HFegvidzG/Jf11zqamY9Ohs/j5g+G8W1FYP6zejqgu8nW2QkNNhOFhAZjFofbuM1eYhhsnKzPMX7OdLqSVkrkrE9HWzhJuthZwtTFnfhGzIjHQ1YaBrvbzgTM1tbUYH90DNx9k4+b9R/h8eDTnDgkh5H/k4rP9pTsZTOv5uTkyrbfr1GWm9RqM7NUNysr8n10mn71KB5pl7LNf12J4eABUVOTuais4W5th0+GzGNijM9O6nw6JQkTnh/Cwt2JWs4unM7NaimjJ9oNoa2sBFxsLmBvq8W5HYakoK8PZ2gzO1mboE+CLiX3LcPvBY6RkZOHOw8c0sp8QwpVchBuWW9KW7zoC7SZOoZGG1PvZXC6kPHDhBswE8I//hkNnMKRnF95tKDx52472qpgAX8z+cytmvtePad3ks9eYhhvWD1bk3bQ/EuDpYIWObR3gznCVjbxMT1sLndwd0cm9/u/vuOgcXLiVgavpbK9vIIQQQA7CTWFpOdPD5X5uDsxqAUASh1Wbf2/Yg54dPJjXfVFNbS1W7j6G8X16cO2jNfhh9XZECmzMd3OpiVQxLKwrZjKu++mQ3ojqks3sslNtDXWs2nMMoyPZjqKWN8t2Hoavix28HG0gUlXh3Q55haOlKRwtTTEopDOGh2fh0u0MXLv7EPMn0yWkhBDZE0y4qQOQX1SKnIIiPM4vQk7Dl4JiZj3MWLyB6VPa25mP8dkwtnuVv1gYj5GMJjK9TrVYgmW7jmBqvzCufbQWQ8O6KsQbQCcrM2w5cg79u3diWvfgxRRm4QagrWmN+ezXtXC0NIWvqz28nW2hqa7GuyXSRO52lnC3s4RYUoPBPTNw6XYGbj14hJ+mDuPdGiFEQXEJN7mFJXhSUIRHeUXIKagPMU8KivHjFL7TVzq5O0JFmd2ZhCOXU5nVahDVxQdGeuxuX39VTU0tBRuGEo9dgL25Me82pCamm2jDybkAACAASURBVC/mrtqGGaNjmdWc2i8MfZ/kwYrRVEEXa3Pmv0eh+n7FVnR2d4S/p3OrG9OsaESqKvB1sYOvix3KKqsQ6X8DZ1PTaYAGIUTqZBZuauvqkFdUgpz8F1ZiCorxpKAIP04R5hMbv7bs9rvnFpbg/b5sJ6T9sHo7grzZXhb4otq6Oqzcc4yCDSPyOB3tbVRVVNAnwBczGNfdf/4GxvRmt1WsYSpVa/T57+vgYW8Ffw9nuNlaQEmJ/9ATIl3aGuoI6eCBkA4eGBySg9Mp6bia/oDGSxNCpEIq4SYnvwhPCovxKK/w+SoM6+1W72pB/C5YmRgwq3fgwg1mtRr0DewAZY5vFDYcPKNwZ2ym/bEe6iJVqIlEUBepQkNNBElNLSqqqlFeVc31zp6hoV0UYjvaq9o72eC/m5LxMcPx8O9FBSO6oBjG+rpM6rV3an3hZt7qbfB3d0Indyfoamnwbocw4mBpCgdLU/QL9kNMt9s4df2O3L1/IIQIS5PDTU1tLXILS144C1P/dW5hiULsne3szm7VprisAhdv32NWDwD+uzGZ6XmiVyWdvoJhHG6al5ZfN++FqUEbGOvpwsxQD4ZtdJo0avb78XWorBajoqoaFVXVKK2oQlZuPjKf5OPhkzzMGBMnk34Tj52HvYWJTF5bCPoH++FjxjVPXL+D2MAOTGrZmBpi9spEzJTR3w+h+OzXtXC1tUBQ+7ZM7xQiwqOhJkKAlwsCvFwwoEcujl6+iet3M+X+7rPNR85haGhXqMrhGH5C5NVrw82lO/efB5nH+UWYNjKGZV/M+bjYM6t18vod/DyV7Sds1oewX3Q2JR3RXX241W+uLxfGw9bMGE5WpnCyMoO9uTFUVVq+AqKhJoKGmggGutoAAFebF27+HlSB1PvZuP3gEW5nPsb3UljpmbMyEVFd5Of/d0tYmRgynyp2/uZdRHf1fqe/C83hreCrNxsOnkZ3H3eYGrTh3QoRGHtzY9hHBqKwpAxB3hdxJiVNbu/OGRURiCfrkzAuujudGyOEkUbDTUVVNTq4snuzz9t/NyUz3QZxJiWNWS0AWLP3BNMtdy+69eAR/OVk+tPvW/fDr60DvJ1toSZiM2tDR1MDndwc0enZ/SajIh7j4p0MXE170OJ/zEeEByjkdrRX9WZ8nmjOxEGIC7qHjm3ZfG5UxHM33y3fgmAfN/h7ONHEM/JW+rraiOnmi0j/dojqehtHLqdi+ij5G7Tx96FRKFy6CWMiA+FkZca7HUIUHq2TAvB0sGZWK/V+Nr4dN4BZPQCI6NyOab0GRaXlWLP3BJfaTTV31TbsO3cdBSVlmBIXik7ujsyCTWOcrc0wOMQfcyYOwuU79/HLpuRm/XpF3472ImM9XSQcOM205ukbd5jVsjUzwuw/tzKrJ0vzVm/DhVv38M3Yfujh607BhjSLSFUVAV4u+Gpk3/qtaut28W6p2WZPGAhna3McuXyTdyuEKDwKNwA87Nnt9Wa9ahO//xSM9dgcgn7Vsl1HBHs79bzV23AuNR3TR/VFmJ+nILcLeDvb4sMBvfDwSV6TQuK8VdsUfjvaq3p18sLnv69jVu/DAb2QW1jCrF47Od+aNmdlIs7cSMOXI2Ja1W4AIjueDtb4+7AoXEm7j5/W7uDdTrP18HXHmr0nIKmp5d0KIQqr1YebuSsTYW6oz6RWaUUlxkZ1Z1KrQa9OXkzrNdh69Dz+PjSKS+03mbsyEedu3sVXI/vCz43dEIl3YWViiBHhASgqK0fSqcuYsXhDoz9PUS7rbA59XW10dndiWpPl6o27HbvLQ6Xpu+VbcPzqLcwYHYvOHk5cpzQSxaOE+omCnw/vg3Op6Zi7ahvvlpplVEQgftmcjKKyct6tEKKQ+O2/EQhPR3Zb0s7fZDshbcPB0zBsw/7CzpSMLK4DDBozY/EG9O7ijW7tXHm30mJttDTRu4s3wvw80cP3OsJfCK5bj56DQyvZjvaqsI6eTOtduHUPMd1kPzXtaWEJNh0+J/M60vTN0k0I9fNEsLcb71ZIK+Hn5gg/N0eEdryDvWev45ux/Xi31CSfDolC8fLNGBfdHTamRrzbIUShtPpww3I88tnUdGa1AKBnB7Zv+gCgpLwS8ftPMa/7Op/9tg5dPJzQu4sPtDQUY5+/SFUVYX6eKCgpw8ZDZ/CkoBjRXX15t8WNvq421u8/haGMRo1/N34gBvbIhJcMH4ykZeXgz6SjcjUhKvHYeUR0bg8NNRHvVkgr5O/hjI5tHdDZ4woi/eXj8uJvxw3AtwAu3s6Ar4sd73YIURitelvajMUbmE0ueZRXiC9HsBunvXL3URjpsV+1Wbf/pGDO2fwzIQn/NzgSA3p0Vphg8yJ9HS1MjAnBJ4MiBLUdraKqmnnNnh09mNY7d/OuzF774u0MLN5+UG6CzS+bkvE4rxCxgR0p2BCuVFVUENG5PZ4WlmBh4n7e7TRZB1d7JJ+5yrsNQhRGqw43bnaWzPaCX75zn0mdBiEcVm0u3c7A5NhQ5nUbs+nwWXw0IAKWxnxGYLOkoymM29xra+uw7/x1zFm5DYWlbPeSm+i3wZIdh5jVS8nIQmlFlVRfsw7AzpOX0LGtA/N7sFpi1rLNOJuSjg8H9IJZEy60JYQVIz0dTI4NxbX0B3IzcTCyizdWJB2FWCLh3Qohcq9VhxuWW9Iup7ELNwu37oeNqSGzekD90/qtxy4wrdmY6YsScC09EwO6d6IboRnKflqAf2/cg16d2mHepMHYevQ88x5CfN2Z1VrwwXBcS38g1ddck3ycyVkeadh8+CymjYxBJ3f5GMpBWicvRxt8OaIPdp68xLuVJhkX3R2/btmH4rIK3q0QItda9bs/N1s2k4ge5uYzvXgs2If9Yd6kU5cxe8JA5nVf9OPaHfj7sGiZnoUgL6uprUXymav498Y9L03HGxfdHXcePmbai5OVGRbEs7v/4kZGltRea9nOwxgdGSS115OVf2/YjazcfPTv3om2oBG5IFJVRXRXH+TkF+G3Lft4t/NWnw6Jwn82JiO3sJh3K4TIrVY7UOAf65OgpaHOpBbLLWnfLt8Mdzt29/YAQE5+EU7fYHt/z6sWxO/ClLhQZn+mpD60r99/Cp8P79Poj286dBZfjOgDFWV2z1D8PZyZ1brz8DHEEglEqi3/NCqpqcXyXYcxSSDbOV9nxuINiPT3Rrf2rqChzs1TV1eH2to61NbVoa6uDjW1daiprUVtbS1qnn2RSGqef7+qigrURKoQqapARVkJqioqEKmq/G8LtZIS/Rm0gKlBG0ztF4ZOqenYceIS94dxb/LN2H4Q12zCB/3CaMsnIS3QasNNW0arNgBwNU2621fexN/DCUqM75TYfOQcFnw4gmnNF/0rYTcmx4XSk2SGkk5dRnTAmye0TR8diy6eNxDSgd1h/45t2V0U+dOUYRjZqxvaOdq06NeLJTVYtuswpsSFSbkz6VqdfBx9AzugjZYm71YEq7C0HDn5RcgtLMbTolLkFZWgoKQMZZVVqKmtgxLqz1QBdair/wbqnn2j/qtn36+E5z+3rg5QUgKUlJSgrKQEFWVl1NbVQaSiDG1NDagoK0NNpAp1NVWoi0TQ0VSHgY42jPV1YaCrDSM9Hai9Q/BWVJ3cHOFpbwVPe3YTFlti9oSBqKvbiIkxIbA1o1HRhDRHq/3M52pjzqROTn4RZoyJY1Lrs1/XogvDJ9cAcDU9Ex/0D2da80W/b92P8dHdoSZqtX+VmXqQk4f4/acwbWTTJv8duHADXb1cmAVPTXU1rEk+jpERgUzq3biX1aJwI5bUYNG2A/hoYIQMupKO2X9uxaAQf6YPgoSqvLIKpRVVKCmvQHFZBYrLK1BQUo7C0jKUVVShoqoaFdViVFRW44fJQ7j2OmvZZmhrqEFTXR3amurQ09aEoZ4ODHV1oK2hBi0NdWiqq0FLXa3Vft7U0lDHkNAu6JyVg4RDZ/DVyL68W2rUnImDULMoARP79ICDpSnvdgiRG63yM9u0PxLgYs0m3KTez2ZSBwCcrc2hr6vNrF5tXR3Xg5q/bdmHiTE9oKoinDHIikpSU4Pdp6/i6JWbWPBB0yd5zX1/MALaXUZUF3b3Tvh7sgv4KS04d1MllmDJ9oOCDjbbj19A7y7erfJjq2HrWGlFJXLyi/DwST4yn+Qht7AEuUUl+HnqMN4tvtF34we88cdnLdsMCyM9GOvpwsSgDayMDWFhpAdNdXUwXvTnzsHSFNNGxMDH+TJ6d/Hh3U6jfpg0BD+g/nMN6y3nhMirVhlunCzZ3eTOMtx0dHNgVgsAzqSkY8ZodoMSXvSvhN0UbBjJeJSL9QdO46tRLXu6efTyTfTwcWN2HsrJygzfLt+Mb8e9+U2eNMyeMBATY542+YZxsUSCRdsO4JNBkTLurGVmLduM0ZGBcGxlT4mLyytwLzsXWU8LkJnzFI/zi1BaUdWsIC8vGgs/XyyMh1EbHThamqKtrQVszYyhp916tiFG+nsj43EuVu85jpnv9ePdTqNWJB3BmMggeDrQwBxC3qZVhhtXRtssxBIJ7mU/YVLri9/jW7z3vyUkNTXYe5bPpWML4ndhclzoOx3kJm8nltRg16nLOHHt9ju9yftxylB09bqA2EA2Y46VUH8pHiu3HjxqUrgRSyRYvP2QYIPNku0HMTw8QOGHcoglNcgrKsHD3HzcfZSLJwXFKCotR3lVNcRiCX5WwEDzNj9N+d9q1FeLEqCtoQ5TgzawNjGEjZkRTPXbwNSgDccOZc/OzBifDYuGnfkxQU4u/HnqcOC3dXgvKpjpNRaEyKNW9+7wh9Xb4W7H5hND6v1sZv9QejpYQZ3h/umzqXeZPBl/1bxV2zAlLoyGB8jYvewniD9wWmorc3FBHVFcVgFdLTYXjvq42DGpAwC3Mh8jzM/rjT9HLKnBsp1H8OGAXoy6ap7jV2+hWztX3m3ITE1tLZ4WlSDj0VPcyXyMBzlPmZ2FlDc/THr5zNAXv8fDWF8XNqZGcLQ0gb25CQx0tSFSVbxVcw01EUZFBMI9NR1bjp7/y/8L3n7+YDh+Rv0DFVbnhgmRRwobbmavTIS5oR4sjPRhZqgHc0M9WJuwvdjy1gN293ywfDNXB+DwpVRm9Rp88Xs8xvQOgpaGGvParUW1WIKdJy/h1PU7Up+Ad+zqLWZnb2xMjTB31TYm2yY/7B+OCdXVUBe9PnCvSDqCKf2ENxXt53W7MDKiG8wVdNxsbmEJLt6+h6tpmfhiROMjy8mb/dTIGaPvlm+Bh4MVvJ1t4WhhChUFuzDZz80R9hYmMNXfjf8b0pt3O3+xIukoJsf1hJ2ZMe9WCBEkuQ833y7f/EKA0Ye5oR7MjfSZrmK8TsYjNlvSvlqUwHSZOuXeQy5nbWK6dYClsQHzuq1FelYO4vefktme89M30hDZuT2UldmcWvZxtmVSBwDSHua8di/8sp3CvMdmw8EzGBTSmXcbUlVcVoGMx09x5+Fj3M16goLSMsE9fVcEs8b1B1D/wElPRwu2ZkZws7WEg4UxjPR0OXcnHcZ6uvjb4EjYW5xHv2A/3u28ZP7kIVBR3oAP+ofDwkifdzuECA7/BNBEM5duqg8uz8JLw6qMprown+KXV1bhixFNG5f7rlyszZkerD965RazWg1WJB1BYHvF3TbDU5VYjO3HL2FwT3+Z1pk9YSBiA++iY1s2gy9YBv7bmY//Em5q6+qwYtcRTIgJYdZHU3yxMB5De3aBL8NzSbJUVwfkFZfg4u0M3LyfLdgzTYroxVWdz3+Ph6lBG3jYW6GTmyP0dDQV4p6duKCOuHQ7AwkHT2P+5KG823lu7vuDoaqyGR8N7AUtgb4PIoQXwX3mmbF4A8wM9GBu9PJKDKu9+tJy71Eus1puDO+heFJQjKmMt9d8/+dWDBPwZWvy7E7mY8QfOIVZY/szqXfi2m1m4cbWzBhfLUpg8uQ+7eHLW1DrAKzbd1Jwweb7FVsxLro7rEzkfwW0rg7IeJyLE9du41p6ZqPbpwg7r47I/mntTnTxdIavqx10NOXr3+9X+bjYwdxIHzqaifhaQGe1vhs/AKoqWzGxb0/erRAiKFzDzfRFCfBytHnpbIwBw3taZCnj8VNmtdwZPqE+dSONWa0G/YI6vvE8A2m5i7czmAUbAPhkUCT6P8ljcv5NWVmJWfD/YkQMJsf9b2DCliPnMIrRRaJNtTBxP0ZHBMr9NLSi0nKcu3kXl9MeICe/SCHHNSuChjNOXy5cD2crM3RwtUd7Zxu5Hd9vbqiHT4f0hpnBQUGFiZnv9QNWJvJugxBB4RpujPR0FfaJPKsR0PPX7IC+jhaTWpKaWpxLTWdSq8Hi7QfhxXDEdWvTp5svvl6yEXMmDmJW82xKOqy7sxnu4WrDblUz7eFj+LraY+vR8xjYQ1hnWXacuIjorj5QktNbGqslEtzLzsX5W/fw4PFT5JeUUaiREz9Oqd/K9eXCeJy8cQc9O3jA2tQQbbTk7x4dTXU1jI8Jgc3pK9h//rrUh6601EwBrSYRIgRcw42ynP5D2xSsbh9neWPx9buZmPv+YGb1vlwYj8Ehsj0H0tppa6gjqqsP5jCseenOfcQF+zH5+Hdj+PFxJysHecVl6N+9E7OaTXH5zn14MxyuIE21tXW4djcTZ1LSBDmUgTTdjy/cpTN3VSI6uzvB38NZ7racKwGI8G8Pa1NDqP6RgPmTaWAFIULDdX5jHc/iMvQor5BZLUdLE2a1LqfdZ1YLAMI7tYMeo1Wp1qyrpzP+mZDErN6ciYOQ9vD/2bvvsKqurA3g7wUuvfcqRQUpFuwKigXs2BXBlsSuyWSSIWo0mRQ1GjWZ+WasiSkaRey9994Ru2IDUYr03uH7gyExxgJ6z9q3rN/z5JlJQs67VTj3rLP3XjuVJMvc2BCziZZsXI5LQEirV593Q+nzFRuRkJKukoVNaXk5zt64hwVrd6JZQ1cubNTMzFH9EdKqMeas2oboQ2eQlJ4lekh15uvujCkDg/H5io2ih8IYe47QmZuqKvUsb2iLG1uSnKKSUtyKTyLJAoB/rtiIjk0bkeVpul5tm+FjwrzLcfFkh9C5OdC8AFCmN7jzVm/HhL5dYK5iexjzCotw4+ETHL9yG+nZeWSHIDMxapasffHTJvi6OyOgcUM4WFtAVdZ0ONtY4uOhPWBiuBNTI/gcJcaUhdJ1S1MHKUTFzbzV28k2B1N3Iwpq1kgtT8BWVl71HLBo0368P6gbSd7V+4kY3Lk1tLWknzx2JypulMWiTfsxpk8n6OuqThOOiopKxMTF4/T1u/j7UG7lrGm+GjMIAPDZjxvQsWkjtPGpD1Mj1diTY25ihL8N7g4Tg4NKeVAvY5pIvY4VVhJUMzfuDjSzNgBwM4Fu1uazHzcgoIkXWR6r1ifAnyzrmwlDcZdoaZqbveac4v3bvpOY2L+ryhQ2ZeUVOHUtDnPX7EBrn/pc2Gi42eOGoFvrxlgQtRMHLlwXPZxa05PrYHy/Llh74LTooTDGILi4UdXOPa+TkplDkkP1Rrqyqgp3HiWTZAFAhyZe0JPzpCI1Vztr/GvdHrK8u4kpr/8iBXC0tsCM5etJskTad/4qRnQLIJkNe1v5RcU4ff0uvoveha0nLnG3J/Yns8cPRbfWjbFo035cf/gYZeUVoof0WloyGYYFt8P+89dED4Uxjcd7bhSsrLyc7JAvqoP44pPTSPcTdGjKszaiBDbxJMu694SmuAEARzU4tPJlIhetweDOrdHGp4HoodTKjYePcSz2Nh4mp3E7Z/ZKHwzujqlL18LLxQG92jWDvaWZ6CG9VkgrP5y6Foctxy4oTatoxjQNvx5XMKpZm8jFUXCwMifJikukm7VZuec4DPR0yfLYnzVr6IbPV2zErLGDJc9KSs9GYXEpDPWl//N2JPpZoRa5OArDQ9qjWUNX0UN5rfyiEmw7cQkjugeIHgpTIfP/10L6k8VR6OTvjZBWjZV+P2Z7v4bVS0MXR3EBz5gAyr9+QcVk5haQ5NhbmpEt63uYlEaSAwAtvNzJsthf6WhrwZ/oQXnhlAjce0Kz78bRWv2Km6lL1uLdXh2VvrApr6jAkZib+Nf6PVzYsDe2YEoEerevPnT4+JXboofzWs093fBOzw6YumSt6KEwpnG4uFGwzNx8khwna5plNpWVVUhIzSDJ+uzHDfBxcyLJYi/X2MOFLOs+UXHjYKVey9KmL4vGuL6dlf7nJTkjGyt2HMXus1fwz3cGiB4OUwPzJ4dj56nL2HzsAvKLikUP55V83Z0xNrQTpi+LFj0UxjSK0GVp6thQICuPZubGgai4SUzL+P0sAqm18HJTy+8JVePhZEu2NC3xKU3hrE4zN5/9uAHjQjujnp2V6KG8VHFpGY5evoUjMTdJW8gzzVBz/tE/V2xE5+beCGjspbRL1Ro622NS/2DoaG/A7HFDRA+HMY0gdOZGHRsKUM3cWJsZk+QkpmaS5ACAnzvdjAF7OS2ZDL7uNDMCSek0bdN1tLXx1S+bSbKkNH3ZOkzq31WpC5vLcfH48ufN6Nm2KRc2TFJfjx2Mzs198d263bgZ/0T0cF6qnp0VxvftjOnL1okeCmMagZelKVgG0Z4bS1Oa4iYpI4skZ9rStWQnybPXa1TPkSTn20nDkJadS5JlaWJEkiOVqUvXYmyfIDgSzdrWVUFRCXadiUX0oTNks72MAcCnI/oi6sBpbD8Zg9yCItHDeSEXWyuM7ROEqUt5Dw5jUhN8zo3IdGlMHxFKkkM1c5OcTlPcuNrbQEeba21l4elij8hFa0iynqTRfI9RvRCQyqjugajvZCd6GC+UlJ6FH7YfRp/2/pg/WbO7Q32yOAqRi6NED0PjzBk/FP06tMDq/aeQ+JRuxUFd1Heyw6jugaKHwZjaE3zOjch0xSspKyPJ+XzFRsh1aP7o/j60J0lOQ2flfGjTVAZ6unC2pVn6lJSRTdLxy0JFZ24iF61BRLcA+Lo7ix7KC52+fhfbT8Zo7GxN5OIo6Ml1YGFiBGcbS1iZGaMKgN+e43inZ0fJ8+et3o52vg1RVFqK1MxcJKVnIb+oGCVl5RrZhnjKwBA8XByFfoHNEdhE+c5M83V3xvlb99Hau77ooTCmtvicGwUqKCohybEypXlIyyZqjgAADZT0jbQmq+9kS5KTSnQ2lCXRz42iDQxqRdaeuy5Ky8ux/vA5XLn3SCMeoqctXQs7SzPYmJnCzsoMdhamMDc2hI62NvR05dCT60BXRwdyHW2UlJXj6v1HiCQ458TB2gKBTb2Aquo/k/KKCpSWlaOkrByT+qfiaVYucvILkZlXgOSMbGTm5mPO+KGSjkm0hVMigMVrkJqZg84tfJVuSWqrRh44HnsbHZs1Ej0UxtQSFzcKlE9U3JgaGZLkZBIWN1SzBKz2qNonZ+cXkuRQ/dwo0t6zV9DOr6HoYfxFXmExVu8/ickDQkQPRRKRi6Ogq6MNS1Nj2FmYwt7KHA5W5rCzMIOFqRG0tV69hFZfVw4Lk9d/nSIY6MqhJZMBsupcQA4Y/PHvPRz/eEmRnVeAxKeZCDgTiyfpWUjOyEZ+YbFaNn5YOGV49f+u3YXQAH94ujgIHtGfdWjqhV1nYtG7XTPRQ2FM7XBxo0AFxTTFjZG+HkkOVXEze+VW3m+jhKjaJ+cQFTeG+rokOYoSdeAUurdpInoYf3E7IQlrD57B1wStwqlNXxYND0dbNGvgCk8Xe5gZv3lBLIOMZF9peUVlrb/W3MQI5iZGaFy/ujNlRWUlElLS0ck/FnGJyXiclqV2s3CR4b2RujgKAzq2VLoXBb3aNsXag2cQHtxO9FAYUytc3CgQWXFjQFPcUJ3ZY2thSpLD6sbe0oxkWU1BUTEqK6ugpSXtk6CRHs3PjSL8uP0wwroq1wNPWXkF9l+4hpNX72DeRPXYXzNtaTRsLUzRwMkODZztUM/OCoZ6epJ/LyoLbS0teDjawsPRFiGt/JBTUIThIfG4+zgF956kYsbIfqKHqBALpkRgAYDog2cwuHNrkhm12hrapQ1yth3CxH5dRQ+FMbXBxY0CUe25oZq5ySNqqWltZkKSw+pGJpOR7FNZ+P5wTB/ZF1YSdzMzJPq5eVvfr9uNd3p1rF5qpCSqqqpw9PItnL5+V+ULm6lL18LK1BgejrbwqucAJxtLpduTIYKOtjasTI1hZWqMpg1d8TQrB0HX4nArIQlJ6VnIKyj6/fBMVTUsuB1+2H4YI7oFwkBPLno4AKrPFXu3Z0fkr92FyPDeoofDmFrg4kaBysrLSXKoihuqmSieuVFe5sY0D325+YWSFzcGenKSmai3MWvlVkzo2wU62sp12npGbj4u3nmAb1R4I/q0pdFo6GKPVo3c4evurFRv75WNDICdhRnsLMzQ3q8h8ouKEXs3Ac4b9uLDIT1ED++tjO/bBemrtmFkj0A421iKHg4AQFeug/F9u6Dwly3457sDRA+HMZUntLiRKdGbSUXQIvqw1NOleeNUWFxKkqOqLXo1gZmRweu/SAEKS6T/XpPJZDDUU959NzN/WI+J/boo5QyTtZkJhnVth5KfNuGrMYNED6fWPlkcBT8PZ/h5uKBRPQel/L1VBcYG+ghs4oXAJl4YkZOHG/FPEBuXgL8N6S56aG9kxqh+KPxxA3q0aYKAxp6ihwMAMDHUx/h+XVC8fD2+maC6LxEYUwaCz7lRs4NuiFRU1n4D6dugmrlRtrfU7A9vs6G6LkrLaGY9DZS0qcC0pdEY37eLUi/RdHewQbdWfihZFq30S9O++W0bmnu6wdvVCfaWZtCV8yIFRbE0NUaHJl7wb+iGjncTEBMXj/tPUlWuvfTscUNQviwauQVFCG7pB7mO+M8hOwtTjOkThPIla9Wygx1jVPiOr0BU81BUxQ0Vbe6UprQMiGY6iktpDsBV1pmbEd0CUM9O+duht2/siSyi7nZvYu5v29HK2wOtvD1gakgzcNvG5wAAIABJREFU66ipjA300LRBPTRtUA/3HqfCa+8J3Ix/ovSF77PmTRyGeQCiDpxG34DmZM16XsXD0RaDO7XGfNEDYUyF8VOlAlEts6uoQ+vPt6FL9CaL20ArLz2iN94lRDM3VPvV6mL7yRj4eTiLHkatdW/dGKv2nhA9jD/59/q9iLnzENOG90HXFr5c2BBr4GyHkd0DMWNkP+w/fxVzVm4VPaQ6iQhpj4XRu5BD1ETndVp5e2DT0fOih8GYyuKnSgUiK26IZm7kRA+2OlrilwOwF6Pa31VSRjRzo2TL0hZt2o8+7VXrED8dbW0M6dwG86N2Ch3H1KVrsWjTfly7n4hJ/bvC39NN7fZxqhoTQ32EtGqMvw/tgSMxN7BA8PdIXXz53iB8v243nqRniR4KAKB/x5b4z4Z9oofBmEoSWtyo2+cQVevWSqLiRleHprjRlDMlVBHV90BpWQVJDtUyu9qYs3Ir3u0VpJIP5Pq6crzbqyNm/bpFSP6CtbswOKg13usdBD8PZ95To2QM9fXQyd8H4/t2wf7z1zBj+TrRQ6qVr8cMxso9J/A4LVP0UKpbRPfuiK9+2Sx6KIypHKHFjbr1E6B6SK/LidRvg2qDZVk5zYMtqzuq9uZUPzsVlcpx05m+LBrv9QlSupmkurA2M0FESHvSB9dZv27BhVv38Y+wnmjl7aFUxSr7K1MjA4S08sOnI/tiy/ELmLp0reghvdbMUf3ww/bDSHyaIXooMDbQx5jeQZi6RPl/3xhTJrwsTYGo9o6oX3FD8wDN6o5qo78OURv18grlKKSHhwTA3tJc9DDemoejLQYGtZI8Z97q7Th74x6mj+iLlo08VHK2S5MZG+ijf4eWmDmyH9bsP4WZP6wXPaRXmjV2CJZuPYQHSU9FDwVONpYY3Km16GEwplIEL0tTrw8oqpbGVMvS5ES/njKiYo3VXQlRcaNN9L1G9WLgVTYfu6BSDQRep7mnO3acipHk2l/+vAlHY25iXGhntPGpz81HVJypkQHCg9vh3V5B+G3fSUQujhI9pJeaOyEMv+w+rhQFTitvD0QfPCN6GIypDP6kUCCqE6/LqYobov0WVA/QrO6KibqY6co1YwnkvNXbERrgL3QMiiaTAb3bNcPybYcUet3v1+3Gh4N7IMjfG5amxgq9NhNHJpOhvpMtRnQLQHhwO3yixAXO7HFD8Ovu43iUKn6JWv+OLTBbxbrQMSYKFzcKRHVeC1UraKplaTkFyntuhqajKjypzp8pLiklyXmZ4d0C1PLQWplMhqFd2mLx5gNvfa2vftmMo5dv4YNB3WBuQnOILBOjuacbZozqV70fR0n3lcwaNwTLth1Ccka20HHoyeWICG4ndAyMqQqhLWaq1KyjANXMTRHRA5o+URvgnHzlOFuA/VVmbj5JjiHR+TNFAmcJD1y4BmcbS2H5UjM3NkT/Di2Q8esW/POdAXX+7yMXR8HP3RnBLf3gZGMhwQiZMjI3NkS/wBZo2sAVTjb7kPg0AwunRIge1p/MnRAGI/2teK93EBysxO2Vc3e0xY5TMQgNaC5sDIypAt5zo0BUbXMLS0pIcsyMad6aZucXkOSwukvLziPJoToZXNQSyP9s3Ifgln5Csik5WlsgPLgdIhetqdN/9+mydejdrhlG9+zAhY0GkslkcHewwZSBIejWyk8pGw58Nro/ftt3EimZOULH0ae9v7Dzg6herDL2tgS3glavmRuqtq4FRTTFjbkRzSnf6Tk0swOs7j4d2Zckx8RAX/KMtOw8ZBDNRD3r0+XrEBHSnjxXlAZOdujXoUWtv/6X3cfw4dDu6OTvLeGomCrQ1pIhpFVjRIb3xso9x0UP5y+mDQ/Fsq2HyLpIvsyoHh2EtNX+bHR/XL6bQJ7LWF3xnhsFMiJaWlNYTDRzY2JEkpOSma12ha46SM3KJcsyJ/he237ykpDlLv0Cm8NKwzbEBzbxwq4zsa/8mmlL1+Lo5ZsID24POwszopExVWBubIjh3QJwJOYmZv64QfRw/uSrMYOw7tBZlAo8wsDWwhQ92zQVkr3n7BVUEDU1YuxNcXGjQFRLawqKaaaGzY0M67y85E3MnxSOp0TLn1jtpREVN3NWboWWxEtU41PSMTa0s6QZL7Js6yG08WlAnqsMglv64uddx1747778eROGhwQgqJk39ORCt35KpgpVqCR4aaOuL4a0tbTQyd8bo7oH4IufNokezp+806sjjsXeJvnzfZkgf2/834a95LkzR/XDmev3yHMZqwsubhRIR1sb05dJf1p3QVExKglOWtfSksHEkGZpWorgTjTsrx4RndBtaSb9rMaW4xclz3jejOXrMCy4LXmustDV0UFESHt8u2bHn/750i0H8eGQ7mhc30XQyGhUVVVh/qRwyXPUbe/q8zxdHBAZ3kvhrcbf1oEL13DpzkNh+TIAEcHt8ckS+lba+y9cRSnRMQGMvQkubhSMYvZm4fvDkUW0Cd/W0pQk596TVJIcVnt3E1NIcmzMTCS9fuzdBHwc1lPSjBfp1a4ZzIw0u5WxnlwH4cHtsGjTfnz582bsPH0Zo3t1hLkxzZJXkfR15Zj723ZJM6Yvi9aIBgzGBvoY1aMDdp+JVZqDPxdMjsDO05eFfnZZm5sgpFVj8txZY4fg6OVb5LmM1ZbQ9QDq+MbJmGjfTVZeAck6fkcrmg/OuMRkkhxWO8WlZXhMNHNjZylta9XX7f2QwqJN+xHQ2JM8Vxm52FphQMdWyMjNg5+7s1re91/EycYSA4NaIiD2NkrKFL8BXUtLC9ZmxqjvaKfwaysjfV05erRpAktTY+guX49vJgwVPSR8PWYw9FZtwz/CekKP6OiE54W09MOCqF34JKI3ae6x2FsIaOJJtteYsboQvNhZ/dYKU7VPzszNB5yk/1BztKbp6T9jZD9M6pdPsrGcvd6dR8lY+P5wkix7K+k2k5+8GofPRveX7PovE9ZF3HK0opJSpGblwMTAAFYES/5qw9HanOxeoiy0tbTg6eIATxcH0UNRGzKZDG186sPazATaKzZi1tjBooeEmaP6wcxoP8b17Ux2HMTzhgW3xSfEmd9MCEPLRhcwoGNL4mTGXk9wK2iR6dKwIHo4z8qlWZbmRHjo4I34J2RZ7NXiiJakAYCjRIfilVdUYP+Fa5Jc+1UOXboBa3Npl9q9yuZjF7Bix1H8d9N+XHuQKGwcjEmlvpMt/ja4G/61fo/ooQAA3h/UDZuP0e/rq+FsY4kdp2LIc89cv0t20DNjdcGHeCqYlSlNcZNOdEOxNTclW+PMD2LK48ZDmj+Lr3/ZAkOJljWcunaX/M3u9+v2oEtzH9LMZ52/eR+x9x5hzvih+GrMIKzZfxqnrsWpbUctprmszUzwXu8g/GfjPtFDAQDE3HmIY7G3heX3aNMEc1ZtI81cMCUCe85dJc1krDb4EE8Fo5q5SU7PIsnR1taCM9HszaT+wSgkanPNXu72o2R8NYamKHBzsJbkuuUVFTh06YYk136VwZ1akWfWSM3MwdYTfz7L59tJwxDYxAsbjpxHeQWfTcHUi6mhAcb37Yyfdh0VPRQsmBKBfeevIonos/l5Otra6F+Hw3MVJTYuHml8lANTMtwtTcEsTGjWuKdm5aKC6GGlvpMtSQ4A3Hj4mCyLvdjluHiyLHcHab63jl+5Qz5rs2b/KbjYWpFm1sgtLML6w+cwd2LYC/99WNe2WLR5P5K55TpTM3pyOUaEBGDzsQuih4K5E8Kwau9J5OQXCsn3cXMib5m98P3hQl4kMfYqXNwomCXRsrSFUyKQkplDktXA2Z4kBwDO3bpPlsX+qryiAtcJlwe6O9go/JqlZeU4TPxhO33ZOvQJ8CfNfNamoxfwtyHdX/k1Hw3tiZV7TiD2XgLRqBijoSvXQWiAP3adicXUJWuFjuXTkX2x/8I1lFdUCMkfGNQKnxC3y46Je4jcgiLSTMZehffcKJiBni4+X7GRJCs5k+YtbAMnW7KDwj4Y1A2PUmlaELO/uhn/BN9MePHbf0X77McNkpzRcezKbcwZT9smNqSlL0yJDrx93unrd/Fe76Bafe2nI/ti/aFzOH7ltlo2dGGaS0dbG73aNkVIKz9MWyq2wBnapS1OXYsTkm1tZoKAJrRt6BdMjsARPveGKRGeuZGAVN2fnvf4aSZJjo62NlztpNkb8SJHL98ky2J/Rrm8wM/dWeHXLCuvwIkrtJt656zcii4tfEkzazxMTsOW43VbjjN3YhiCmnlj/eGzqKzkCoepl+CWfhjapa3wGZzdZ64Ie1HXrVVjspesNc7euIfC4hLSTMZehhsKSMCeqLiJT04jyQGAhi50S9NG9+yIdN6gSC4uMQUfh/Uiy/N1d1L4Nc/dvI9ZY4co/Lqv0jewOWlejay8Auw4FYOFU97sPKJhwe2wdNtB/lljase/oSsGdWoltMCZPzkcaw6cRo6A5VoGerro0aYJaea8iWE4cfUOaSZjL8PL0iRAdVjdR2E9UVZOs67X103xb9lf5eDF66R5DNh/nralpxSHG1LP2izdchB+Hi6kmTUOXLyOD4f0eKtrvD+wG5ZvP4z4lHQFjYox8WQyGVp710eHpl7k+0+eNWNkXxy6dEPIDGl7v4ZYuHYXaebJq3EoKy8nzWTsRXjmRgIORDM3ABCfQjN742RjgVkrt5JkAcCluHhk5dEcVMqAB0lP8cHgV29IV6Rfdh+Drlyxp3lfufcIM0b1U+g1X0fUrM25m/dx4dYDhVzrs9H9sWzrQZy9cU8h12NMWfRu1wxt/RoKHcOZ63dxKyFJSHbPtk1J82aPG4IzfB9hSoD33EjA0Urxm6RfJj6Z7o2rf0NXsqyFUyKEnC6vqXafiSXNa1q/nsKvSb1X6+ddx+BoTfezXiOvsBh7zl7503k2b+vbSeHYfPwC1h06i+ISPmuKqQeZTIY+7Zth7cEzwsawcEoEdpyOEbIfxcfNCd+v202aefTyLd7Lx4QTWtxoqemyNG1tLcyP2kmS9TD5KUkOADSR4IH0VS7eeoAEXi4juQu3H5DO2kxdshY+Ct5v8zA5DX8f2lOh13wd6jXtQPVs9/Ert/HVmEEKv/aCyREYFtwOq/adQnoO78Nh6kFXRwcDOrbEok37hY3h0xF9sf7IOSGrVXq3o21R/8W7A3Ep7iFpJmPPE7ssTWS4xOrZ0RzmN6FfV7J++i62lqRL0xa+PxzRh7ijk5SKSkqx6/Rl0kxfdyfoyeUKveaxWNo2pL/tO0m6/LRGYlomTlyRdtPuhH5d8OOOI2TdGBmTmp5cB+/2CiKfxXjWu72CcFvA8jRPF3vywu7kVTFtsBmrIbS4Sc/OxdqDZ3Ak5iZuJSSp1R4LKQ4nfJm7j1PJslp5uZNlAcD0EaHcGlpCO0/H4qsxg0kz2/g0UOj1svML8W6v2p3zoig9WtPP2pRXVGLbiUv4dtIwybNmjOyHRZv3K2xfD2OiGerr4p2eHck32T9r+6nLyC+iX55GPcv8cVhPPE7jlyNMHKHFzTcTwhAR0h5dWvjCx80JlqbGmPnDBvx3435sOHIOJ67cwd3EFOQVFosc5htxs6crbu48onsb1L6xJ9mBngAwb/UOeNZTfFctBsSnpGNolzakmbNWboWXgv88qTfCrz1wGtbmJqSZAHD40g08IlymWbMP58TVO6hU0+YvTLNYmBhhZPdAfLp8nZD86SNCcSSG7iyxGvWd7LB060HSzDPX75LmMfYsxbYrUoBvJrz4ZPHPV2yEvaVZ9V9W5rC3NIODlTkM9HSJR1g7thammPnDepKT0u88SpY8o4aJoT5JY4FPlkShS3MfhLRsDG1t7nuhaEUlpfht30ny3PYK7lxUVVWFczfpiptPFkehB3EHIgDIzC3AyWt3sPD9NzvT5k3NmzgMllE7Ud/RVkjzBMYUzdbCFAM6tkTFkrWYPzmcPP/09buo72QHHzfFn/P1KtSd0y7fTUC/wBYK74rJWG2ozHfdrLEvXjrz5c+bYG9lDgdLc9hZmsHeygwOluZK8QNV38mOJGf6iL4Y2ycPVmbGJHlBzbwlvf6CqJ2ICGnPD1MSWrP/FP75zgDSzKlL16Kdr2KXpN2Mf4Iv31P85vqXae7pBnNjQ7I8AKisqsKuM7Hkh5PWaONTn38WmVpp1cgD6dl5mC8ge97EYbCJ3g1vV0fSs/5c7ayxdMtBTBoQTJI3d0IYQtvHoZ3gVtxMM4mvAN7Syx5sZq3cCgdLs/8VPNUzPc42lqRjc7O3Jsu6fDcBwS19SbIcrS2wePMBTBkYotDrTl2yFl1b+KJrS19oa/FsjVSOXr6FcX27kOe2buSh8JlW6jMVgvylLexf5NKdhxjVI5A8FwCWbj2o8D1SjCmDzv7eWL3vJEZ0p//ZSs7IxtX7iWjagLYDKfX96/T1u1zcMCHU9gny89H9MTa0M0IDmqNVIw+42FpBJpNh3uodeJqVSzKGhi72JDkAcOVeAlkWAHRu7qPQ632/bg8+CuuBbq0bc2EjoYdJTxX+Z1dbip7xy8wrwLjQzgq95qss33aIvENaTkERjsSIaajx9a9bEBHcHnpKMAvOmKLp6+miZ9um+OqXzeTZC6dEYNeZWOQX0e4n9nZ1xLzVO8jyIsN741FqBlkeYzU07iny05F9yU4LdraxxBc/bSTJigzvjVSiog2ovkl+v27PW19n6tK1OHDhOj4c3B32lvStdTVJ4tMMrNh5VEj2yj3HFb4J//zN+wq93ut0lHg55otcuHUf04aHkudOXxaNQUGtYGpkQJ7NGBVLU2O807Mjpi5ZS549c1Q/nBaw6T6oWSPSvDM3uLEAo6dxxQ0AxCXSbcBv6ELX6etyXDxZFgCEtPR7q//+X+v2IHJYLwS39IWWlnoe6KosUrNysXzbYXwzIYw8O3JxlMI3s1YBOH+LrriZt3oHGhF37SsqKcXxK7dJM2sEt/Qj3/DMmAj17KzQq11TRC6m6wJa4+LtB0jOyCbNbNnIA5+v2ECWdzkuHsWlZWR5jAEaWtzcf/KULEvRbW9fJYa4uPH1cMaCqJ11/u+mLY3G4Us38OGQ7rAxN5VgZOxZ6dl5WLrlAEnnvhdp6eWu8D/n+09S8cW7AxV6zVfpImAp38GL14U0EVi65SACeJ080yBBzbzRytuDPHfmqP7kLzB0tLUQ2NiLLO/bSeG4dOchWR5jgIYWN99OGoZ7RAdfUr7tnTmqH+4+TiHLkwHoVsfDDP9vw15EhvdC5+Y+pJ1iNFVKZg4Wbd5PflDns7pLcIDcpdt0H5Zf/LQJzT3dyPKA6lmbM9dpmyUAQOSiNRjSuQ30lbTFPmNS6dG6Cb7+dQt5bsydeGTk5JNmtvNriGlL6ZbixdyhffHKmEYWNwDd0jRjA318F72bJAsAzhHvQ2hS36XWv76jl2/ib4O7w9qM/gBETZSckY3Fmw8ILWz2nI1VeOvk8ooKXL2fqNBrvkpAE0/ys5YOx9zE3In0Swh7tm1G1lKeMWViamSA/h1akOfOnxyO/ReukWaaGOqjuac7Wd7fhnRHTkEhWR5jGtsGJy4xBb3a0WT5utOtXb92PxFFJaWkh5uGdWmLlMVRWDAl4oX//r+b9mNY17Zc1BBKSE3Hj9uPCFuKBgBf/bwZXVsovj35tQePX3rYr6JFLo5CW+JWyIlPM3Dx9gPSTABYve8UOhJvNlZnD5PTsPfsFclzmjSoh4DGnpLnaAI/dxcs23oIE/t3Jc2NiYtHJ39v0m6MbXzrk2UBwNV7j9ChKd9fGA2NLW4+CuuJ8X1LYKgvfRHg35BuScv8yeEIDbiNwCZ0a2qdbCzQoWkjLHjun3+6fB16t2uG9o09wQvQ6NyMf4JVe0/i20nDhI4jNMAfch3F32JiCNdve7s6wsRQnywPAC7cekB6MCkAzPp1C0Ja+UGHeIZKnRUUlWCygs8Ce5GtJy5KnqEpZLLq+9bTX7eQHnK8cEoEmnuextDObchmiV3trLEgaic+iehDknflfiIXN4yMRn+SUS1Ns7UwxYKoXSRZAHDyahxZVo0ebZpgzsqtv//9ki0HERneGwFc2JCprKzCjlMx8HV3Fl7Y/LD9MPwl2KeSX1SCsYRn27TxoX27mZ6TR94YBAD6tPeHrQU392DM0dpCkhnn17kZ/wQJqemkmZT3tw8GdUNuQRFZHtNsGl3cXH/4mCyraUO6k4g/HdkXV+8/IssDALmONoYFt8OM5etx+locJvXvCksTI9IxaLLs/EL8Z+M+9A2kXzP+vJk/rEd4cHtJrk35ff35io3k7ZD3nbtKvpRw+bbDaEJ8Ujpjysy/oSuWbT1Emjl73BCcuHKHNLNlIw/SM36on0uY5tLo4uZ2QhIqq6pIsvwbuJLk1DgSc4s0DwA8HG3x2eh+aKdEbWQLi0tFD0Fyl+8mYOHaXfgorKfooQAABgW1grGBniTXpvxwbOtTn7SjX0ZOPq7co/3wn/XrFgzr2hZa3LmQsd8Z6OkKOfvmTmIyUjJzyPIM9HTh5+FMlneFsBEM02waXdzMGT8U95/QtIS2Njch7Zr296E98CCJ7jyfGpSNDF4np6AQc1Ztw8aj51FUon5FTnWb5wNo7ukmtHHAs37ccUSS5WhAdaH6gPCMqvaERXpVVRWOXL750qYcUunWuglMjQxIMxlTBS62VghoTPuibu6EMJwgPveGcmlafNJT5BUWk+UxzaXRxQ0A3IxPIstq1Yiu9SJQ3U5Wk204fA7fTBiKIZ3bYN7qHbioJgeJFRaXYMORc3CwMscHg7qJHs7vPvtxA4Z1la4F4fUHiWQP/0u3HIQ54bLKlMwc0vbWALAgaifpOVyMqZpO/j6Yu3o7aeaVe49ICwBPFwfMfma/rJQWvj+cl6YxEhpf3Nx4QPdA0bIR7QnI40I7k29QVBYXbj3AuL5dfv/7r8cORqtGHvguejduEO61UqTi0jLsO3cV3/y2HUO7tBU9nL8YKOFyNIB2SVpL4tPKrz94jFljac8j6tLCl2dtGHsFc2NDtPambSoyZ/xQXCd8LgGAll50L16pX+IwzaTxxc3M0f3J1rga6Oki6sBpkqwa+87RHg6mDHIKCrHt5KUX/rvI8N7w83DB9+v2qMxNtqikFHvOXsGsX7egR9umSrME7VnrDp2Ff0Pp9pUVl5b9qViVWmPCdehFJaW4ci+BLA8A5qzahuYSLR9kTJ209vbAv9fvJc08e/Me8glnb5oR3gsmDwjWiL2wTCyNL24A4Cbhm/x2vrQHAk7o1wXxyWmkmaJtOHL+tQXAP4b1QtMG9TD3t+04FnsbJWVlRKOrvYTUdGw+dgFf/7oVvdo1wzcT6E+sr41lWw9haJc2kmbcePhE0us/69fdx6Enl5Pl3U5IQnpOPlle5OIo9GjThCyPMVVmbKCPIOLDbT8O64XHaZlkeXbEx1XcfZxClsU0Exc3oH1wcnOwwYKonWR5ALDn3FXSPJEu3XmIcXU4B2XGqH7o5O+NL37ajNX7T+FmPN33wotk5xXg4MXr+HbNDrjZ22BQp9aYN1E5ixoAmPvbdozu2UHynFsJdH8uzSScgXqRC7cfkp5L5GJrybM2jNWBt5sT5hN/bl++Szub24zwuIo7j2jOGGSa64XHhxvo6eJyXDxSMnOQmpmDlMwcTB8RSj02Mn8b0h3vFBSRnUTe1pe2A8vkAcHokpAELzXfPJxbUIStJ168HO11nn24/OzHDfB1d4aXiz286jnCUF+6DnCFxSW49yQVD5Ke4v6Tp4gM7y1ZlqLNWL4eY/t0gr6u9LMcVB+G05dFw9ed7mybnPxC0q6G05ZGI7ilH1keY+pAT66D3u2aIW1xFFlTk1sJT/AoNQP17KxI8vwb0r3w4OKGSe2FxQ3w17eXkeEVSMvOQ+r/Cp7UrOqiJz07D/Mnh0s+UKldvhuPjk1ppp5bebtjxvL1+GYC3d6JHacuw9PFnvTcDmobj57H7HFD3vo6z1/jX+v2wNbCFFZmxrAyNYa1mQksTY3rtBm7pKwMqZm5SM/JQ3p2HtKyc5GSmaNSxczzRvUIhLW5ieQ5j1IzFPLnWhu+7s7Q0dYmyQKqDxKmnLXxqueAhs72ZHmMqQsfNyd4ONqS5c0aOwTNj18kK26szIzx/brd+Disl+RZ/3x3AMb1zYa9pZnkWUwzvbS4eZ62lhbsLc3+8s1YWVmFj4f1QmpmNlIzc6uLnowcpOXkYv4k1Sl6zt64R1bc6MnlaOdHu/fmk4je6Nj0HloT9rSndOlOPMb06STJtV92OOb0ZdGwNDWGsf6fO4SVVVSgtKwcJWXlKCkrw6yxNA/mlI7H3iabCbyTSPeWT8qmCM8rKinF+Vv3yfIAoEMTT8h16Io3xtRJYBNPfLp8HeYS7X+8ci8Bfdr7Q0ebZgdBM8LDxuMSk7m4YZKpdXHzMlpaMthZmMLOwhR45rm5sqoKkcN6/b60rWZ5W1p2Lr5VwqJn2vBQDA/JhJONBUlehyZe+GRJFBZMpju0b/fZK2ju5Ub6ZppCflExthy/QJ47byLdG3dlciTmJjo09SLLu5NAcxbVjOXr0cjVkSQLABKfZpK8Ja3x30374U745pkxdePr4QJvV7q9MF++NwgRIclks62UL3fuPEome6HMNM9bFzcvoyWTwcbcFDbmpmjs4fKnf/ePYb3xNCsHyRnVy9tSM3Pwj2F0H/Ivc/HOAzjZtCDJMjM2JF3jCgBfjRmE1j6x6NW2KWmu1NYdOquU7ZHV0cmrdxDQ2JMsr7i0DB8M7k6S5ePmCG0tmjekVQAu3n5AklWjk7832a+PMXUkA9DGh3bVxcXbD+HhaEvys2tuYoTvoneTPI9R7jVkmkfIJ52NuQl83Z0R3NIXw0Pa4+OwnqisrER6dh6uP0jEoUs3EHXgNL5ftwfTl60jG9fF2w9RUVlJlkfdXhKofuuelJ5FniuVmLh4jK1DdzT25qgLGwCfQjSXAAAgAElEQVSIS6RrGepFOGuTlJ6Fe09SyfK+i94FP3e6s3sYU1f17Kzw7ZodZHmxdxOQQdgqvhHRcuN5E4eR3t+ZZlGa13gymQxWZsbwdXdGl+Y+CA9uh4+G9sAn4XQzOrPHDcGteJolMADgaG2B5dsOkeUBwMIpEVi9/xRpplTyi4qx+Rj9cjRNdOpaHHlhAwD3CQsAb8Li5vqDRHzx7kCSrE8WR5Gfss6YutLXlaOTvw9Z3vzJ4aSzHJRLc+MI91MyzaI0xc3LWJoa4/820J0OfIF4qUiPNvRLxKYND8WuM7HkuYrGy9FoHI+9hfZ+tO3LazxKTSfJ+ff6PTB6rjGElChbodpZmqEp4UZhxtSdf0NXfPHTJrK8Gw8fo7yigiTLw9EWM5bTrJjhmRsmFaUvbgCgaQO6w6Xe6x2E/KISsrx6dlb4edcxsrwafdr7I4HowVEKl3k5muQiF0fh3M176CBo02dZeTn+PvTFneoUrVE9ureVuQVFSMnIIcvr0MSL7AwvxjSBXEeb9LnkSXoWnhAuJ/d0oVma9o9hvVBSVk6SxTSLahQ39eluIgAQE/eQNK9768akeTWiDpwmexukSPlFxdhy4qLoYai1aUujMaZ3kNDlTI9SM8iyKPfb3Ix/grkTaVrJTl8ajQbOdiRZjGmS5p5u+OeKjSRZX7w7kHTJfCNXugO/E5/S3eeZ5lCJ4sbcxAj/2biPLO/U1ThUkaVV7735bd9JwsRqM0b2U8nlaRuPnlfLs2OUxZc/b8LkAcGka69fJD6FZmZx5g/r4WpvTZJVUVmJ2Ht0rWSbNqwHM2MjsjzGNIWrvTXcHWzI8m7FPyHLopzJTiR8icU0h0oUNwDt4VIzRvUjvZEAQM+2TRG5OIo0EwBOXrmD+OQ08tw3FXs3Ae/2ChI9DLW1ZPMB/GNYb7JTsV8lgai4aeTqCBlJElBQVIKHSXQ/b219G0Bbi+pXx5hmCWjsicjFa0iynmbnIiuvgCTLzNgQC6J2kmTxzA2TgsoUN5TrWwHgWOxt0jwrU2O09aFfArTw/eGIOnAaxaVl5Nl1VVBcgs3HeTmaVPacjcWkAcEwNqDbWP8q8Sk0RUBDwmVbiU8zMH8yzSHGs1duhYut+CKVMXXlZGsJZxuan7F5E4fhFtGBxgDQgOjg0EdPM0lymGZRmeLG1MiAtG3y5AHBeJJGex5M9zZNMGP5etJMAJg5uj9W7T1BnltXG4+cx6yxg0UPQ+3MXb0dj1IzhHTue5mE1HSypYduDrYkORWVlbhJNCMcuTgK/p6ufGgnYxIy1NNF4/our/9CBbn+4DEqKmjO4qNacvf56P4oKKZr4sQ0g0p98lGfDHw09hZpnrGBPoJb+pJm1pjQryt2nLosJLs2rtx7hHd6dRQ9DLWz+0wspg8PhYutpeih/K64tAy/7aXZg/b5ig2wszAlycrIySfbR2Skrwf/hm4kWYxpsib1XciWlD9MTkNRaSlJFuV+IqolyExzqFRx4+fhjJk/0M1sXLmXgJz8QrI8AOjYrBFmr9xKmlmjb2BzxN6l2+xcF8WlZZi+LFr0MNTGv9fvRVJ6Fnq2VZ7ZGgCoqqrCyj0n8Pk7A0jy3IlmbYDq2aipEX1IsrxdHeFgZU6SxZgmszI1hrWZCUnWvIlhSM7IJskyNTLAnFXbSLK4qQBTNJUqbrS1tNCGcF/KgskROHH1DlkeUP1rDA3wJ818lr+nm1K+RWnjUx/Th4cKORNIncxYvh7HY2/hwyHdlfLhd9eZWEzs35Usz8ORrri59ziVLMvH3YksizFNJpPJ4OvuRDZ784CwIYkH0exNYhrvu2GKpVLFDUC/NO3sjXsoK6c9ZKpJ/Xr476b9pJnPWrHzKDJy8oXlv4yZsSHe7dURtxOSMOvXLaKHo3JW7jmB6SNChR3K+TpX7z9CaEBz0kyqpRdVVcD9JzTFzeyVW2FnYUaSxRgDGnu4wEifphFLQkoaCon2qLg70twfH6nwgeJMOalccWNrYYr/Ep55M2f8UJy9cZ8sr0ZYlzbkmTVmjxuCH3ccQWExzdreuvKq54DpI0JxJOYmPic6RE2Vzf1tO+48SsaoHoFKe1L9o9QMrD14ljRz2tJospbXKRlZKCY6idvNwQbmxoYkWYyx6jNvzIwNSLJSs3LxNDuPJIuq2cqssUOQmat8L1SZ6lK54gYA2vjSzt4cibmJ8ooK0kwbc1McuHCNNPNZn47si592HRWW/zo62tro5O+Nz0b1w+FLN8hOilYls37dgrM37mFqRB94utC09XwTyRnZ+GH7YcybGEaa6+ZAc3AnANxLeopSouKmgZMddOU6JFmMsWoNnR1Icv75zgAkpdN0crWzMCV7gZialUuSwzSDShY3/g3d8PmKDWR5X7w3EMeJz70BgC7NfbEgahd5bo2/De6OX3YfR1VVlbAxvI6uXAedm/vgs9H9cfjSDXz58ybRQxJuzsqtOHHlNj4b3R9tfOpDS4kPcUzPzsPSrQcxZ/xQ8myqM2CqqqoQn5yGBUTn21B2OWKMVWtS3wWf/UjzXJJMVNwAgLMNTSfN1MwckhymGVSyuNHR1iLfe3M45ib5Mi0tLRmGBbdF5CKaE5Bf5L3eQdhw9Lyw/NqS62j/XuRcvP0Q/16/R/SQyC3ZfADX7j/CpyP7IrCJl+jhvFZ2fiGWbDlIdp7N8xyJGiqUV1Qikeiguq9+3gwLEyOSLMbYH2wsTOFqTzMbTHU/AUDWeCYtm2dumOKoZHEDAIGNPUnz5owfikOXbpBmAtVvTQKbin1QDevSFvvOXxU6htrS1tJCCy83fDikBx4mp2HV3hP4ZAlNFxsRpi9bh/WHzyElIxuTBgTDz8MFMpnyztTUyCmoLmy+eG+gsDE4WFuQ5BQWlyA7r4Akq4GzHeQ62iRZjLE/GOjKyYqbnIJC5BcVk2Q5WlMVNzT7iJhmUNnixszYEKv2niDN7BvYnOwh5Vm92zXDvNXbyXOf1aNNU5y6Fid0DHXlZm+Nkd0D8fnoATh86Ybw30NF+i56N47E3MQ/3+mPIZ1bw85Sdbpj5RQUYvGmA5g5qp/QcdgT/Z6l5+RhwZQIyXOmLlkLX24BzZgw9YiWuhaXluER0dkwVDM3T3nPDVMglS1uAPrZGwDYc45+BkNHWxuje3bA1KVrybOfFdjES8js1dsyMdRH5+Y+mDY8FAkp6dhw5BzpYbCK8l30buw9dwVPs3LwcVhPdPL3hoGeruhh1UlOQSEWbTqAmaP7Cx3Hd9G7ybKeEK2PN9TXg6cLzaZmxthfudlbY9pS6Q+bLi+vwIOkp5LnAICdhRnJGT5fjRmE4tIyyXOYZlDp4sbd0Rbzo3aSZkaEtCc7IfhZ9pbmCG1PewbIiwS39MOGI+ehvC0GXq2enRUGd2qN2eOG4FFqOo7H3sLKPSeUshHBnJVbsXrfScTceYi8wiJ8HNYT3Vs3gY25qeihvZGawuYzwYUNQPc2EgCS0mnuF9ZmxipX7DKmTuQ6OrAyNZY8Z+H7w5GQko7KSuk/ibW1tWBrQfOZk5rFTQWYYqh8v9DOzX3IM3edicXYPp3IcwObeGLFjiMYG9qZPPtZQ7u0waq9JzCye6DQcbwtF1sruNhaoUPT6r//YFAektKz8DgtC0npWUjOyCZ7EP/mt21wtrGEk40lXGws4WJnBX1dOUk2hZrmAcpQ2AB068gzcvLJXoZQFmyMsb+SyYB69lRnZ2WjrLwcegSfE1TNV9KycuFqR9ein6kvlS9uWnq5Y86qbaTr98eFdkanxBQ0cLYjy6wREdIeT37eLHQjNgCM6tEBuZsP4L1eHdXmbbGlqTEsTY3h5+Hy+z+LDC9DUnoW0nPykJmTj4zcfGTmVv/vl+8NqtV1ZyxfB309XRj+7y9zE0NYmlRnWZsZw9HGAnpy9SlknpeQmo6fdh4V1hXtRagKgcy8AmQQHU7nSNQggTH2YjKZDJ4uDpi2NBrfThomadbs8UPxyfBCkuLGnmrfDTcVYAqi8sUNAHRt4YuZxJlbT1xEZHhv4lTAQE8Xo3oE4gvy5L96f2AICtbswLjQzmrbflZPrgN3B5sXnh3yxbtVKC4tQ2lZOUrLylFSVo7S8nJoa2nBQE8Xhvq6MNLXEzBq5RETF48WXu6ih/EX9pZ07U3njJO+qJv5w3qy7m+MsZdr4GQLPV2aR6u07DyYGhpInmNnQdN8JY2bCjAFUek9NzXa+NTHrJVbSTM/ieiDMzfukWbWcHOwwdHLN4VkP2/a8FD834a9SHxK07lF2ejrymFqZABrcxM42VjA3cEG9eysYGNuovGFzZ6zV5SysAEAUyPpHwgAuoPp6tlZwVJNXzAwpkpMDA1gYUzzs0hVDFiaEv16eOaGKYhaFDdA9ewNtX3nrgrr7hHUzBs/7zomJPt5X40ZjCVbDuLq/Ueih8KUQElZOX7ZfRy92jUTPZQXomwJ/pRog6yDlTmMDTS7mGZMWVAte03PyUd5RaXkOVQrMzLzaJbwMvWnNsVN60Ye+OrnzaSZX40ZhIMXr5NmPisipD1mE89Yvcy8icPw296TOCDw94OJl5Sehe/W7sJ7vYNED+WlqD6oq6qqUFxaTpLlYGWhEoe3MqYJrM1NSHJSM7NRVFIqeY6Bni6mL5O+xfXcCWEoKeN20OztqU1xo62tha4t6WdvQgOak20Yfp6eXAdj+gSR3HRqY+H7w9GtVWOs3n8K5RUVoofDiJ28GgcnG0vhZ9i8DkWrVgAoKi0j+6C2taB5mGKMvZ61uQnJ2TCP0zKRX1QseQ4AsiMIcgtofj1MvalNcQMAeYVFQnJ3nLosJBeo3hg9PKS9sPwXGdk9EIs2HUBmXoHooTACJWXlWLnnBDo09RI9lFqxICpu0rJyUVomfZE/dclamBoZSp7DGKsdSxMjkrNhvnxvENlzD9WMd25BIUkOU29qU9w8TE5Dz7Zi1vi/26sjEp9mCskGAD8PFxyJUY4GAzU+CuuJ+Wt24vT1u6KHwiSU+DQD363dhXd6dRQ9lFqj2nifnV+IsnLpl6UZ6OlCrqMteQ5jrHaMDfRhRtS0JK+QZqaDqqlAboGYl9RMvahFcVNSVoY1+08Jy5+3ejvZIVcv08nfG9GHzggdw/O+nTQMAY09sXTrIb5hqZmqqiocvHgD/920X+mXoT3PguhDOjM3H1+PHSx5jpWZMXS01eJWzphasDAxgrUZzVLR/KISkhyql0I5/KzAFEAtPhE3HDmPz98ZICx/dM+O0FaCh4uwLm2xbNsh0cP4i8kDgjE/aicu3HogeihMAXIKCrFk6yGEtPLDgskRoodTZ5YmNMvSsoiWZdqYm0Jbi2duGFMmVE0FCoj23FgQ3Tf5RShTBPFP5G/p0p2HGNk9UFj+8djbsLekOeCqNkb36IAFUbtED+Mv5owfitY+9bF8+2Fk5/OaWlV14fYDLFy7G+8PDBE9lDdmYqhPkkPxff7J4ihYmxlDixulMaZUqGZu8oiKG6r7Zq6gvdNMvah0cZOdX4hNxy4Iy1+27ZDSbaLW15VjYv8upGd51MXEfl2xIKp6L06V6MGwWnualYtFmw+gtXd9zB43RPRw3tjnKzaQ5FRWVpF0UZRpyWBtbgItLZW+lTOmdqiWcRUQLUujOpSaZ26YIqjsJ2JVVRVW7T2BuRPChOR/9uMGjOgWICT7dYwN9DGpfzBm/bpF9FBe6JsJYQho7In/W78Xj9PENWJgr1dSVoatJy5hYfQufDCom+jhvDWqD+jKqkqajb5VdMvsGGO1Z2JkgE+Xr5M8h+ogcUMubpgKUdni5sDF6/hwSA9h+REh7ckelN6EqZEBJvUPxhc/bRQ9lJf6KKwnXGytEH3wDE9FK6EzN+5hzqrtGNCxpUrurXkRqp/ZiopKFBMcrldVVUX20MEYqz19uRxmBC3aS8vKUVFZKXmOob6u5BkAzXJepv50RA/gTTxKzUD31k2E5W88eh7ero7C8mvLyswYkwaEoLJqA2aNVd6lROEh7TF9WTS6tvBDh6Ze0JOr5Lel2oi9m4A9565gxsh+ooeicEYGNOvGqdbBL5gSgSqsgYmBAQz0dVFVpbjFnhUVlSgpK0dAY0908vfmdtNKqn+HliQ5x2NvoUPTRiRZFHaevoxzN+/D1NAAVQpeJF1RUYmcgiJ8O2mYQq/7wqzKSpSVV0BbV/p31Z+v2IhZEneA/HbSMHwracIfqH52qDSu7yJ6CEpD5Z4iS8vKsWrvCWH581ZvR7/A5sLy68rOwhRTBoRAS7YJX40ZJHo4LzVv4jDMQ/XNs7O/NwKbeEKuo3LfnirtzqNk7Dl7BR+F9RQ9FMlQvX0sLi0j21O2cMpwSa//+YqNaOTqABdbK0lzGKN0M/6JSu8frFFeUYGy8nLo68olzzIiun8y9rZUblna5mMXhLZ9Htk9EDraqvUG087SDO8PCsHXSroH51mzxg5Glxa+mL1yG45evoWSMukPQdR0cYkpWLzlIBq5Oqp1YQNU70ejUFEh/TIRKiWlZWTr+hmjQnXIptQqKitRVELz86nMS/EZe5ZKFTdX7yciPKS9sPwjMTfhaG0hLP9tWJuZ4IOBIZizapvoodTK12MHo3NzH8z6dQu2n4whOzNEU1RVVSH2bgL+tX4PvOo5qHRr57ow1KN581iuRsUNY0x5lZVX4mlWLkkW7+9jqkJl1v3k5Bdi/eGzwvKXbj2ITv7ewvIVwdzECH8b3A1y7R2YOjxU9HBqZc74ob///593HUPHZo1Q39FW4IhUW2lZOWLvJuDQpRuYMUr99tS8DsXSDQAoK+cZR8aY9CoqKsga8nBxw1SFyhQ3q/ef+tODLqXPftyA8OB2QrIVzdhAH+8P6gZD/f14X8Va+77XOwgAsHDtLrTza4jW3h4qt0RQlDuPkhET9xBX7iWSbHLVdMVlvIyLMSa9YsJlo9zsh6kKlfhOPXzphtAH8bAubUlaOlIx0NPFlIEhsDxwChEhynlWz6tEhvcGAMz8YT1aeXugvZ8nbMxpToNWJUnpWYiJi0dMXDy+eHeg6OFolLLyCtFDYIxpgAVTIhB0+jJJFtXMN2NvS+mLmydpWdh7/qqw/HWHzsLPw1lYvpTCg9vD+vw1dGvdWPRQ3sizM3nz1+yAr4cLGns4a3RXp9yCIly68xAxcfG/F4HsD1QdzMrLK7BwinqcDcQYU275RcWoqgJkMmlzeOaGqQql/k4tK69u+yzqAMFvVm3DgI4thGRTCWnlh5i4eDT3dBM9lLfy7B6ir37ZDF83J/h5uMCrnoPAUdHILyrGrfgkXLrzEJMGBIsejlKT+LP/d+UEh+oxxhgAFBaXSl7YAIAez9wwFaHUxc2WE5eEbnoe0T1AI85a8W/oiviUNPyy67hSn4VTW88uwZq+bB08XezRtEE9NHS2h4khTStgKZWUleP+k1TEJabg/pNUnqGpA8qZG8YYo1BcWoaqqirIJK5weFkaUxVK++R+/UEiwrq0FZZ/6OJ1jVre5GpnjY+G9oCZ8W58HNZL9HAUZt7EsD///eodaOBkCw8nOzRwslP6YqeopBRJ6VlIycxBckY2ktKz8OGQHqKHxV6Dz4VhjFEpKSsDxby0npyLG6YalLK4yS0swrrD54TlL9p8AF1a+ArLF8XM2BDvDwyB1Z4TGN2zg+jhSGL6iD+3wP7ip02wsTCFtZkxbMxNYWdhCktTYzhYmZOOq6SsHCkZ2UjJzEZKZk71XxnZ+PI91Z9J00R8+CxjjEpJaTnJzI2erlI+MjL2F0r5nRp14DRmjxsiJHvmD+sxXOBBoaLJdXQwqkcgHC9cQ0gr1Ww0UBevWoY369ctsDGvLnzMjA2hJ9eBrlwOPbkO9HSr/1euo1P993Id6Mp1YPC/QyILi0tRWl6OsvJylJZV/1VQXIqC4mLkF5Ugv6gY+YXV/z8tOxefvzOA6peslD5dvg5zJ4S9/gvfEtWem8rKSkQuXoOFU4YTJTLGNFVpWTkqq6qgJfEdjmdumKpQuuLm6OVbmNRf3KboIZ3bwNxYfdo+v6ngln64Ff8E0YfO4Ksxg0UPRwhNLzio7Dt3FYb6uphLkFXKe2EYY2qmorISFDsKtbWoXg8x9na0RA/gWSmZ2dh9NlZYftSB02jaoJ6wfGXTyNURUyP64KedR0UPhamhb1Ztw6PUdHRr3RjaRIexVlTQFDdaWlp03QsYYxpNJpOhiuB+U1bBXSCZalCa4qa8ogIr94hr+zzr1y0YFNRKSLYyM9TXw3u9g3Dx9gPM/GG96OEwNbH+8FlEhvf6vWmHjhbNrYiqRbNcRxsL3+claYwx6WlrySTfbwNUP6cxpgqUZlnatpMxmD6ir7D8kd0DocsHVL1UCy931He0hZP1AUweGCJ6OExFffHTRoR1bQdvV8c//XMdbZripoLozaMO0UwUY4zpynVI9hNS3T8Ze1tKMXNzKyEJgzu1Fpa/79xVuNpbC8tXFeYmRpg0IBgXbt3HP1dsFD0cpmJ+3H4YkeG9/1LYAP9bxkWgnKy40ULk4iiSLMaYZpPr6IDiFE+euWGqQvhURV5hMaIPnhE6hozcPKH5qqZlIw/4uDmjkespRIQEiB4OU3LTl61DaIA/2vs1fOnXkM3cVBLtuZHJsHCKmCW2jDHNIteWuk9atQqiZb2MvS3hMzdRB0/j67Fiu3FFhARg9f5TqKTYkacmDPV1ER7cHg+T0zBv9Q7Rw2FKKHLRGkQdOI2Zo/q+srABAG01m7lhjDEq+nq6FBM3KCvn+ydTDUKLmwu3HmBiv64ih/C7kd0DsfbAadHDUDlu9taYNrwPDl28junLokUPhymJ79ftwfuDuyE8uB2MDfRf+/U6OlTd0mg+nPX/d94RY4xJTa6tTdJQgGrmm7G3JbS48fNwxvfrdoscwp+M6B6I1ftPiR6GSurSwhfTR4Ri5Z4ToofCBPrip404f/M+PhraA652td/HZqBLUwxQdUvT15UjcvEakizGmGbTleuQdJ7nmW+mKoQWNwZ6upjUPxjfRStPgTOyeyB+3XOCl6i9ATMjQ4zqEYi7iSm8VE3DTF2yFttOXMKnI/uilbdHnf97A32a4qaopJQkR19XjoVTuBU0Y0x6+rpyUBx0Q3X/ZOxtCd9zo68rx6T+XfH9uj2ih/K7d3t1RBQvUXtjDZztMG14H5y4cgdf/LRJ9HCYxJZvO4TI8N7oG9gcenL5G13DkGgZV2FxCUmOkb4ed0tjjJHQ1tYiWZZGdf9k7G0JL26AmhmcrjyDo2YCm3jis9H9cepaHL7+dYvo4TAFily0Bj/vOoYHT1Ixvm8X2JibvNX1qpdxSV8MFBTRfDjr68oBkoUi0pPraENXR3hjTcYUKp/oXkBB/w1fKtWVOv2eMfWmNJ9Y+rpyTB4QDETvxj+G9RI9HADVMzjYfRyjegRCi6IViRrS0dZCe7+GaONTH8Et7+LQpRv4fHR/0cNib2ja0mi08HJH5+besDZ7u4LmeRSzNwVEbx6rD9Wju2dELo6CtpaWQu9TFZWVmD85HJ4uDrAyM1bYdRlTBqZGBgCA6cuiFf6zWl5RgQVEreBnLF8HQ6JlvVT3T8beltIUNwAXOOpMW0sL7XwboI13fXRrdQ+HY27i0xF9RQ+L1dLnKzYiwK8hOjT1gqG+niQZFPtu5owfilljKyVfwqGvKwdVbXPj4WPUd7KDXEdbod3gZDIZ5k4YSnbAqrrx83BGFc/8K61xoZ0xprISFRWVqFLwLKuujg4+ieiD/2zch9njhij02s+T6+jA0pTm5QPFsrSpS9bi20nDJM9h6k2pihvgjwJHtm4PPg7rKXo4AKoLHO29JzCye6Dooag8LS0ZWnvXR2vv+ujROh4HL17HJxF9RA+LvcQ3q7ahU3MftPRyh1zids1GetIUTc8rKC6FsYG0WTraWpBrS9/eeuqStbA0NYKevPpWrkXUUpsxdaAlk0n2M2NsoEeyrF1XrgN7SzPJcwCamRtjw9cfHcDY6yjlKzllbDIwqkcHrNrLbY4VqVlDV0SG98aNh4/xn437RA+HPePHHUdw/UEiPh3ZF+18G0he2ACAiRHNhxrFB7RMJiM560YmkyE7v0jyHMZY3eQVFuOb8UMlz9HXlcPMyFDyHIBmz6JJLc5FY+x1lLK4Af4ocJSpycDonh3x086jqKzkpQaK5OPmhA8GdcPTrBxsPxnDHdYE+ea3bTh48TpyC4owtk8n+Lo7k+abGhqQ5BQWFUueIZPJSD6kKyorkZKRLXkOY6xusvIKSHIM9XShrS39o1wVqpf1Ss2EZ26YAihtcQP8sUTtX0o0gzM2tDNW7eMZHCnYmJsiNMAfX743EFfvP8KKHUdED0kjRB04jbuJKfh0RF90beEr7MPFzJjm7WMeRXEDwMxY+mJt4ZQIpGTmoILocFLGWO1k5dMUNwZEbfRz8wtJckyIXnIx9aZ0e26ep68rx8T+XVGpVE0GglCx4wje7RUELS1uMiCFxh4uaOzhgmFFxbh67xGu3H+EB0+eknWgUXf/WrcHrX3qo7mn2//aFotHVVRl5kr/0CGTyWBlqthuci+TmpmNsvIKaOsq9bsqxjRKDlExYCTx/sEambn5JDlS74dkmkHpixtAObuojQ3tDHCBIzkjfT2082uIdn4NUVBcggEd47jQeQOfLImCu4MtfNyc0NjDmay7Tl1QrRun+pC2tTDFzB/WS76UIyM3H+UVFQCUo0hljAG5BTR74ajumxlE901elsYUQSWKG4ALHPbnQqewuBThIfG4nZCEO4+S8dWYQaKHp3Q++3EDGtVzgI+7M7xdHZVmhuZlas6dkBpVcWNuYkjSiGHW2CH4aCjNr4kx9nrFpWVke26MJGrN/zyKGW8AMOZlaUwBVKa4AZSzTfTY0M7Q2nWs+jwcRsZQXxf+DV3h39AVAPBe73TcfpSEuMQUfDCom57iqIoAACAASURBVODRiTP3t+3wcXOCj5sTGjjbiR5OnZDN3BA9dNhbmkNXh+YWm1tQBAsTI5IsxtirpWbmICOH5oWDKVGXSaqXQjxzwxRBpYob4I8ualrr9+DvQ5WjwHmvdxDABY5Q9eysUM/OCt1aNcb7VVW49yQVD5Ke4mFSGuJT0jFvYpjoIUriPxv2wc3BGvXsrOFqbw1zok35UjDU18X0ZdGYN1HaA9ymDQ/F1AjpOx6aGRmQbfZ9mp0LV3trkizG2KulZeeRvESZumQtTKhmvIleClF1zWTqTeWKG+CPJgOyDXvx4ZAeoocDgAscZdPAyQ4NnP6YuZjYvwsSUzORlJ6Fx2mZSrO0sS5mrdwKVzsruNnbwNXeGvXsrEQPSeGszWg24ecWFkn+ISqTyWCoT1PcJKdzO2jGlEVqVg4WEuwJtbU0g4EuzT2GaibK1sKUJIepN5UsbgBATy7HhH5dACUrcCp3HMH/t3ffUVFe29/AvzBD70WadBRFAQUL9o6995KusSZvsm5QUzSJMZYkJvf+7rVGTbGA2LFg7L03RJpK70jvZdr7h8EQYwGZOeeZmf1ZK0uTKPurtNnPOWefmSP78Y5CnuFmbws3+7+ebP9rigIZjwuRmV+MwtJyFJZWoKSiEiUVVfj6PX7nd7759QCszIxhZWYCa3NTWJgaw8bcFE62VlqxXN/Ckk1zU1xWyeQJIauJaTmFJSivqtGKjxFChC67oJhJnRYWZsympX357jiV11j+2wGV1yDaQW2bG+CvBkdnz3H8v0lDeMcB8OQMjs6Rc09WcoigudjZwMXun6sfX72rQEFpOUorq1FRVYOqmlpU1tShsqYWVTU1qKyuRa1EijqpFHUSGSQyGaRSKSRSGVbOebL9bemWPdDX04OBnvjPf/Sg//TnYujr6cHIQB+WpkawNjeFpamxICeYsWbDaOWmsKyCyTYuW0s279PsgmIUlVVQc0MIZ3K5nOkqB4uBAvklZSqvAQC2jB5uEc2n1s0N8KTBmT1mAOS7/8DHk4WxgjNzZD9II05j5sh+EOnS3RPqyNbC7LW2SLG4wVmT2VqwaQZyCtls47I0ZXPI/5tZEzEs5hGduyGEs7ziMlTW1DKp1bKFFZM62Yy2vdrQAz6iJBrxyttAT4y5YwfiP7v/4B3lqTljBmLrkXOCvjk8p7AEP+6KxPHr0X/ek0EIX6zO3OQw2jZiZWaCJZv3MKmV8biQSR1CyIul5xWiTiJVeZ2QdaFwsrFUeR0AyClk8/WS1dd/ovk0orkBqMFpCgWA81EJ+M+ePxAybQSGduuA1TuPIDopnXc0ouWYNTeFpUzqWJgYMXu6ymo1ihDyfAoAydmP8f38aSqvZWSgz2xSGrOVG2puiJJoTHMD/NXg/HfPcd5RnpozZiB+PXqed4ynKqprsPnQGfQL8MH38/76Arz07bHo0MoNGw+exuNiNvtrCXlWeXUNkzpfvjsO1bV1Kq9jbGgAO0s203+KyiqZjWslhPyTQq5A5uMiJrVc7KyhJ1L9JcEAkMvowQmrbclE82lUcwM8aXBmjxkgqBWc90cPwM+HznBfwUlIz8H3oUcxZ8zAF/6aeeMGYc2uo4i4dAe1EgnDdESblVVVY9fpa/g/hp+32Qy+YeuJRXCyZbNyU1NXx+yFFSHkn4rKK7BoxkiV1wlZFwp3xxbQ0dFReS2JVIov3h6r8joAYGdlwaQO0Xwa19wA9Ss4A/B/e4TT4MwZMxC/Rl7gUlsqk+HAhVvwcXPC8lkTX/nrf5g/HWN7d8Kq7YdwJeYRg4REW9VKpDhx4z5WbT+MaYO6Y80HM5jVZvU00oXRfUTfzZuGpKw8JrUIIf+Unsfm3JueWAQPxxZMamXlszlv8/Uv+yAWaeRLUsKBxn4kPRkTLawzOO+P6o+fD52BVMZuBSensARrdkVifN8uTf69y2ZORE8/b6zYFoGb8cmQK1R/qzvRDhKpDGfvxGHFtoMYEuSP1XOnMM/Aah+5naU5Pt8UzqRWUvZj7ivEhGgjiVSGhxk5TGoZ6ImZrQizWOEGAEdGwxGIdtDY5gb46wyO0FZwthw5y2Q62YV7CXCytcJnb4xu1ttZ8vZYdG3nhe9Dj+BeIg0dIM1zJeYRVm6PwIBO7bF81iRuOVit3IhEusxeiOQVlaK0sppJLULIX4rLK5GU9ZhJLXMTIxgb6DOpxWpQiXMLayZ1iHbQ6OYGeNLgCG0FZ97YQdh8+JzKVnAqqmuwKeIM+nb0Uerb/eyN0ejY2g0/hR9DfFq2Ut820WxyhQI34pKwYlsEevp54+v3JvCOhMz8IiarHLo6OvB0skPI2p0qr7VmwXTamkYIB5mPi7CE0dkUB2t2qxxpuQVM6rB6AES0g8Y3N4AwV3DmjxukkhWc+LRs/BB6FHPHvnhoQHN9MnU42rm3xH/3HsejzFyV1SGa4V5iOn4IPYKg9q2YffNvjO/nT2O2n9yrpR3EYjaTje4nZaCmjoaBEMJSUja7hwqsVjlqJVJ8MnU4k1q0ckOUSSuaG0DzV3Dqhwa0c2+JbxoxNEAZPpo0FN4ujvjv3uOITclkUpOoB5lcjhtxSfhu52F0bO2GT5u5NVJVUnLYbCNxc2gBQ30220iSsx8jv4TGuRPCSq1EymyYwNLNe5jdncVq1ebTjbtga0l33BDl0ZrmBhDmRZ/zxw3C5sNnm9Xg5BWXvfbQAGX4aNJQ+Hq6YE3YUdx5mEqDB7SYRCrDxXsPsHL7IQS1byXYpqZeSg6bb94GemI4M3pBsmL2ZCTQtlFCmEnMzEVhaQWTWs52NnBgdPg+NTefSR1atSHKplXNDaB5Dc7Few/w7/DIZg8NUIaF00eiUxsPrN5xGFdjHjGdCkf4qqmT4NStGHz7+0H06dgWX74zjnekRknJZrNyAwCeTnbMaj3KpHM3hLASlZiOVYwmPnq1tGM2TCA1h01zw2olimgPrWtuAM1ocOqHBvTp2BbfzZum4nRN88VbY9DDzxsrth3EubvxdBmoBiuvqsHRq1FY/ttBBHfxY7YlUlm+mTURhWVsnri62tvgq637mNTKKypl9sKEEG0mlcmZrpT6uLdkUkehUCAtl81Wu5a0ckOUTMw7AC/1DY7Onj/w0aShvOMAeNLg6Bw4hZkj+0HvJYePH2bkIPTkFSybKewXkvUTsT7dGA4/T2cEerujrZsT51SkuSRSGeJSs3D7QQpmjuzHO06zpeUWwMbcVOV1WliZw97aXOV1AKCqthaxqVlwZ3TRHyHaKjEzF9++z2ak/YptEbA2NWZSK7eoFCvnTGZSi7alEWXT2uYG+GvIgGL3H/h4sjAanHnjBkFx4BRmPafBkcnkOHT5DrezNa+r4QWNX23diw6t3BDo7Q43B1uOqUhTyOUKPMzIwd1HqYhJzsTKOewv3VSV1Jx8BHq7q7yOubERnFvYqLwOAKxZMAM22w9hWLcO0NXRYVKTEG0jlclw60EKs3p+ni4wZLQlLYXRyu/nm8LhYG3BpBbRHlrd3AB/reBAQA3O/HGDINt7HHPGDHza4OQVl2HbsQtYNGMU53TN03C1acW2CAS0dkNgGw/YW7F5ok0aTwEgLScfdx6mIjopXfArha+L5fkUNwc2zQ0AfPbmaMwYXAAXO3Y1CdEmRWWVeJCew6RWyLpQdGjlyqQW8GRFigUPxxbQoQcwRMm0vrkBnjQ488YOhHj/SXwwPph3HADAhxOHQLT/JGaN6odrsUno07Et70hK98VbY57+fE3YUfh7ucLX0xmOjCbBkOdLyclHTHIGopMyBHUvjap8+sYozBlTCUsG2z08neyxdMseLJ/FZhvL9bgktLS1hq4uvXggRNmik9KZbUkzMzZketHlwww2zY1nS3smdYh2oebmT/p6Yrw/sh+w7wQ+mDCYdxwAwPzxwcjdslftDmm/jpBpI57+fOW2CPh5ucDXw5nODDCSkJaNmJRMxCRnaOwKzcvEp2ahu29rldcxNTKAr4eLyuvUu/0gBb38vJmNjiVEm7BatQEANwdbiEVsZkClZD/Gitlsztt40Pd4ogLU3DSgryfG7NEDoNh7HB9OHMI7DgBoRWPzrM8brOh8/cs++Ho4w9fTBa2c7SHS1coBf0pXJ5EiIT0b95MyEJ+WzewbmVAlpOcwaW4AoGNrVyxcF4ofFkxXea3Vc6ciuEssNTeEKNn95AxkFxQzqbVofRjaubGZkgYA8Yymvy1cHwo3ezp7S5SPmptn6IlFmD16AHQEtIKjzeonrgHA55t2o42rI7xa2sGrpR0crOkFW1Ok5xUiOfsxEjNz8f7oAbzjCAqr/eXAk/tuTI0MmdW7+zAVQe28YGJowKwmIZruZnwys8EqthZmTFc4EhitSLk7tKAts0QlqLl5DiGu4BD8YyzlV1v3wtPJ/s9mx54mrjSgUCiQmV+EpKzHSMrKQ0pOvtavzrzMyjlT8O7wvmjlrPr932KRCK1dHFRep15ecRnuPkpDLz9vZjUJ0WSFpRVIymJ3AbCjrSVsLc2Y1KqsqcUnU4czqeXpRFvSiGroKBQKBe8QQlUnkWLzkXOCGTJAXu7LLXsxZ8wApocuhSguNQs7TlzGKg0a18zCkSt3MaJ7Rya1YlIyEXbqKlYyajj/s/uYYO7zIkTd7T9/ExP6dWVW73pcErr6eDKpdTM+GV3beTGp9SA9G94ujkxqEe1CBxheon7IwP/2neAdhTTCN7MmIuMxmxuVhSwlJ58am9fA8pZxT0c7piuNmY+LmN1bQYgmKyqrZHq3zXc7D8PX05lZvYR0dl8H3Rxo5YaoBjU3r6CvJ8ac0QPwv73HeUchjZBbVMo7Ane5hSW8I6ilkGkjUFJeyaSWsaE+OrfxYFILANZ8MANn78SBFuoJaZ6bCclMHx519fGCMaOLO2VyORLS2Jy3Wbv/JAz06GQEUQ1qbhpBTyzCnDEDqcFRA3nU3CCvuIx3BLV1+2Eqs1qtXRywcH0os3rxadnIzC9iVo8QTVNQWo6oR+y+RizesAsdW7sxqxebkvWPs62q0s7NiUkdop2ouWkkanDUg7av3Mhk8r9djkqaJupRGrNalqbG8Pdid+P4mgXTceZ2HGRyObOahGiS+0kZ+PSN0czquTnYMrlcuB7Lr38+7tTcENWh5qYJqMERvq/eHY9aiZR3DG5yimhLWnOETBuBgpJyJrXEIhG6t2dzt069hPRspmeLCNEU1bV1uHAvgVm9RevDEMBw1UYilSE+LYtJrWW/7qerHIhKUXPTRNTgCF+OFp850faVK2W4w3BrmrujLb757QCzeqvnTsWFew+Y1SNEU5y4ef9v966pWgtLMwR4uzOrF5OcgdVzpzKp5evBbkAC0U7U3LwGanCETZvP3Wjzn11Z7jDcUy/S1WX6dBYA5o8bhNiUTKY1CVFnBaXluBqTyLRmaxcHpgfu7zLdktaSWS2inai5eU3U4AiXNq9eUHPTfJ+9MZrp6l/nNh74aus+ZvUA4OjVKDp7Q0gjnboVg+/msVnVAIBPN+5CIMNVm1qJBA/S2UxJW7QhDN7O7C4xJtqJmptmqG9w1u8/yTtKs4WevIxPN+7iHUMpHhdr7wv8PA35sy/dshc7jl/iVp/lU0wHG0u0Y/wkc/GMUbiXmM60JiHqKDopA1GP2H6utHV1gj3De7DuJabj+/nTmNTydnaASEQvPYlq0UdYM+mJRZg1qr/aNjjf7TyM7IJiTBvUA0veHovDl++ofZOjrSs3EqkMn7+p3pPSlmzegzO3Y7HkrTGYMbgnHqbnMF/VAIDbCewu6QOALj6ezD/vzt6JQzGje30IUUcyuRyX7z9kumoDAF3aekJfzG5L2s34ZGa1WD/IIdpJR0G3uimFRCrDpojT+HDiEN5RGm3/+ZsY3TPwH09RKmtqce5uPC7ff6i2N93X1Em07oKwrPwiONvZ8I7xWr7auhf9Atqhp5839MSiv/2/yppa7DxxBXPGDGCaKS41Cz6M7mKQymQIO3kVbw3rzaRevRM37yO4sy/TmoSoi8v3H+LgxdtYs2A6s5rf/n6Q6Tj/gtJytLA0Z1IrZO1OfDNrIowYXUpKtBet3CjJky1qA7B23wneUV7pyy17kZCWjXF9Oj93edjE0AAjunfEF2+NwaFLd/D5pt0cUjZPrhaORM4tUr/LO5f9sh/no+LxxVtj0S/A5x+NDfDk43H26P64EBXPNNvN+CRmtcQiEbr4eDKrV+/K/YdIzytkXpcQoSuvqsEf16OZNjYh60LRp0NbZvUA4Fosu0EJrZwdqLEhTFBzo0R6YjFmjxb2FrVNEWcQMm0E2rg6vvLXmhgaYFTPAHz93nhci03Ej7siGSRUjsdq+EK/udTprNGGA6dwLzEdX747Dn06tH1uU/Os3h3a4n4Su73vbw/rg4rqGmb1PFva4dvfDzKrBwBfvzcBBy7cAi3gE/IXuVyBs3fi8O37k5jWtbMyRw8/tndf3WK4Bbdja3aXFhPtRs2NkumJxZg1qr/gpqgt3hCGC1HxmD26P8yMDZv0e/XEIgS188K/pgxDWm4Bwk5eweINwj6Xo50rN8JubpZs3oODF28jv7gMc8cOhL+XS5PfRjsPZyzZvEcF6Z6P5Td+fbEYgzr7ImTtTmY1AeDjyUNxMZruviGkXmJWLi7dZ/s5EbJuJwZ2ag+RLruXZdFJGVg2k83dPQvXhcLfi5obwoZ2HUpgpH6KmvjAKcwbN4h3HKzafghvDe0FJ1urZr8tV3sbuNp3x+henTA0KA5XYh4x3R/cWNo4Elmof+b/7D6G7r6tEejtDrHo1Ss0L6Oro8P0XphrcYnoF+DDrF5XH0+m20TqnboZA1c7G7g7tmBemxAhqZVIEXntHn6Yz247GgC42ts2akeFMt2IY/e1prULbUkj7NBAARWSyuTYfPgs5nNscPadu4HRvQKb/aLyZR5l5uJqTCJiUzKZjZN8leW/HcCSt8fyjsGMTCaHuBFbu1j5fFM4Ar3d0cPPG442lkp926k5+fBwslPq23yZ5OzH8GD4ov9abCL2nb/JdK8/AGw9cg4zBvfUukEchDR04MItjO/bhXnde4npr7Wa/brKq2rwza/7seaDGUzq3YhL4nKukGgn2pamQmKRLuaNHYgNB04xr710yx7EpmRifN8uKm1sAKC1swPeGtoLX747Didv3sc3vx1Qab3GWPrOONRJpLxjMCOU+21+CD2KS9EP8PV74zGhX1elNzYA4O7YAssZfoxdZ7ySEujtDq+W7Jq3ejNH9sOFqATmdQkRityiUlyPYzdIpN6PuyLh6+nMtOaVmIfMGhsAzP98RLvRIzoGZo7sBzDcorYp4jSmDerR5LM1zWViaIBBnX0xqLMvJvXLQtSjNEQlpjO/I6BeblEpXO3VczRyU/HckrZk8x50auOBQG93Zn/fgW08mNQBgGnBPTCsohIWJsZM6unridE/oB2TWs86dSsG/q1cYG/F7gJBQoRAJpcj4uJt5t+vQtaFYkhXP+jq6DCrKZHKcPn+I2b1th45R1vSCFO0csOAnliEmSP7MVnBeTI0YADzxuZZbd2cMHVQd3wzcwJuJaRgU8QZ5hmEegZFFXgME9hx/BJiUzKxfNZEjO3diWkjGejN7twNAFyIYnu42NPJDv/lMJTk+/nTsO/cTZRXsZsSR4gQXL7/EHPHDmRe17mFNdp7sF3VuB6XhOWzJjKrF+jtzqwWIQA1N8zoiUWYO3YgNhxUTYOzesdhZOUXoTfjGfmvoq8nRqc27pg9uj/Kq6px7m48sy1FQtmqxQKrP+uasKO4FpuImjoJZgzuye22aQdrS/wQepRZvcv3H6K6to5ZPT2xCMOCOiBkXSizmvUWjA/G+agE0GlMoi3uJabjyJW7zOsu3rALfTqy/559juGdYUu37EVHhkNgCAGouWFu1sj+WK/kFZy9Z6/jk6nDlDINTZVMjQzRt2NbdGnL5lCh0EcjKxOrP2u/AB8EtfMSxKHzbu1bMav13bypuBLDbhsHALRytufWPF6KfoBohncKEcJLUVkFdp2+ynw6GgC4OdiiPePP8dsPUrGU4bCdTgy3EBNSj5obxsQiXbw/SjkNzpLNexCflo0J/bqqfGiAMtlbs9nPry3NjUwmx2dvjGZSy4HR+64xOrf1wOINYczqXbz3ADKZnFk9AOjbsS2+3LKXaU3gSTN35MpdlFRUMa9NCCtVNbXYfvwyVs9lfy40ZO1ODOnqB33GD4pO3brPtF5PxpeSEgJQc8OFMhqcdftPYtH0kWjLeC6+MjjYsHmBvPTtsajVgolpLLffOVgrf/rZ6zLU10NAa3Z7uZfNnIAbCcnM6gFPzt50bsvnyeeSt8di54nLkEg1/3OIaB+ZXI7Tt2Px8eShXOr3DWgHT4Yj7QEgPi0bnzJ6EAYA/9t3ArYWZszqEVKPmhtOxCJdzHrNIQNn78Rh/rhB3IcGvC6WL5Afa8G5m7ziMiZ1Vm6PgEgkrC8Z3X3ZPhU8f5fdXvV6gzr7Ytmv+5nXBYAPJgzGqVuxXGoTokpX7j/ChXtsB4XUW/7bAQzp6su87pnbbD+XWW4dJqQhYb1S0TJ6YhFmNWEFZ9WOQ8guKGZ6Y7qqfLfzMJM62rA1La+ohEkdIY4HdrW3wZowdoMFPntzNG49SGFWDwCMDPQxuIsf05oNXbiXwOXuD0JUKbeohPlFuQCwaH0Ygrv4QU/MdjtaYmYePpgwmFm9TzeGo2MrGiRA+KDmhrPGblHbfeY6QqYOV8mliDyweqGsDeOgc4vYrNywOivVVKxXb07djIFcznaUWOe2nvj294NMa9ZbPXcqTt68j9xCNk00ISz4erpg5fYI5nV93J0Q1M6Led3Ia1FM63Vp6wGxwFb6ifagjzwBEIt0MW/sQGyMOP2P/7dk8x7cT8rApP7qNTTgVVidu9GG5obVn1FIwwQaCvR2x2ebwpnV++zN0bjJ+OyNWKSLyQOC8MXPu5nWrbf0nXE4cPE2l9qEqIKPmxPeG9EXP4QeYVbzi593Y0hXf2b16iWkZeOjSWzPFrF+6ERIQ9TcCMjMEf3+toJTPzTA15PtBV8s0MqNcshkchSWljOpJdTmxlBfD0Ht2O7tPnkrhvnktNbODujl34ZpzYbmjxuEXaevasWQDqId7K0s8P8mDcGu01eZ1Avu4stl90XktXtM663ff1JjdpkQ9aSjUNBVbUIilcnwa+QFtHZ20IizNS+SW1QCRxs29/I8zMiBro4Ok1qslVRUoTOje4PqJFLoiYW5elhSUQUrMxOmNS/ff4gejJ9OllZW4Zej5/GvKcOZ1m0o9OQVjOvTGYb6etwyEKJMMrkcF+89QOTVKPygonM4q7Yfwr+mDoM+47M2McmZ8PNyYVozLjULPm5OTGsS0hD/m/jI34hFIrw/qj/vGCrXwsIcC9eFquwbSUPeLuo3LltoVm6LEGxjAwCWpsbYceIy3hjck1nNUzdj0KWtJ9O/FwsTYwwN6oB/Mav4T9ODe+D3YxfwxuBe0NXVzIcGRLuIdHXRL8AHFqbGEG3cpfR7bz7duAtjendi3tgoFArmZ21W7ziMttTYEM5oWxrhQiTShQ3Nv1cbQh0m0NCAwHZM63313nhciXnEtCbw5KzAnjPXmddt6O1hfRB26grXDIQoW0BrNywYH6z0czid2nhwWcmIepSGxTNGMa3ZL8AH9MiD8EbNDeFGqGc4yD+pQ3PjaGOJjQf/OZRDlU7fjkFNnYRpTQAY0aMj1u47wbxuQ28M6YXIq1Ggnc1Ekzi3sMbbw/pgy+GzSnl7P4Yd5bLFXCaXMz9r89XWfejchs+lw4Q0RM0N4UYdXjCTJ9SlEWX9ImL5rEk4dSuGaU3gyd03Q7r6Y+nmPcxrNzSiRwCOXY/mmoEQZWthaYYZg3si/PQ1LFwX2qy3Nbx7R9hy2KVwKfoBlrw9lmnNXv7egrvomWgn+igk3KjLC2aiPu+rNq6O+HFXJNOao3oGoqi8kmlNAGjlbI/eHdoyr/usEd074tClO7xjEKJUhvp6mDwgCCN7BmDR+rDXehuR16K4nD+pqqnFyZtsH7os3rALPXy9mdYk5EWouSHc0MqN+nCwVp+xnsFdfJnXjLzK9tBuvb4BbblvTwOAMb074fDlu5DJ2Y7HJkTV+nRoi1kj++Grrfua9Pu2HjmHoRzutAGAEzfvY8XsyUxrBrXzgrGhPtOahLwINTeEGztL82Yv+RPVW7EtQq22Gvh6ujC9mA8A3hzSC1n5RUxrAoC+WIz3RvTDqu2HmNd+1uhegTh8+S7oBA7RNK1dHDB7dH+s3tG4z7MfQo9gZI8A6HC4gqCgtBxX7rMddLJwXSj6Mx7oQsjLqM8rFqJxaGKaelCXLWn1dAAEd/FjXvfAhVvMawKAkYEeJvXvii9+3s2lfkPj+nTGvnM3eMcgROmcbK3w/yYOwaaIMy/9dSHrdmJM706wszJnlOzvDl++y+SKhYa6tW8FS1NjpjUJeRlqbghXtDVN+NTxfeTfyhWrGvmUVVk+nDgE0UnpTGvW82ppj7G9O3Gp/axJ/YOw+8x11EmkvKMQolRGBvp4b0QfHLly94XncEb2CERrZwfGyZ5Iyn6M90b0ZVpz0YYwLg+TCHkZam4IV45q+MJZ26jTeZt6OgCX/e6HL9+FRCpjXhcAAr09EHHxNpfaz5oysBv2nLuBWmpwiIYRi0QY3q0DRvToiC+37P3b/9tw8DR6+/M7VH+Qw+pxD19vmBkbMq9LyMtQc0O4UsdVAW1jb81ne0VzdeCwerPk7bHM75aop6urg+HdO+KncLbT4l7kjcE9EXryCuqk1OAQzaKjo4M+HdpiysBuWLEtAgCwdt8JvDG4B3R1+bysOnUrBiHTRjCtuXjDLgR3bs+0JiGNQc0N4YqaG+FzVMOVG+DJCxAeqzeX7iUgPa+QeV0AEIt0MW1g9yZP5a85qAAAIABJREFUdlKV90b0xfoDp5DJYdgCIarWzr0lPhgfjIhLt/HmkF4wNeKzglFQWo6THO7b6uXvDWNDA+Z1CXkVHQVdL004ksnk+GxTOPMDkKRxVmyLwOdvjuYdo1l+Cj+GT6YOZ1pz1Y5DWDRtJHR12U9LAoB7ienYefIyfpgvjM+r5b8dwIDAdujWvjW3vxPWZHI5LkU/REFpOfTEIqW+bYVCAYlUBld7G7R3d4aJkXa8wJQrFEjMzINUJkMbV0eIOK2SPKtOIoW+nphLbQWA/+09jo8mDWVa97NN4Vjy1hhqbogg8flsJORPTyammfKOQV7AntPEH2Ua3r0jPmFc87M3RiOwdTQGd+Vz0LZDK1fU1NXhBy7V/2npO+NQti4U2YUlGNkjAIb6erwjqVxCWg76BfiovM6BC7cEM0xClWrqJDh7Jw7noxIgFuliWLcO6OknjEsjeTU2AHDp3gPmjQ0A9OnQhhobIljCeOxBtJq9mm570gYONur/vmnr6oh1+08yr3vqdgxyi0qZ160X1K6VoMYy/7BgOib1D8L/9p1AVn4x7zgqZ6Anxqcbd6m8TnVtncpr8FZUVoFNEacxvHtHfDdvKlbMnozDl+/iYUYO72hcFZdXIvIa+wuEv9q6l+61IYJGzQ3hTt3uUdEmmnImamSPAOY1f5g/HWGnrnC91HJUz0BsPXKOY4J/WjR9JLYePYdbCSnQ6F3R2rH7TqXkCgVuxCfjx12R+HjysL/9v+/mTcVvkReRX1LGKR1/oSevYPXcqczrDg3qAAM9zV99JeqLmhvCnaa8gNZE9laa8b5xtbfBL0fPM6/7rynDcZrDQd96emIRRvYIwI+7hDFBrd5X747HnrPXEHk1CuVVNbzjEAGqrZPg2LV7CGrnhZVzpjz316yaOwW7z1xHWVU143T8Xb7/EB9MGMy87vehRxDUvhXzuoQ0BTU3hDtauREuTXrfDOvGfnIaAAR38UNaXgGX2gBgZ2WOaYO64/NN4dwyPM/386djZM9AbDh4CinZj3nHIQKSXVCMtftPNmrF9YMJg3Hgwi3IZHIGyYQhr6gUvfzbcKk9oW8XWpQkgkfNDeHOztIcC9eF8o5BnrHi94NKn/LEk4O1JQ5cuMml9vY/LqFWIuFSGwAcbSwxc2Q/fPv7QW4ZXmTxjFFYf/A0jl6JQrkWPoEnf5HKZDh6NQpr951s0p0tMcmZ3O6XYk0qk+HXYxe41P4t8gI8ney41CakKai5IdzRxDRh0sTtgsO6dcDXv7C/A2bpO+MQfvoa87oNeTrZYWzvTlixTXgNzpoF0zGyZwC2/XEJcalZvOMQxhQAsgqKseXIOZy7G49Vc5+/De1F1iyYjsv3H+LOw1TVBBSQiIu38dkb7MfzL1ofhjG9ApnXJeR1UHNDBEETX0irO02YlPYsAz09jOnFZ2zu28P64NaDFC6167X3cMak/t2w5OfdXHO8yAcTBuP3Yxdx5MpdyOTas81Im9VKpDh1MwZr953AvLGDsOY17zz7bt5U7D13A5mPNffC2Pi0bEzsH8Sldt8AH1iamXCpTUhTUXNDBEGTznZoCk19n3Rs7YYNB09xqb3//E0UllVwqV2vtbM9Zo3qj2W/7uea40W+nz8No3oG4j97jiMhPZt3HKJCDzNysXJ7BAZ39VPK1K9Vc6Zg1+lrKOL8OaYKpRVVCD15hUvtr3/Zh0Gd2nOpTcjroOaGCALddSM8dhoyKe15JvbryqXuqjlTsOP4JS61G3JzsMWk/kFYuS2Cd5QXCpk6HDuOX0b4mWvIKSzhHYcoUXpeIXafuY7fjl3ANzMnKvVtL5w+ArvPXIemTRnfceIyvn1/Epfa4/p04XpRKSFNRc0NEQR7K3PeEcgznDRwW1o9Wwsz/MHpAPLHk4fhwIVbXGo35OPmhHF9OuOrrezPIDXWitmTMXVgd6w/cArno+JRU8dvKANpvqqaWkRei8KWI+cwZWA3rHrBiOfmmjduEPafv6ExDc7Rq1Fcxj4DwNYj5+Dv5cKlNiGvi5obIgj2VhY0MU1AVvx+ECKRZn95GNjZFys4rVyM79sF0UnpXGo31NbNCe8M740vBHoGp963709Cv4B2WL3jMM7cjoVUJuMdiTRBdW0djt+IxnehRzCiewCWz1Luas3zTOwfhEv3H6i8jqrFp2VzuYQYAD7fFI5JnM74ENIctM5IBEEk0sWIHgEYdD2adxQCwNpc8w+OikW6mNw/CF9wqh926iocbSzRwpLvqqW7QwvMGNwTBr8ewJfvjuOa5VWWzZwAAPhpVyR6+nvD38sVhvp0U7pQlVRUIT41C2fuxGHJ22OZ1z9xPRoWJkbw93JlXlsZisoqsJ3jNtaRPQJgZmzIrT4hr4uaGyIYfTu25R2BaJlWzvbYeeIyZgzuybz26rlTYW12GB9PHgo9Md8vxT5uThjTOxDSrXuVfgZCFf41dTgWrgvF3YepGBLkDzd7W+jo0NWCQiGTy3EtNhHXYhObdF+Nsn07ezJMth+CvZWF2k3klMrk+DXygsq27r3K/+35A919W3OpTUhzafa+E0IIeYWxvTthyeY9XGovmjEKYaf43n9Tz9/LFW8M7onPN4XzjtIoPyyYjrljB8HD0Q7/3n0MUYlpkMs15JCFmqqVSHH8ejSW/bIfvfzbcG1s6n325miEn7mmdqPF91+4ye3vb9GGMEwf1INLbUKUgZobQohWMzY04LanHQDeHtYbV2IecavfUGtnB8wbOwj/t+cP3lGa5JOpI7DzxGWs2XUUkVejkFNYAoWmnCZXAzmFJTh+Ixrfhx7B0G4dsJzTVK8X+WjSUBy4cEttPibuPkzFlAHduNUf1NkXtpZm3OoT0ly0LY0QovWC2nnhf/tO4ENOE4l6+nnjUUYuWjnbc6nfkLOdNd4Z1gf2p65i6qDuvOM02poFM57+/NvfD8KrpR26tPWCu6MtRLr0HE+ZFAoFqmrrkPm4CDEpmUhIy+ZypqYpJvUPwoWoBPTu0IZ3lJdKzS1AYBsPbvXXhB1FcGdfbvUJUQZqbgghBMDk/kH4kGP9XyMv4MOJgwVxeaq5iRGmDOwG3TPXMJnjE+TX1fCF9ubDZ9HTzxttXByhq0vncpqruLwSN+OTcetBCr54awzvOE1y5MpdmJsYoUMrYQ4YyC8pw5bDZ7lm4HH+kBBlo+aGEEIA2FmZ41L0A/Ty5/Nkd+WcyTDUP4CPJw8VzISiSf2DcD4qHkevROH7+dN4x3kt74/qDwD45rcDaO3sAF+PlvBsaQ9jA33OydRHblEp4lOzEJ2UgeyCYrX9WPh+/jRYbT8ED8cWMDcx4h3nb8qrarDp0FmsmD2ZW4bTt2MF8XCFkOai5oYQQv7U088bmyLOYM6YAVzqf/nuOBgbHsWC8cGCGXHcp0NbmBoZwmDLHiyfJayzFE3x5TtPxlx/tjEcLazM4e1sD/9WrrA2N4WJoQHndMJSUydBSXklMvKLEJOcieyCYsFvO2uMkHU7YWdlDiOBNbZ1Eik2RZzBUo5/x/8OP4b+AT7c6hOiTNTcEEJIA9ODeyB7614s4zQSOWTaCBjtP4k5YwYI5qxIoLc7nGytYGFyVBATsJpj1dy/Rusu3hCGlrbWaO/pjPYeLdHCwgy6Avk7Z02hAIrKK/AoIxexKZlIzMrD6rlTecdSKg9HO4zo0RF6YhHvKE/JFQr8EnkeC6fz+7xavGEX3hzSi8apE41BzQ0hhDRgamSA6cE9sIxjhgXjg2F+/BLeEND+dwdrCywYHwxXNT2H8zzfzfv79qqvtu6Do60lXO1s4OZgCw/HFoJ7yq9MFdU1SMstQFpuAWJTslBQWq62W85eZuH6UAR39kP/QB+IRcJpbAAg/PRVzBs7iGuG0b0CYWNhyjUDIcpEzQ0hhDzD28URBy/extjenbhleHNIL5icv4lxfTpzy/AsQ309jO3dGRfvJeCP69FczweowrKZEwAAIetCYaAnhrGhAazNTOBqbwNbCzPYWJjByswYhgb6rzyzo1AoIGNw745+I1chSiqqUFxeifySMuQWliIzvwilFVWoqKnFSg17Pzb07/BjCO7ii3buLQW3MhFx6Q6mB/N9gLH+wCn0oMs6iYbRUajL4HdCCGHsx12R3LdhHb1yF8O7d+Sa4XkepOdg77kbGnEWo7EWbQiDq50NbCxMYWlqAiszY1ibm8La3BRGBvoQ6epCrKuLqto6xKZkMrnh/bfIC3h7WG8AQJ1UijqJDDKZDFW1dSgur0RhaQXyikvxuLgMj4vLnjZw2mD78UsY3q0DrM2Ftypx7No97p/XSzbvQci04bAwMeaagxBlo+aGEEJeoKi8Ej+GRWLlHL5Ptk/cuI/gLsK7e6Kqtg77zt3AW0N7847C3cJ1oTA1NoS5iRFMDA0gkcqwYHywyut+uWUv2rg6orKmFoWlFSirqsaqOVNe/Rs13KXoB+jp5807xnOduhWD4C5+XDOErN2J2aMHoLWLA9cchKgCNTeEEPISsSmZ8PV04R0DZ+/EoZ8ApxlJpDLcepCCM7djtWoVhwjTT7siEdzFVxCfs89z8V4C+nTk/3n8x7V7GBLkzzsGISpBzQ0hhLzC/vM3MaFfV94xBP00OqewBMevR+PdEX15RyFa6POfd6NfRx90a+8FM2Nh3WFT70rMI0F8/m6MOI3ZowdAWCeQCFEeam4IIaQRfgo/hk+mDucdA9diHyGoXSveMV7o7N14HL8eje/madYYYSJcy37dj/eG94WznTXvKC90PS4R3drzP7j/zW8HEDJ1uEZPASSEpqURQkgjvDO8Dwo37eZ+/mbv2RsAINgGp3+AD3zcHNGh1RVMD+7BOw7RYMt+3Y9e/m3QvX0rQb9Yvx6X+PTzlqdF68Mwa2Q/Qf9dEaIMtHJDCCGNFJOcAT8vV94xAACX7z8U9AhXqUyGhPQcHL58F5+/OZp3HKJBFq4Pg5+nM4YG+aOFpTnvOC8llK1oAHAtNhFB7bx4xyBE5ai5IYSQJjhx475gDuJevJeAXv5teMd4qeraOhy9GoVbCcn/uDSTkKZa/tsBDOvWAZ3aePCO8kpCGR4AAOFnrmFy/yDeMQhhgpobQghpot+OXcC7w4VxcF7IQwYaysovwtGrUZgzZiDvKEQNLVwfhv4BPugX4KMW26rO3Y1H/8B2vGMAAP679zjmjxsEka4u7yiEMEHNDSGENJFEKsP/7TmOhdP5XvBZT6hjop8lkcpw+0EKLkU/wMLpI3nHIWpg0fowuDnYYkhXf3i2tFOLCV9CamxW7TiEjyYOUYuGkBBloeaGEEJeQ0l5Jf69+w98M2si7ygAgOPXozG4K9+LARuruLwSF6Mf4HL0A3w/fzrvOESgVu84jP4BPujQ2g0Geuox/0hI21aXbN6DjycNhY2FKe8ohDBFzQ0hhLym9LxCrNt/Et/PF8ZZku3HL2HaoO5qs/0kp7AEx67fQ3xKFtZ8MIN3HCIQy38/iODOvujq4wkdHXVYqwFkcjnCTl3Fm0N68Y4CAFi8IQzzxg6Cm4Mt7yiEMEfNDSGENMPdh6kIFNDh5g0HTuGd4X1gqK/HO0qjSGUyZDwuwpk7cUjMzMXquXQ/jrZaveMwevl7I9DbXa22UVXX1uGXyAv4YHww7yhP3X2Yio6t3XjHIIQLam4IIaSZzt6Jw4BO7XnHeGr1jkOYM3oALM1MeEdpNJlcjvi0bFyLTcSDtGxaydEiX/+yD7382yDA2x3WavQxCwCFZRX4OeIMPn9rDO8oT524cR/BXXx5xyCEG2puCCFECQ5cuIXxfbvwjvHU0i17MWtkP7ja2/CO0mR3Hqbi1K0YLJ4xincUokIL14eicxsPjOwZCGM1Wqmpl5pbgK1HzuHb9yfxjvJU6MnLmDaILs8l2o2aG0IIUZLtxy/hraG9ecd46tONuzAjuAd8PV14R3ktuYUlOHkrBvFp2Vg1ZwrvOERJVu84jK7tvNDb3xtikYh3nNdy91EaAr3decf4m82HzmDWqP68YxDCHTU3hBCiJHK5AhsOnsIHEwbzjvJUyNqdGNCpPYYG+avN4eyGJFIZ0vIKcDM+GbEpmVgxezLvSOQ1LNm8B062Vgho7YbWzg5qO8FLrlDg6JW7GN2rE+8of/NTeCQWjAuGvppMlSNElai5IYQQJaqVSLB230mETBPGHTj1NkacxltDeqnVQe1nZRcU41pcIu4+TBPUViDyYst/OwBfTxd08fFES1sr3nGapbKmFr8fu4gFAhocAACrth/ChxMHw8TQgHcUQgSBmhtCCFGyqpo6rNt/AosEdmbk298P4t3hfeCk5i8ya+okSM5+jLsPU/EoMw/LZk7gHYk0sOyX/Wjv6YyA1m5ws7eFSKQeo8lfJiu/GFuOnMXX7wnrY+3rX/bho4lD1Gp4CCGqRs0NIYSoQEV1LTYcOCm4BmfxhjBMHdhdI8bEyuVyFJRW4FFmLm4lJKOgtIJWdDj5cstetGxhhbZuTmjr6gQbC1O1uW/pVa7GPMLBS7fx/Txh3GdV7/NNu/HhxGA4WFvyjkKIoFBzQwghKlJRXYO1+0/iszdG847yD/vP38S4Pp15x1CamjoJUnMLkJCWjcSsPDwuLsMPArlcVZOt3BaB9p7O8PN0gYdjC95xlEoqk2Hf+ZuYOrA77yjP9SgzF61a2vOOQYjgUHNDCCEqVF5Vg3X7T+KzN4XX4PwUHom3hvRW28PdL1NYWo77yZmITkpHxuMirFkwnXckjRCybiecbKzg6+UCfy8X2FtZ8I6kEjmFJdh+/JJgx5HHJGegvYcz7xiECBI1N4QQomJlVdVYu+8kvhDQRX/1PtsUjrG9O6GrjxfvKCpRUydBWWU1Mh4XIjW3ADmFJcgvLsM3sybyjqY2vvh5NxxtLOHpZAc/TxfYWprBUF+PdyyVuXjvAY5evYvvBLYNDQAWrQ/DO8P7wMfNiXcUQgSLmhtCCGGgtLIK6/efEtRN5g39GnkeUwd21+gXrQBQVlmN7MISpOcWIONxIbIKilFZXYvvaQvbU4s2hEFPJIKZsSFaOTvAx80JbVwcNWIwwMtU1dRi+/HLmDt2IO8oz7VofRhmjuwHbxcH3lEIETRqbgghhJHyqhqs3XdCsA3O8t8OYMbgnhp3duJlZDI5cotK8CAjF7HJmcgqKMZ386byjsVUyLpQmBkbwtHGEm4OtvB0soOTrRWM1XhseFM9yszFzhNXBDt5b/GGMLw3ghobQhqDmhtCCGGovKoGGw+eEtwUtYaOXo3C8G4deMdgTiKVQSKVorSyGomZecgrLkVhaTmKy6sEeWbqdSzaEAZHa0vYWJjCydYKzi2sYW9tAX2xGPp6IohEIqjfVa+vTyKVIvJaNMb2FtalnA0t3rALs0b2QytnGh5ASGNQc0MIIYxV1tRiw4FTWDh9JO8oL7RyWwQmDQjS6mlMCoUCxeVVKK+qRnlVNUorq1FSUYWisgqUVVajqrYOtXUS1NRJIJHKIFcouA0u+HTjLoh0dSEW6cJATw/6emIY6uvB0EAfZkYGsDA1gYWJEazNTWBlZgIzYyON34L4Kg/ScxB+5hq+enc87ygv9OnGXZgzZiDcHWx5RyFEbVBzQwghHFTX1mHDwdP4ZOpw3lFeaueJyxjTuxPdfv4ccoUCVTV1yCsqRVZ+EfKKS1FUVoHKmidNT51UCplMDqlcDplM/vRcT8janQCANR/MeGWNkHWhgEKBNR/MwOINu6CvJ4a+WPS0eTExMoS1uQmszUxhY2EKG3NTmBsbwchAH7q62rQG03hlldU4ePEW3h7Wh3eUl/p8UzjeHz2AGhtCmoiaG0II4aS6tg6bD5/FR5OG8o7yUks278HIHh0R1K4V7yiCJ5PLoVAooFA8WfmRy+WQ/fnvOnjSENVKJJDJ5KiTSlEredIASaQySGQyiHR1oS8WwUBfDwZ6YpgaGUKkqwu5QgGxSBe6urrQ1QF0dHQA6EBHBxpzWSYLF+8l4I/r97FyzmTeUV7q61/2Yc6YAXRBJyGvgZobQgjhSCKVYdsfFzFrVH/eUV5p7b4TmNg/CPZW5ryjENIkWflFCD9zXfArpQCwavshzB07EJamxryjEKKWqLkhhBDOFAoFwk5dxYzBPXlHeaWF60PRvX1rDOnqD2ND7ZmmRdRTWVU1Iq9E4faDlEZtA+TtP7uP4f1RA+hzi5BmoOaGEEIE4o/r9zCsW0feMRplyeY9CO7ii55+3rQtigiOVCbD2TvxOHs3DqvmTOEdp1E2RpzGzBF9IRaJeEchRK1Rc0MIIQJyIz4Je85cV4unzACwaschjO4ZiHbuLXlHIQQKAHcepCLyWhS+fGcc7ziNtvPEZUwd1B26OjQEgpDmouaGEEIEJjYlEztPXlGbJ84AsPHgaYzuFQhHGzoATfhIzS1AxMVb+HjyMN5RmuSP6/cwpKs/7xiEaAxqbgghRIByi0qw5fA5LFWjp88ha3eiQ2s3DA3yh62FGe84REvkFJYg8mqUWgzlaOizTeF4Y3BPWvUkRMmouSGEEIGqqqnF5sPn8PFkYY+KftbCdaHo1MYDQ7r6wdLMhHccoqHyS8oQefUeYpIz1GYbZ72V2yMwa2Q/tLCkyYOEKBs1N4QQImAymRzhZ66pxSS1Zy1aH4agdl4Y1MUX5sZGvOMQDVFUVoFj16MR9SgNaxZM5x2nybYeOYfpwT1gqK/HOwohGomaG0IIUQNn78RhQKf2vGO8toiLt9Ev0IeaHPLaCssqcOZ2HCYPCOId5bWdvHkfgzr78o5BiEaj5oYQQtTEo4xc7Dx5GctmTuQd5bUs2hCGTm08MCCwHZ3JIY2WU1iCU7diEJ2UoZYrNQDwxc+78eaQXmjj6sg7CiEaj5obQghRI+VVNfj92AV8OHEI7yivLWRdKPw8XTCwU3u0bGHFOw4RqMTMPJy5E4c5YwbwjtIsa8KO4t3hfWBtbso7CiFagZobQghRM3KFApFXo3D+brzaHaR+1qaI0xjQqT1atbTnHYUIgAJAbHIGztyJw0eT1GuQxvPsOn0VE/p2hVhEF90Swgo1N4QQoqYS0rKx48RlrJg9mXeUZlsTdhTd2rdCpzYedNBaC1VU1+B6XBJuxCXh87fG8I7TbIs3hGHKgG4I8HbnHYUQrUPNDSGEqLGS8kpsO35JI55y1ws7eQVdfDzhRas5Gi8uNQs345PxzvA+vKMozYrfD+Kd4X3gZEtbLgnhgZobQghRc3KFAmdux+LEzfv4Yb56Hrh+ntU7DiGoXSt08fGEiaEB7zhESUoqqnAtNhE345Px5bvqc0ltY/xy9DymB3eHgR6tPhLCCzU3hBCiITIeF2Hnicv47M3RvKMo3caDp+Hr6Qx/L1eYGRvyjkOaqKi8EtGJ6YhOSteoVcaGLkQloHeHNrxjEKL1qLkhhBANIpXJcPjyXYzv24V3FJUIWbsTbg628PNygZ+XK6zNTHhHIi+QU1iC+8kZuJ+UgZBpI3jHUZl/hx/DjME90MLSnHcUQgiouSGEEI2UkJ6D8NNX8fV7E3hHUakfd0XC38sF7T2c4WhjyTuO1kvNLUBsSiaiE9M1YjDAq5y6FYOBany5LiGaiJobQgjRUNW1ddh//ibeGNKLdxQmVm6PgK+HC3w9neHu2AI6vANpAZlcjkcZuYhJyURsSqbGN9P1ftwVienBPeBgbcE7CiHkGdTcEEKIhotNyUT4mWtYPmsS7yjMfLV1H9p7tISvpwu8nR0gontGlKZWIkVcahZikjOQkJaDlXPUfxR5Yy1aH4aBndtjUCdf6OpS+0yIEFFzQwghWqCiuhZ7zl7HeyP68o7CxX/3Hoe7Qwu42FnD1cGWzuo0QV5RKdLzCpGZX4SUnHx8MnU470hcrAk7iqkDu6NlCxrxTIiQUXNDCCFa5PaDVBy8eAvfvq89qzjPs3TLHrg7tICrvS3cHGzg3MIaRgb6vGNxV1JeiZyiUqTm5CPjcSFScwuwas4U3rG4+mrrXozoHoAuPp68oxBCGoGaG0II0TIV1TU4ejUKt+KTseaDGbzjCMayX/fDycYSjrZWT3+0szKHro7mbT+SyuTIKSxGdkEJcgqLkVNQguzCEq1vehtauD4UPf28MTTIn+6tIUSNUHNDCCFaKjO/CPvP39TYe0eU5afwY7AxN4GNhRnMjY1gZWYMKzMTWJqZCPpy0bLKahSXV6K4vBIlFVVPf55fUoZP39C8u5CUaePB0xjbpzPsrWi8MyHqhpobQgjRcrcSknHkyl0smzmRdxS18+nGcFiZGcPS1BimRoYwMzaEqZEhTP/8sf7fLU2NlVazsKwCFdU1qKiqQUV1DcqralFRXY3yqhpUVNeipLxSK8Ywq8Ly3w9ibK9A+Hq68I5CCHlN1NwQQghBnUSKk7diMLJHAO8oGu2zTeEQi3QhFon+/Ef36Y96IhGkMjkkMhmkMhmkMjmkUhmkchkkUjlWz9Xusy+q9OnGcAzs1B6DOtOdNYSoO2puCCGEPFVSUYXj16Nx60EK1iyYzjsOISoVsi4Undt4YESPjjA1MuQdhxCiBNTcEEII+Ye84jIcuxaFd4dr5+hoovn+t+8ExvfpDCdbGu1MiCah5oYQQsgLpecV4tDlO/hwwmDeUQhRihW/H8SIHgHo0MqVdxRCiApQc0MIIeSVEtKyEXntntZe4EjU35LNezCwU3v0C/DhHYUQokLU3BBCCGm0+8kZ+ON6NBZNH8k7CiGN8tXWfejbsS16+beBnljEOw4hRMWouSGEENIkCoUCdx6m4cTNaHz+Jo0cJsL09S/70C/ABz18vampIUSLUHNDCCHktV2PS8TJW7FY+vZY3lEIAQAs+2U/BnXxRVcfT4hF1NQQom2ouSGEENJs9xLTcTH6AQ0eINys2n4IvTu0QU8/b95RCCEcUXNDCCFEabLyi3HhXjyiHqXj+/nTeMchGi4+r+OlAAAD2UlEQVRkXSh83JzQy98b3i6OvOMQQgSAmhtCCCFKV15Vg8v3H+J6XCK+fm8C7zhEwyzdshddfTzR088bVmYmvOMQQgSEmhtCCCEqI5crEJeaiWtxSXiQnoM1C6bzjkTU2E/hx9DLzxsB3u4Qi3R5xyGECBA1N4QQQpgorazCjbhk3IhPwhIaQEAaacnmPQho7Yau7bzg3MKadxxCiMBRc0MIIYS5hPQc3E5Ixv3kTHw3byrvOESANkacRuc2nujUxp13FEKIGqHmhhBCCDd1EiliU7Nw92EqHqTn0BACLbdiWwS6tPVEFx9PWJoa845DCFFD1NwQQggRhOraOkQlpuPuw1QsGB/MOw5h5JtfD8DPyxl+ni7wamnPOw4hRM1Rc0MIIURwKqprEZOcgdiUTDzKzMV382hFR5N8v/MwfD1d4OvpAhc7OkdDCFEeam4IIYQIWp1EioT0bMSmZCIuNRvfvj+JdyTSRCFrd8LF3ga+ni7w93SBraUZ70iEEA1FzQ0hhBC18igzF48ycvEgIxf/mjKMdxzyAks270EbV0e0dXVEW7eWMDUy4B2JEKIFqLkhhBCitqpq6vAwIwcPM3PxMCMXS2nENDch60LhYmeNtq5OaOPmCFc7G+jo6PCORQjRMtTcEEII0Rh5RaVIyn6MtNwCpOTk44u3xvCOpNF+CD0KD0dbtHJ2gLeLA4wM9HlHIoRoOWpuCCGEaKyK6hokZT1Gam4+UrLzkV1QjB8WTOcdSy0t3bIXbvY2cHOwhZuDLVztbWCgp8c7FiGE/A01N4QQQrSGRCpDVkExsvKLkPm4CJn5RQiZNoJ3LMFZ9st+2FtbwMHGAk62VnB3sEULS3PesQgh5JWouSGEEKL10vMKkZlfhMfFpSgqq0RhWQWKyiqxeu4U3tFU6tvfD8Leyhz21pZ//mgBe2sLGOrTigwhRD1Rc0MIIYS8QHlVDYrKnzQ6RWUVKKusfvJPVTXKq2pQVlmN7+ZN5R3zhRZv2AUbcxNYm5vC1tIc1mYmsLEwffLvFqYQi0S8IxJCiFJRc0MIIYQ0Q02dBGWV1SivrkF1TS2qayWorqtDdW39PxJU19ahViKFRCqFRCqDVCaDVCaHVCaDRCrDitmTG13v043hMDEygImhAUz//PHJvxs+/e/mxoawMjeBhYmxCv/khBAiPNTcEEIIIYQQQjSCLu8AhBBCCCGEEKIM1NwQQgghhBBCNAI1N4QQQgghhBCNQM0NIYQQQgghRCNQc0MIIYQQQgjRCNTcEEIIIYQQQjQCNTeEEEIIIYQQjUDNDSGEEEIIIUQj/H8RmmhcLFOGxwAAAABJRU5ErkJggg==;" vertex="1" parent="1">
          <mxGeometry x="540" y="295.80499999999995" width="83" height="82.19" as="geometry" />
        </mxCell>
        <mxCell id="PcTv8KJDjpJ5iuoM4f3U-10" value="Normalized changes are delivered&lt;br&gt;to your S3 Bucket accessed through &lt;br&gt;Config APIs and optionally sent via SNS." style="sketch=0;points=[[0,0,0],[0.25,0,0],[0.5,0,0],[0.75,0,0],[1,0,0],[0,1,0],[0.25,1,0],[0.5,1,0],[0.75,1,0],[1,1,0],[0,0.25,0],[0,0.5,0],[0,0.75,0],[1,0.25,0],[1,0.5,0],[1,0.75,0]];outlineConnect=0;fontColor=#232F3E;gradientColor=#60A337;gradientDirection=north;fillColor=#277116;strokeColor=#ffffff;dashed=0;verticalLabelPosition=bottom;verticalAlign=top;align=center;html=1;fontSize=12;fontStyle=0;aspect=fixed;shape=mxgraph.aws4.resourceIcon;resIcon=mxgraph.aws4.s3;" vertex="1" parent="1">
          <mxGeometry x="820" y="297.9" width="78" height="78" as="geometry" />
        </mxCell>
        <mxCell id="PcTv8KJDjpJ5iuoM4f3U-17" style="edgeStyle=orthogonalEdgeStyle;rounded=0;orthogonalLoop=1;jettySize=auto;html=1;" edge="1" parent="1" source="PcTv8KJDjpJ5iuoM4f3U-13" target="PcTv8KJDjpJ5iuoM4f3U-10">
          <mxGeometry relative="1" as="geometry" />
        </mxCell>
        <mxCell id="PcTv8KJDjpJ5iuoM4f3U-13" value="AWS QuickSight" style="sketch=0;points=[[0,0,0],[0.25,0,0],[0.5,0,0],[0.75,0,0],[1,0,0],[0,1,0],[0.25,1,0],[0.5,1,0],[0.75,1,0],[1,1,0],[0,0.25,0],[0,0.5,0],[0,0.75,0],[1,0.25,0],[1,0.5,0],[1,0.75,0]];outlineConnect=0;fontColor=#232F3E;gradientColor=#945DF2;gradientDirection=north;fillColor=#5A30B5;strokeColor=#ffffff;dashed=0;verticalLabelPosition=bottom;verticalAlign=top;align=center;html=1;fontSize=12;fontStyle=0;aspect=fixed;shape=mxgraph.aws4.resourceIcon;resIcon=mxgraph.aws4.quicksight;" vertex="1" parent="1">
          <mxGeometry x="1100" y="180" width="78" height="78" as="geometry" />
        </mxCell>
        <mxCell id="PcTv8KJDjpJ5iuoM4f3U-16" style="edgeStyle=orthogonalEdgeStyle;rounded=0;orthogonalLoop=1;jettySize=auto;html=1;" edge="1" parent="1" source="PcTv8KJDjpJ5iuoM4f3U-14" target="PcTv8KJDjpJ5iuoM4f3U-10">
          <mxGeometry relative="1" as="geometry" />
        </mxCell>
        <mxCell id="PcTv8KJDjpJ5iuoM4f3U-14" value="Athena" style="sketch=0;points=[[0,0,0],[0.25,0,0],[0.5,0,0],[0.75,0,0],[1,0,0],[0,1,0],[0.25,1,0],[0.5,1,0],[0.75,1,0],[1,1,0],[0,0.25,0],[0,0.5,0],[0,0.75,0],[1,0.25,0],[1,0.5,0],[1,0.75,0]];outlineConnect=0;fontColor=#232F3E;gradientColor=#945DF2;gradientDirection=north;fillColor=#5A30B5;strokeColor=#ffffff;dashed=0;verticalLabelPosition=bottom;verticalAlign=top;align=center;html=1;fontSize=12;fontStyle=0;aspect=fixed;shape=mxgraph.aws4.resourceIcon;resIcon=mxgraph.aws4.athena;" vertex="1" parent="1">
          <mxGeometry x="1100" y="297.9" width="78" height="78" as="geometry" />
        </mxCell>
      </root>
    </mxGraphModel>
  </diagram>
</mxfile>
